<svg width="661" height="661" viewBox="0 0 661 661" fill="none" xmlns="http://www.w3.org/2000/svg">
<path d="M327.275 247.505C327.922 247.412 327.988 244.094 327.618 244.054C326.296 243.935 325.794 247.729 327.275 247.505Z" stroke="#808080" stroke-miterlimit="10"/>
<path d="M186.904 295.612C187.988 295.216 194.982 296.683 194.982 294.462C194.982 293.034 187.79 291.157 186.904 291.818C186.974 292.769 187.371 293.666 188.028 294.357C188.028 295.057 185.001 294.277 184.736 295.018C184.947 295.382 185.292 295.649 185.698 295.76C186.104 295.871 186.537 295.818 186.904 295.612Z" stroke="#808080" stroke-miterlimit="10"/>
<path d="M250.347 339.344C247.412 339.503 244.583 335.735 241.371 335.286C238.515 334.889 238.343 334.585 235.832 335.616C238.634 334.466 231.31 331.082 231.271 331.068C230.041 330.738 228.785 334.069 227.675 333.593C227.9 333.686 228.997 330.949 227.873 329.918C226.749 328.887 224.753 331.373 224.647 331.306C224.833 331.412 227.781 323.93 224.185 321.973C220.721 319.699 217.879 320.122 214.732 318.549C211.798 317.069 211.533 313.433 207.409 313.697C209.087 313.592 204.156 309.295 205.518 309.837C203.324 308.965 199.08 310.815 196.264 310.181C195.14 309.943 194.413 307.061 192.787 307.061C190.302 307.061 190.976 311.516 190.58 312.349C189.429 314.874 188.967 305.739 190.13 306.479C189.297 305.95 183.52 309.969 182.872 310.445C181.55 311.424 181.048 313.327 179.699 313.724C181.973 313.05 172.428 311.992 174.411 312.746C168.37 310.445 171.133 309.665 169.494 304.338C169.018 302.831 170.591 302.117 169.309 300.742C168.026 299.367 162.936 299.155 161.377 300.16C160.266 300.768 161.522 295.983 162.011 295.48C163.981 293.484 164.655 288.87 161.562 288.764C156.498 288.632 158.997 293.114 155.851 294.674C146.385 299.38 145.962 286.068 146.266 280.476C146.15 280.393 146.026 280.322 145.896 280.264C146.026 280.322 146.15 280.393 146.266 280.476C146.782 270.627 153.881 273.297 159.803 273.985C158.243 273.799 159.565 271.446 161.363 271.341C163.04 271.402 164.693 271.765 166.241 272.411C169.229 273.297 168.476 272.411 170.697 276.179C171.569 277.686 171.913 281.467 173.869 282.088C174.041 282.088 173.764 268.313 174.887 266.661C176.302 264.572 179.686 261.981 180.757 260.606C183.203 257.473 180.85 261.002 181.154 257.367C181.154 256.984 180.175 251.801 181.841 251.801C181.193 251.801 182.41 256.666 182.343 256.706C184.009 255.556 182.925 253.864 183.004 252.555C183.004 251.511 188.398 249.726 188.834 248.774C189.02 248.377 186.257 248.774 186.257 248.695C186.257 247.293 190.593 247.531 191.227 247.095C191.48 245.302 192.106 243.581 193.065 242.045C195.021 240.022 199.9 240.472 201.407 237.378C201.222 237.762 202.054 239.295 203.099 238.991C199.252 240.115 197.414 242.164 202.028 241.477C204.381 241.12 207.951 238.833 209.709 237.511C209.815 237.431 208.902 236.294 209.035 235.501C208.955 236.003 206.126 238.238 205.465 238.145C200.97 237.325 203.112 234.311 201.367 233.148C200.902 233.37 200.387 233.466 199.873 233.426C199.397 231.813 205.307 230.596 199.622 229.856C195.656 229.341 193.739 235.052 191.042 235.052C192.364 235.052 198.326 227.807 201.142 227.12C202.266 226.749 218.13 225.599 216.808 222.096C216.444 221.886 216.069 221.696 215.684 221.528C214.587 220.51 218.553 219.505 214.151 218.989C214.045 218.508 214.005 218.014 214.032 217.522C213.609 217.231 209.167 219.069 209.167 219.055C208.823 217.443 213.278 217.257 213.781 216.411C213.781 216.478 204.249 211.851 205.108 210.714C206.867 208.44 206.853 210.978 205.716 207.448C205.399 206.483 201.155 200.534 201.46 200.257C199.397 202.121 200.561 206.364 196.965 206.377C192.999 206.377 193.382 201.83 193.382 199.225C193.382 198.075 183.533 195.14 182.806 195.167C177.241 195.312 179.528 195.669 179.184 200.085C179.118 200.838 178.298 203.971 178.377 204.421C179.038 207.845 181.868 208.942 180.136 213.331C179.607 214.653 176.447 215.037 176.17 215.817C175.866 216.861 177.399 217.918 177.161 219.161C177.069 219.664 177.677 224.383 177.36 224.238C175.258 223.246 176.183 225.203 173.83 223.101C171.186 220.734 173.023 217.31 171.477 215.512C170.868 214.785 163.188 211.877 161.482 211.097C159.237 209.826 156.606 209.412 154.079 209.934C154.753 209.828 153.445 205.968 153.154 205.531C151.488 202.702 149.69 205.849 150.695 200.243C150.946 198.842 157.212 192.113 157.305 192.311C157.305 192.034 152.175 190.117 152.215 190.024C152.929 188.319 157.278 193.065 158.468 189.482C157.926 191.135 165.356 187.869 163.505 186.534C162.725 185.979 158.362 186.534 158.627 184.485C158.455 185.807 167.973 186.336 164.192 182.965C164.06 182.846 167.656 182.965 168.383 182.965C168.885 182.965 167.061 181.22 167.18 181.048C167.722 180.506 169.626 183.692 172.124 180.916C174.054 178.761 171.12 178.536 171.001 176.447C171.001 176.209 173.975 175.403 172.984 173.909C172.23 172.772 168.277 171.411 166.969 171.834C166.056 172.124 167.299 176.566 164.827 178.007C164.498 177.683 164.246 177.29 164.087 176.857C163.042 176.923 165.025 180.717 163.69 180.096C162.355 179.475 162.236 176.778 162.024 176.593C161.495 176.13 160.795 174.425 159.909 173.632C159.023 172.838 158.177 176.58 157.834 176.646C156.512 176.884 158.005 173.407 158.098 173.248C158.706 172.111 154.885 172.481 154.952 172.547C153.735 171.49 155.784 170.908 155.996 170.578C155.732 171.001 153.061 166.228 153.061 166.255C151.303 162.289 152.493 166.255 152.043 161.747C152.255 163.849 160.213 158.243 157.45 157.331C154.687 156.419 150.629 156.115 150.007 158.349C149.664 159.671 149.862 164.695 149.346 166.717C149.174 167.365 147.006 168.41 147.76 170.988C148.064 171.992 153.854 173.301 151.131 175.509C151.151 175.229 151.28 174.969 151.491 174.784C151.701 174.598 151.975 174.503 152.255 174.517C152.334 174.689 149.293 180.255 149.611 180.017C148.376 178.899 147.211 177.707 146.121 176.447C145.962 176.157 149.994 175.535 150.206 175.337C151.766 173.817 147.919 173.843 147.919 173.618C147.919 173.182 149.981 173.446 149.241 172.878C148.746 172.507 148.181 172.241 147.581 172.095C146.98 171.949 146.356 171.926 145.747 172.029C145.137 172.131 144.555 172.357 144.035 172.692C143.515 173.026 143.069 173.463 142.723 173.975C142.009 174.927 148.394 177.36 140.714 178.351C137.21 178.801 135.783 177.029 132.782 176.328C131.896 176.117 131.936 175.191 130.336 175.006C129.781 175.006 125.973 176.619 127.137 177.148C127.983 177.518 131.103 175.377 131.618 175.919C129.556 173.658 129.173 182.291 127.837 181.59C127.242 181.273 127.613 179.197 125.802 178.602C123.316 177.769 117.684 180.334 115.834 178.298C114.935 177.32 118.2 177.082 117.949 176.5C117.037 174.385 111.854 174.24 110.017 173.79C108.179 173.341 106.778 172.296 105.099 172.111C103.076 171.9 102.31 173.341 100.432 173.341C100.155 173.341 100.816 170.829 99.9432 170.697C99.341 171.701 98.5721 172.595 97.6693 173.341C95.8714 173.208 96.1094 168.793 93.9677 169.123C95.4219 168.899 90.9139 172.323 91.218 172.151C89.3038 173.368 87.322 174.476 85.2822 175.469C84.1585 175.403 91.6146 170.829 91.6014 171.001C91.6807 170.102 85.15 172.865 84.4229 173.261C83.6958 173.658 84.4229 172.111 83.1009 172.561C79.981 173.684 82.2019 174.649 81.4484 175.469C81.7525 175.152 62.1604 170.855 60.8649 170.75C58.948 170.591 47.0367 169.242 46.3228 168.423C45.0008 166.995 41.6033 168.515 40.0433 170.221C38.7874 171.543 29.4673 173.645 29.0575 175.667C28.1057 179.911 38.0075 180.704 38.761 183.018C38.761 183.203 27.6165 182.595 26.3871 185.53C26.8101 184.525 29.507 188.742 29.7846 188.848C31.1066 189.324 37.8753 187.869 37.9017 187.909C39.8054 189.8 35.6675 192.364 34.6496 193.316C33.4201 194.453 33.3276 192.615 31.8469 194.546C30.975 195.368 30.0425 196.123 29.0575 196.806C29.3748 196.515 31.3049 200.838 31.371 200.891C32.5476 201.922 36.1567 201.909 35.7336 201.486C36.8705 202.623 35.6279 205.003 36.6855 205.558C37.3993 205.941 39.8715 205.637 41.2331 206.192C40.0169 205.703 44.9744 204.038 44.6836 204.87C44.0093 206.906 35.879 216.768 34.6892 215.446C36.117 217.02 50.778 207.118 50.778 204.778C50.389 204.448 49.9401 204.197 49.456 204.037C49.1255 203.205 57.388 196.33 57.0971 199.001C57.0971 198.723 52.1661 202.768 53.303 203.813C53.6467 204.117 59.1066 202.226 59.913 201.909C60.7194 201.592 57.93 199.12 59.913 198.763C60.5872 198.644 63.1916 200.177 63.2973 200.085C63.173 200.047 63.042 200.037 62.9133 200.054C62.7846 200.071 62.661 200.116 62.5509 200.185C62.4407 200.253 62.3466 200.345 62.2747 200.453C62.2028 200.561 62.1548 200.684 62.134 200.812C62.3852 201.605 73.794 201.103 74.5079 201.737C74.1642 201.433 81.8318 208.056 81.7525 206.206C81.4265 205.551 81.3423 204.801 81.5145 204.09C85.1632 206.734 79.8091 207.475 79.8223 207.316C79.8223 207.501 82.5985 211.414 82.4663 211.454C82.9819 211.176 81.7525 207.911 82.5853 208.215C82.7726 208.629 82.85 209.084 82.8101 209.537C83.7355 210.727 83.8941 206.893 83.7751 207.157C83.9734 206.642 84.066 212.207 83.4843 212.128C82.6382 212.009 88.336 211.639 86.6571 212.459C87.1859 212.194 84.5815 210.648 86.0225 210.529C88.2435 210.343 86.4984 212.406 85.0178 212.538C85.0075 213.623 85.096 214.707 85.2822 215.777C85.7317 216.107 87.7676 214.19 88.7987 214.376C89.8299 214.561 89.6448 218.342 90.2133 219.135C90.6231 219.703 93.4786 222.572 93.8488 223.101C95.6354 224.962 97.6523 226.588 99.8506 227.939C99.6523 227.781 107.36 234.285 103.116 234.285C102.957 234.285 98.5154 222.321 93.5844 225.798C94.6155 225.071 100.194 233.095 100.578 234.126C102.64 240.049 99.2557 246.936 101.556 253.401C103.129 257.83 107.28 260.632 110.083 263.673C111.801 265.758 113.294 268.018 114.538 270.415C116.508 273.747 116.944 274.593 116.548 276.496C116.548 276.589 125.431 285.883 125.088 286.134C125.934 285.526 116.283 268.102 116.561 268.062C120.051 267.705 120.355 273.165 121.003 274.17C122.787 276.933 126.039 279.458 127.996 282.022C131.341 286.319 131.79 290.827 134.778 293.92C136.761 295.969 141.388 297.754 144.032 298.587C147.522 299.697 151.21 298.653 154.026 301.403C155.348 302.632 157.344 302.725 158.243 303.584C160.716 305.858 161.733 304.721 164.047 307.101C165.607 308.7 166.056 310.168 166.955 311.067C168.436 312.521 170.921 315.284 173.156 315.442C175.39 315.601 174.676 312.984 175.8 313.248C180.77 314.424 179.871 321.087 177.862 325.146C175.694 329.575 172.918 330.341 175.363 334.81C175.535 335.127 172.944 339.331 173.195 340.64C173.671 343.125 179.224 350.489 180.519 353.067C183.004 357.958 186.177 358.46 189.694 362.453C192.906 366.101 191.888 369.063 191.333 374.033C190.527 381.318 190.315 388.483 188.768 395.542C188.147 398.358 182.806 413.019 184.802 415.835C185.715 417.157 186.124 412.147 186.97 411.869C187.817 411.591 186.428 422.802 185.543 422.181C185.08 421.85 186.058 418.545 184.842 419.087C185.953 418.598 182.568 423.754 182.555 423.807C182.687 422.353 184.287 425.578 184.353 426.094C184.459 426.993 186.309 425.499 186.217 426.808C186.349 424.851 180.665 429.055 183.348 428.645C183.792 428.386 184.201 428.071 184.564 427.707C184.961 427.627 181.762 431.051 183.903 431.395C184.326 431.461 184.551 429.201 185.146 429.795C186.402 431.051 182.753 433.761 183.613 434.793C183.784 435.004 185.569 433.986 185.913 434.7C186.019 434.925 184.71 435.943 184.921 436.022C185.635 436.286 187.261 435.321 187.565 436.353C187.869 437.384 184.393 436.432 185.582 438.124C186.032 438.759 188.861 436.075 189.39 437.833C189.244 437.331 186.217 439.42 186.111 439.552C187.336 439.194 188.581 438.907 189.839 438.692C190.104 439.274 185.701 440.98 185.582 440.477C185.715 441.046 188.226 442.619 188.649 442.222C189.337 441.522 187.737 441.865 188.306 441.125C188.702 440.596 192.087 438.719 192.272 438.217C191.973 438.397 191.728 438.653 191.563 438.96C191.398 439.268 191.319 439.613 191.333 439.962C191.839 440.054 192.354 440.08 192.867 440.041C192.444 439.565 191.849 442.262 192.007 442.183C191.794 441.989 191.623 441.755 191.502 441.494C191.382 441.232 191.315 440.95 191.307 440.662C190.553 440.332 190.936 442.249 190.831 442.169C190.754 441.918 190.583 441.707 190.354 441.579C190.125 441.451 189.855 441.416 189.601 441.482C190.223 440.609 188.834 444.126 188.834 442.923C188.834 442.249 190.976 444.893 190.923 444.84C191.213 444.408 191.415 443.922 191.518 443.412C192.658 444.296 193.845 445.117 195.074 445.871C195.735 446.069 194.598 444.324 194.982 444.377C196.727 444.228 198.449 443.873 200.111 443.319C197.732 442.447 194.823 438.217 194.374 438.031C194.017 437.939 192.668 438.23 192.867 437.318C193.065 436.405 194.334 437.635 194.664 437.318C194.995 437 193.171 434.184 193.554 433.352C194.149 432.03 195.193 431.659 195.868 430.43C196.766 428.791 198.987 427.535 199.12 425.71C199.239 424.269 197.044 424.243 197.15 423.833C197.56 422.247 198.578 418.36 200.217 416.298C200.838 415.505 202.953 413.429 202.94 413.416C202.425 412.98 198.379 413.337 200.508 410.124C199.833 411.129 205.333 409.252 205.055 409.41C205.809 408.974 204.95 406.436 205.333 406.026C207.21 404.03 214.124 406.925 214.904 401.597C215.076 400.421 211.837 396.309 211.771 396.388C212.868 395.238 217.985 397.71 220.8 394.723C221.501 393.982 225.004 387.782 224.991 387.967C224.65 388.874 224.207 389.739 223.669 390.545C223.669 389.316 227.781 385.918 228.309 384.49C229.076 382.455 228.151 379.797 229.208 377.88C231.337 374.152 236.109 374.866 238.753 373.201C242.151 371.046 243.129 367.913 244.173 363.947C244.821 361.488 244.173 355.221 245.495 353.252C245.31 353.648 258.742 338.868 250.347 339.344Z" stroke="#808080" stroke-miterlimit="10"/>
<path d="M185.08 291.594C187.023 288.95 165.052 284.217 167.801 288.222C166.479 286.306 176.566 288.87 177.055 289.135C178.695 290.073 182.687 294.806 185.08 291.594Z" stroke="#808080" stroke-miterlimit="10"/>
<path d="M178.074 295.203C178.378 295.771 181.22 296.525 181.511 295.864C181.802 295.203 177.704 294.489 178.074 295.203Z" stroke="#808080" stroke-miterlimit="10"/>
<path d="M197.308 295.361C197.969 296.511 199.952 295.824 200.071 295.361C200.375 294.542 196.634 294.224 197.308 295.361Z" stroke="#808080" stroke-miterlimit="10"/>
<path d="M208.003 436.895C208.902 437.384 210.766 434.925 209.947 434.766C209.127 434.607 207.144 436.432 208.003 436.895Z" stroke="#808080" stroke-miterlimit="10"/>
<path d="M210.198 437.066C210.793 437.384 213.252 436.26 212.961 435.665C212.419 434.435 209.643 436.736 210.198 437.066Z" stroke="#808080" stroke-miterlimit="10"/>
<path d="M156.075 329.575C155.322 330.804 156.816 332.007 157.12 331.465C157.424 330.923 156.829 328.345 156.075 329.575Z" stroke="#808080" stroke-miterlimit="10"/>
<path d="M223.246 172.785C223.405 169.824 218.87 171.265 218.196 171.463C217.522 171.662 223.035 176.408 223.246 172.785Z" stroke="#808080" stroke-miterlimit="10"/>
<path d="M274.064 170.763C273.522 171.093 266.846 170.049 266.806 170.168C266.978 169.718 269.225 167.14 268.935 167.035C270.402 167.59 274.619 172.6 274.818 167.96C274.976 165.25 271.01 165.25 270.429 163.003C270.257 162.381 275.584 164.721 274.514 161.416C273.919 159.539 268.683 162.738 268.895 160.729C268.816 161.429 270.706 158.27 270.376 158.627C272.041 156.789 279.63 163.121 274.725 156.763C274.527 156.511 279.127 156.591 279.352 155.652C279.577 154.714 274.778 154.846 275.862 153.008C277.184 150.761 280.661 154.026 278.506 149.426C278.585 149.584 272.967 147.667 273.826 146.782C274.685 145.896 281.282 146.782 281.031 145.764C280.396 143.358 277.131 145.896 276.867 143.834C276.721 142.763 278.85 143.834 279.167 143.278C280.357 141.401 274.011 142.921 274.236 143.093C272.517 141.771 281.269 133.614 281.52 133.958C279.92 131.817 278.453 135.386 277.316 134.262C276.179 133.139 283.649 132.2 283.847 132.068C284.481 131.671 279.881 130.746 279.656 131.05C280.463 129.728 291.237 129.847 291.237 126.872C291.237 122.906 281.018 126.714 279.881 127.084C278.982 127.361 277.686 126.198 277.065 126.436C275.016 127.216 273.099 130.547 270.931 130.865C273.086 130.547 275.531 125.339 272.015 124.717C271.46 124.625 265.511 129.014 265.141 127.692C264.85 126.648 268.723 126.158 268.631 125.286C268.446 123.435 255.992 126.33 255.966 126.053C255.781 123.528 273.31 124.546 275.069 122.166C276.047 120.844 252.78 117.089 250.678 117.631C250.149 117.764 246.989 118.887 246.633 118.953C245.905 118.864 245.171 118.824 244.438 118.834C240.472 119.284 236.625 119.02 232.672 119.773C232.183 119.866 234.391 121.346 234.364 121.478C234.338 121.611 230.901 121.835 231.377 122.457C231.271 122.325 236.242 125.987 235.898 126.066C233.108 126.661 227.966 120.289 225.19 122.351C224.502 122.853 227.239 124.532 227.239 124.916C227.239 126.449 221.633 123.171 221.792 123.171C221.382 123.171 221.541 126.515 220.748 127.018C223.167 125.511 217.76 123.382 216.914 123.303C215.999 123.227 215.082 123.432 214.286 123.89C213.491 124.349 212.853 125.038 212.459 125.868C211.203 126.304 209.352 124.783 207.726 125.444C206.563 125.92 208.757 127.877 207.144 128.763C206.708 129.001 195.405 129.278 196.912 132.729C198.049 135.373 204.157 132.61 198.736 137.038C197.256 138.241 192.973 137.752 191.108 139.021C182.449 144.931 199.12 141.031 198.948 144.309C198.948 144.68 190.104 144.693 190.276 145.512C190.5 146.715 196.463 149.478 198.049 149.624C201.261 149.928 204.342 147.522 208.625 149.624C212.379 151.435 216.174 155.15 217.297 159.341C218.619 164.245 215.499 164.867 220.642 164.867C221.926 166.597 223.398 168.18 225.031 169.586C224.846 169.731 219.294 167.392 219.294 168.806C219.294 172.111 227.04 169.692 224.978 175.588C224.661 176.46 222.215 175.218 221.488 177.002C220.921 178.183 220.622 179.474 220.616 180.783C220.497 183.163 224.066 191.359 226.697 195.008C228.812 197.903 230.068 198.353 233.056 199.701C237.735 201.803 236.651 202.068 239.295 198.154C240.313 196.621 238.74 195.14 239.15 193.951C239.362 193.329 241.384 193.342 241.688 192.007C242.072 190.289 241.834 187.446 242.058 186.719C242.624 186.655 243.196 186.732 243.724 186.944C243.949 186.812 246.857 182.899 247.201 182.899C247.419 183.092 247.561 183.356 247.602 183.644C247.643 183.932 247.58 184.225 247.426 184.472C247.994 186.256 254.67 180.307 254.802 180.202C257.354 178.351 256.984 178.232 259.258 177.227C264.294 175.072 269.966 173.182 274.064 170.763Z" stroke="#808080" stroke-miterlimit="10"/>
<path d="M103.618 150.311C105.073 149.518 105.073 150.311 106.17 149.161C106.479 149.719 106.881 150.22 107.36 150.642C109.091 150.642 109.792 146.914 110.876 146.676C111.96 146.438 111.207 149.981 113.705 147.562C114.657 146.649 114.445 145.803 115.371 144.785C115.622 144.508 110.083 144.693 109.343 144.944C107.241 145.684 103.539 150.364 103.618 150.311Z" stroke="#808080" stroke-miterlimit="10"/>
<path d="M114.697 148.831C112.198 149.029 116.019 150.655 115.939 150.258C114.914 150.267 113.912 150.56 113.044 151.105C112.595 151.739 115.543 151.501 115.225 151.62C114.141 151.674 113.098 152.046 112.224 152.691C113.824 155.031 116.547 152.81 117.816 152.017C117.155 152.427 121.703 153.55 122.007 153.088C121.571 153.735 117.301 154.33 117.367 155.018C117.605 157.239 125.894 154.291 127.123 153.696C131.235 151.898 132.411 153.352 130.508 149.73C130.68 150.021 126.066 146.834 125.339 147.218C123.197 148.328 126.661 150.549 126.145 151.329C124.916 153.352 120.765 149.055 119.786 148.804C117.261 148.275 116.785 148.672 114.697 148.831Z" stroke="#808080" stroke-miterlimit="10"/>
<path d="M142.684 166.466C145.711 168.74 149.294 160.24 147.337 160.134C147.079 160.343 146.903 160.636 146.837 160.962C146.772 161.288 146.823 161.626 146.98 161.918C147.192 161.469 144.495 160.596 144.548 160.596C143.966 159.684 148.395 158.851 145.526 156.908C143.398 155.454 143.649 158.151 143.688 158.138C144.059 157.952 137.316 157.358 139.458 159.288C140.181 159.488 140.92 159.63 141.666 159.711C144.204 161.918 137.25 160.729 137.964 160.596C135.942 161.02 142.062 166.003 142.684 166.466Z" stroke="#808080" stroke-miterlimit="10"/>
<path d="M100.26 164.999C101.11 165.919 101.909 166.886 102.653 167.894C104.478 167.894 106.394 165.25 107.293 164.562C109.647 162.804 112.991 161.086 115.371 159.116C116.257 158.389 104.517 155.018 102.984 155.494C98.0658 157.04 102.349 155.983 100.749 158.693C100.247 159.526 97.6031 163.888 97.9336 164.298C98.6551 164.683 99.446 164.922 100.26 164.999V164.999Z" stroke="#808080" stroke-miterlimit="10"/>
<path d="M109.237 151.541C110.559 151.699 111.881 150.391 111.881 149.65C111.881 148.91 108.563 151.461 109.237 151.541Z" stroke="#808080" stroke-miterlimit="10"/>
<path d="M188.623 167.894C188.815 167.894 189.005 167.855 189.182 167.78C189.358 167.705 189.518 167.595 189.651 167.457C189.785 167.319 189.889 167.155 189.957 166.976C190.026 166.797 190.058 166.605 190.05 166.413C190.368 167.497 184.406 164.377 183.863 164.192C182.541 163.743 183.374 162.527 181.219 162.037C179.752 161.707 177.505 163.888 177.571 163.902C175.588 163.201 176.421 164.047 174.173 164.047C172.521 164.047 175.31 154.991 168.132 159.327C163.796 161.971 167.391 163.293 167.59 166.096C167.59 166.559 164.351 165.131 164.483 163.029C164.602 161.125 166.982 159.42 166.982 158.217C166.982 155.996 159.169 160.861 158.785 162.632C158.27 164.959 161.627 169.613 163.002 167.788C162.645 168.251 159.34 167.352 159.433 168.224C159.909 172.997 177.108 170.022 177.478 170.987C177.25 170.839 177.054 170.645 176.904 170.417C176.754 170.19 176.652 169.934 176.606 169.665C176.844 168.872 182.66 173.274 182.7 173.631C182.032 174.011 181.465 174.546 181.048 175.191C182.158 176.117 183.388 174.253 185.238 176.17C187.327 178.338 187.287 177.888 187.79 181.18C187.896 181.867 194.109 179.858 192.985 182.727C191.862 185.596 190.209 181.986 189.389 182.251C188.57 182.515 186.441 182.595 185.304 182.938C185.39 183.674 185.624 184.384 185.992 185.027C184.234 185.886 181.378 185.12 180.03 186.349C175.072 190.593 185.318 188.015 186.732 188.464C188.147 188.914 196.713 199.384 198.934 196.396C199.49 195.629 195.167 190.95 194.36 191.108C197.639 190.156 202.451 195.577 200.732 190.09C199.965 187.645 194.122 185.754 196.687 182.7C197.744 181.378 202.16 186.838 202.9 186.812C202.9 186.812 207.236 182.264 207.236 182.291C207.236 179.25 195.259 177.611 195.643 174.663C196.371 174.33 197.156 174.137 197.956 174.094C197.428 173.553 196.752 173.181 196.013 173.023C195.814 171.212 197.93 171.305 194.889 171.305C197.097 171.305 191.835 168.912 191.637 168.833C191.016 168.634 188.623 167.894 188.623 167.894Z" stroke="#808080" stroke-miterlimit="10"/>
<path d="M85.7582 217.998C84.3701 218.804 87.49 222.625 88.3228 222.056C88.574 221.871 87.794 216.808 85.7582 217.998Z" stroke="#808080" stroke-miterlimit="10"/>
<path d="M135.426 153.18C135.941 152.519 134.302 151.131 133.852 152.281C133.403 153.431 134.844 153.854 135.426 153.18Z" stroke="#808080" stroke-miterlimit="10"/>
<path d="M175.826 197.163C176.355 197.07 177.399 195.021 176.051 195.101C174.702 195.18 175.019 197.282 175.826 197.163Z" stroke="#808080" stroke-miterlimit="10"/>
<path d="M183.308 179.686C187.393 178.933 179.343 175.985 180.664 177.122C181.55 177.849 178.391 180.585 183.308 179.686Z" stroke="#808080" stroke-miterlimit="10"/>
<path d="M169.216 195.352C170.419 196.172 172.203 193.964 172.058 193.303C171.912 192.642 167.801 194.334 169.216 195.352Z" stroke="#808080" stroke-miterlimit="10"/>
<path d="M154.872 153.352C155.56 155.467 172.653 156.34 174.636 154.899C182.568 149.174 157.886 152.043 158.217 150.179C158.596 149.681 159.041 149.237 159.539 148.857C160.147 148.051 146.121 145.222 147.191 146.887C150.139 151.382 152.902 147.138 154.872 153.352Z" stroke="#808080" stroke-miterlimit="10"/>
<path d="M137.673 171.728C138.07 171.212 139.987 172.785 140.066 171.648C140.066 170.842 134.368 166.783 133.866 165.488C133.585 163.74 133.457 161.97 133.482 160.2C134.157 159.592 134.09 158.878 133.258 158.283C132.689 158.084 132.074 158.056 131.489 158.201C130.905 158.347 130.375 158.66 129.966 159.103C130.752 159.657 131.455 160.32 132.055 161.072C132.055 160.689 128.313 159.34 127.943 160.081C127.414 161.138 129.648 164.972 128.935 165.369C128.802 165.369 123.885 159.843 123.647 161.099C124.169 161.544 124.616 162.07 124.969 162.659C124.969 162.857 122.245 162.738 122.391 163.121C120.421 157.913 118.795 164.153 117.01 162.474C116.825 162.289 120.077 159.83 116.243 159.83C114.763 159.83 110.955 161.958 110.466 163.201C108.245 168.489 113.229 164.602 115.318 166.215C115.424 166.294 110.903 167.471 110.903 168.092C110.903 170.868 121.598 167.815 121.598 170.154C121.598 170.723 111.96 170.154 112.344 171.714C113.335 176.024 125.564 175.165 128.049 174.821C129.348 174.5 130.677 174.318 132.015 174.279C132.848 174.279 139.696 176.632 138.876 173.843C138.215 171.662 136.642 174.504 136.1 173.023C136.547 172.506 137.079 172.067 137.673 171.728V171.728Z" stroke="#808080" stroke-miterlimit="10"/>
<path d="M202.015 228.177C202.161 228.825 206.51 230.821 206.655 229.896C206.801 228.97 201.883 227.609 202.015 228.177Z" stroke="#808080" stroke-miterlimit="10"/>
<path d="M158.64 143.662C157.318 142.921 155.6 144.481 157.001 145.063C158.244 145.552 160.042 144.402 158.64 143.662Z" stroke="#808080" stroke-miterlimit="10"/>
<path d="M147.02 142.604C155.824 142.604 145.433 137.699 144.852 138.638C144.27 139.577 145.988 142.604 147.02 142.604Z" stroke="#808080" stroke-miterlimit="10"/>
<path d="M147.918 134.474C147.998 134.474 154.859 137.686 154.528 136.602C154.713 137.157 151.369 137.924 151.541 138.162C153.735 140.581 157.186 142.128 160.292 141.282C160.504 141.282 166.757 135.65 166.572 136.602C166.321 137.924 161.958 132.187 161.72 132.002C161.482 131.817 152.215 126.952 151.316 127.639C151.385 127.892 151.527 128.118 151.724 128.29C151.922 128.462 152.166 128.571 152.426 128.604C152.426 129.12 150.153 128.71 149.941 129.133C150.364 129.468 150.774 129.811 151.17 130.164C150.721 131.037 148.103 129.741 148.196 131.486C148.75 132.153 149.452 132.682 150.245 133.033C150.298 133.958 145.288 133.033 147.918 134.474Z" stroke="#808080" stroke-miterlimit="10"/>
<path d="M173.962 158.349C172.072 162.817 181.59 161.786 181.59 160.808C181.59 159.314 174.504 157.08 173.962 158.349Z" stroke="#808080" stroke-miterlimit="10"/>
<path d="M153.088 143.014C152.929 142.511 147.258 143.265 148.144 143.992C149.637 145.222 153.233 143.503 153.088 143.014Z" stroke="#808080" stroke-miterlimit="10"/>
<path d="M118.583 142.921C118.966 141.943 116.111 142.102 116.349 142.432C116.865 143.173 118.213 143.913 118.583 142.921Z" stroke="#808080" stroke-miterlimit="10"/>
<path d="M151.435 151.871C150.232 150.88 146.676 153.259 147.165 153.669C149.108 155.322 155.837 155.493 151.435 151.871Z" stroke="#808080" stroke-miterlimit="10"/>
<path d="M134.156 145.301C134.751 144.481 131.75 141.864 131.605 143.093C131.459 144.323 133.522 146.173 134.156 145.301Z" stroke="#808080" stroke-miterlimit="10"/>
<path d="M140.74 146.742C138.955 145.988 141.493 149.386 141.216 149.386C140.388 148.724 139.413 148.27 138.374 148.064C137.739 148.579 139.299 150.139 138.783 150.391C137.977 150.774 136.007 146.993 134.897 146.927C132.517 146.795 135.743 150.311 135.849 150.377C137.845 151.58 139.418 150.655 141.414 151.197C141.137 151.118 143.622 157.529 145.962 151.858C147.667 147.667 142.776 147.562 140.74 146.742Z" stroke="#808080" stroke-miterlimit="10"/>
<path d="M124.797 142.512C126.119 142.3 119.509 140.727 119.509 143.252C119.482 147.535 124.81 142.512 124.797 142.512Z" stroke="#808080" stroke-miterlimit="10"/>
<path d="M121.135 140.952C121.743 141.229 126 141.176 126 140.304C126 137.118 118.941 140.648 119.112 140.793C119.776 140.939 120.457 140.992 121.135 140.952V140.952Z" stroke="#808080" stroke-miterlimit="10"/>
<path d="M143.873 134.553C144.402 133.575 140.727 132.795 141.639 133.654C142.155 134.143 143.358 135.545 143.873 134.553Z" stroke="#808080" stroke-miterlimit="10"/>
<path d="M133.628 138.413C134.831 138.017 135.584 138.413 135.875 139.564C135.73 139.92 133.099 139.815 133.231 140.053C133.363 140.291 147.628 145.909 140.344 138.731C139.377 137.817 138.187 137.174 136.893 136.867C130.455 136.073 134.157 138.03 133.628 138.413Z" stroke="#808080" stroke-miterlimit="10"/>
<path d="M174.636 190.844C174.782 189.985 167.326 184.882 166.929 184.934C166.215 185.027 162.738 189.694 163.188 191.174C163.637 192.655 174.702 190.447 174.636 190.844Z" stroke="#808080" stroke-miterlimit="10"/>
<path d="M156.974 126.357C159.618 124.453 157.437 127.15 157.463 127.19C158 127.213 158.532 127.297 159.05 127.441C156.062 130.944 164.629 130.376 164.589 129.715C164.972 135.161 175.509 127.89 176.778 128.789C179.21 130.521 170.379 132.226 170.591 132.517C170.591 132.517 173.433 134.923 173.076 134.936C171.397 135.069 162.619 128.829 164.1 134.381C164.444 135.703 171.344 138.347 171.344 139.563C171.344 139.563 162.646 136.919 162.434 140.714C162.302 143.067 167.233 140.291 167.286 140.436C166.519 138.731 168.053 145.724 168.053 144.402C168.053 145.988 161.31 140.277 161.588 143.424C162.204 143.99 162.868 144.503 163.571 144.957C163.571 145.499 157.781 145.975 159.142 147.35C160.702 148.95 178.298 149.439 179.184 147.35C180.07 145.261 172.574 145.79 172.243 145.235C173.288 146.874 178.853 142.26 179.29 142.049C182.092 140.502 183.256 142.776 184.736 138.4C185.173 137.078 179.885 137.078 179.937 137.078C183.018 134.897 187.076 135.756 189.879 134.434C191.584 133.588 201.684 128.366 201.777 127.599C201.869 126.833 197.044 127.401 196.766 127.282C199.093 128.3 207.342 122.814 207.475 122.84C206.814 122.629 197.242 119.377 197.084 121.835C197.464 121.257 198 120.799 198.63 120.513C196.753 121.254 187.354 120.751 186.085 120.817C181.775 121.042 177.611 120.249 173.817 121.293C173.05 121.505 155.414 127.295 155.084 126.581C155.384 126.742 155.726 126.806 156.064 126.766C156.402 126.726 156.72 126.583 156.974 126.357V126.357Z" stroke="#808080" stroke-miterlimit="10"/>
<path d="M216.808 224.74C215.217 225.728 213.963 227.175 213.212 228.891C213.027 229.288 209.735 232.593 211.071 233.386C214.098 235.157 216.887 230.742 217.205 234.708C217.099 233.386 221.594 235.197 221.792 234.814C221.713 234.985 220.47 231.376 221.065 231.641C221.871 232.011 215.103 227.331 215.195 228.111C215.435 226.868 215.99 225.707 216.808 224.74V224.74Z" stroke="#808080" stroke-miterlimit="10"/>
<path d="M27.3785 219.452C28.2774 219.042 28.7005 218.54 28.2774 218.051C27.8544 217.561 26.691 219.796 27.3785 219.452Z" stroke="#808080" stroke-miterlimit="10"/>
<path d="M33.7375 215.777C32.6931 215.367 31.6355 217.033 31.4901 217.019C31.0406 216.94 34.7422 216.187 33.7375 215.777Z" stroke="#808080" stroke-miterlimit="10"/>
<path d="M51.3993 206.668C49.6807 208.836 48.2662 212.987 51.9281 209.312C52.4702 208.757 53.2634 204.328 51.3993 206.668Z" stroke="#808080" stroke-miterlimit="10"/>
<path d="M28.8725 201.301C28.1719 200.878 27.6695 201.076 27.3787 201.869C27.6565 202.209 28.0253 202.463 28.442 202.601C28.8586 202.739 29.306 202.756 29.7318 202.649C32.2701 201.724 28.8593 201.155 28.8725 201.301Z" stroke="#808080" stroke-miterlimit="10"/>
<path d="M317.28 251.391C317.161 250.466 315.443 251.669 315.813 251.933C316.566 252.502 317.412 252.317 317.28 251.391Z" stroke="#808080" stroke-miterlimit="10"/>
<path d="M355.274 260.685C355.274 260.077 350.436 260.685 350.542 260.685C349.92 260.632 355.42 262.271 355.274 260.685Z" stroke="#808080" stroke-miterlimit="10"/>
<path d="M367.926 261.373C368.306 260.822 368.721 260.297 369.168 259.799C367.838 260.071 366.549 260.515 365.335 261.121C364.674 262.39 368.071 262.245 367.926 261.373Z" stroke="#808080" stroke-miterlimit="10"/>
<path d="M285.843 189.363C291.131 189.072 286.16 180.995 283.622 182.476C283.04 182.806 279.312 184.882 278.638 184.683C278.555 184.429 278.397 184.205 278.185 184.042C277.972 183.879 277.715 183.785 277.448 183.771C274.13 187.737 277.567 182.634 272.993 182.634C272.041 182.634 273.482 183.956 273.231 183.956C272.305 183.85 270.904 183.573 270.679 185.278C270.573 186.032 274.487 185.86 274.341 185.714C274.196 185.569 273.958 187.116 274.09 187.036C273.984 187.102 270.957 187.169 271.221 187.711C271.314 187.896 273.984 187.988 274.447 188.53C275.293 189.509 273.535 190.725 273.35 190.526C276.549 194.069 282.419 189.561 285.843 189.363Z" stroke="#808080" stroke-miterlimit="10"/>
<path d="M295.744 223.934C300.186 223.934 301.403 220.734 300.966 217.324C300.821 216.16 303.2 216.002 300.53 214.534C299.333 214.578 298.152 214.829 297.04 215.274C296.961 217.654 297.212 215.552 294.674 216.94C294.594 217.02 294.647 223.934 295.744 223.934Z" stroke="#808080" stroke-miterlimit="10"/>
<path d="M309.348 201.724C309.771 201.261 310.274 199.476 309.626 199.675C308.978 199.873 309.177 201.922 309.348 201.724Z" stroke="#808080" stroke-miterlimit="10"/>
<path d="M300.834 206.021C300.504 205.664 299.208 207.673 299.71 207.66C300.213 207.647 301.151 206.377 300.834 206.021Z" stroke="#808080" stroke-miterlimit="10"/>
<path d="M300.411 208.479C302.037 207.051 300.504 213.966 300.504 213.08C300.504 211.837 302.645 213.688 302.407 213.728C302.876 213.364 303.214 212.858 303.372 212.287C304.126 212.406 302.883 215.248 302.896 215.433C303.042 216.543 305.752 214.732 305.911 215.023C307.695 218.13 304.483 219.425 304.589 221.474C304.12 221.573 303.691 221.811 303.361 222.158C303.031 222.505 302.813 222.945 302.738 223.418C304.104 223.749 305.498 223.952 306.902 224.026C306.995 224.528 301.019 225.758 302.487 227.714C302.487 227.714 313.221 225.361 313.856 224.713C314.49 224.066 312.758 224.475 312.811 224.013C313.102 221.858 314.794 222.863 313.856 220.509C313.048 220.122 312.335 219.562 311.767 218.87C310.564 216.834 309.387 212.458 306.479 212.67C306.479 212.67 308.356 209.55 308.158 209.061C307.338 206.972 305.792 209.352 304.628 207.95C304.232 207.488 307.021 205.624 306.201 204.857C305.633 204.222 300.53 208.373 300.411 208.479Z" stroke="#808080" stroke-miterlimit="10"/>
<path d="M330.989 215.235C330.672 215.155 335.22 214.005 333.052 212.525C331.201 211.256 330.804 215.195 330.989 215.235Z" stroke="#808080" stroke-miterlimit="10"/>
<path d="M343.086 207.554C342.134 207.554 341.764 209.616 341.936 209.96C342.107 210.304 344.024 207.475 343.086 207.554Z" stroke="#808080" stroke-miterlimit="10"/>
<path d="M348.374 206.946C349.042 206.663 349.638 206.234 350.119 205.69C351.335 204.341 346.496 207.051 348.374 206.946Z" stroke="#808080" stroke-miterlimit="10"/>
<path d="M349.788 204.54C349.986 204.13 348.347 204.315 348.717 204.685C348.793 204.755 348.883 204.808 348.982 204.839C349.08 204.87 349.185 204.879 349.287 204.865C349.389 204.851 349.487 204.815 349.574 204.758C349.66 204.702 349.734 204.628 349.788 204.54V204.54Z" stroke="#808080" stroke-miterlimit="10"/>
<path d="M342.464 133.363C343.878 134.58 346.641 133.178 348.4 134.276C348.334 134.276 344.87 135.598 344.883 135.598C345.742 137.819 358.103 136.682 357.27 133.258C357.165 132.848 349.206 131.724 349.523 131.618C349.283 131.844 349.125 132.143 349.072 132.468C349.02 132.793 349.076 133.126 349.233 133.416C348.572 133.905 345.372 131.275 344.658 131.367C344.213 131.794 343.847 132.295 343.574 132.848L342.252 131.856C340.838 131.843 342.252 133.191 342.464 133.363Z" stroke="#808080" stroke-miterlimit="10"/>
<path d="M332.099 136.695C329.561 136.1 333.421 140.661 334.029 140.965C335.206 141.639 336.144 138.783 336.991 138.453C337.837 138.122 336.634 140.013 337.453 139.96C338.011 139.616 338.617 139.357 339.251 139.193C339.978 140.33 333.963 142.525 334.77 142.736C336.29 143.12 337.929 142.128 339.502 142.511C337.911 142.852 336.357 143.348 334.862 143.992C334.717 145.473 337.506 145.407 338.194 145.671C338.126 145.847 338.015 146.002 337.872 146.125C337.729 146.247 337.558 146.332 337.374 146.372C336.991 146.887 339.476 147.138 339.873 146.901C340.835 145.635 341.718 144.31 342.517 142.935C342.821 142.551 345.227 136.787 346.72 139.154C346.324 138.519 347.329 144.177 346.787 144.071C347.421 144.204 353.132 145.169 352.907 142.511C353.026 143.833 346.998 138.109 347.104 138.189C345.227 136.655 342.424 136.404 341.089 136.073C341.869 136.258 339.846 133.562 338.881 133.244C337.48 132.782 339.198 138.228 339.291 137.792C340.613 132.187 335.391 136.589 335.431 136.576C334.959 136.081 334.436 135.638 333.871 135.254C334.314 134.998 334.79 134.802 335.285 134.672C334.849 134.844 325.635 135.201 332.099 136.695Z" stroke="#808080" stroke-miterlimit="10"/>
<path d="M330.566 140.013C330.928 140.357 331.327 140.658 331.756 140.912C331.201 140.912 330.593 138.043 329.509 138.374C329.444 138.73 329.517 139.098 329.714 139.402C329.91 139.706 330.215 139.925 330.566 140.013V140.013Z" stroke="#808080" stroke-miterlimit="10"/>
<path d="M630.924 191.994C630.163 191.945 629.413 192.196 628.836 192.695C629.166 193.104 634.018 194.241 634.018 193.144C633.159 192.401 632.06 191.992 630.924 191.994Z" stroke="#808080" stroke-miterlimit="10"/>
<path d="M548.63 243.512C548.379 241.846 544.664 248.985 546.528 247.954C546.198 248.139 548.088 246.897 548.035 247.174C547.718 246.711 547.387 246.249 547.044 245.852C547.044 246.249 557.805 246.156 557.263 241.476C557.553 244.015 548.26 239.811 549.331 239.084C549.436 238.991 548.63 243.248 548.63 243.512Z" stroke="#808080" stroke-miterlimit="10"/>
<path d="M528.72 266.541C529.249 267.612 529.752 265.048 530.042 266.33C530.042 266.515 529.329 270.375 530.571 270.098C531.589 269.873 533.427 266.198 531.893 265.537C531.444 265.391 527.372 263.831 528.72 266.541Z" stroke="#808080" stroke-miterlimit="10"/>
<path d="M534.656 266.105C535.027 264.479 537.3 266.409 537.3 263.858C537.3 262.536 534.656 263.858 534.524 264.096C534.088 264.902 534.286 267.692 534.656 266.105Z" stroke="#808080" stroke-miterlimit="10"/>
<path d="M538.345 260.579C538.345 260.579 530.122 260.95 530.756 263.832C530.836 264.202 537.684 263.184 538.173 263.078C536.639 263.435 539.64 264.162 539.997 264.136C541.161 264.043 540.275 262.443 540.486 262.311C541.808 261.505 545.774 263.025 547.096 261.188C548.154 259.747 550.56 249.832 548.696 248.761C546.356 247.439 545.193 254.948 544.095 256.481C543.21 257.697 538.596 258.028 538.345 260.579Z" stroke="#808080" stroke-miterlimit="10"/>
<path d="M495.895 294.542C496.243 293.835 496.544 293.107 496.794 292.36C496.596 291.607 492.365 292.175 493.225 293.801C493.317 294 495.75 297.305 495.895 294.542Z" stroke="#808080" stroke-miterlimit="10"/>
<path d="M513.398 287.932C514.218 287.31 516.148 283.133 515.5 282.181C513.332 279.021 511.614 289.346 513.398 287.932Z" stroke="#808080" stroke-miterlimit="10"/>
<path d="M511.852 299.354C510.702 303.161 522.997 308.251 520.459 311.172C524.544 306.479 515.766 304.562 514.867 302.421C513.968 300.279 518.026 297.212 514.867 295.374C512.751 294.118 511.905 299.195 511.852 299.354Z" stroke="#808080" stroke-miterlimit="10"/>
<path d="M509.71 311.278C508.82 312.165 508.095 313.204 507.569 314.345C507.357 313.935 511.892 311.08 511.059 309.255C510.697 309.47 510.388 309.764 510.155 310.114C509.922 310.464 509.77 310.862 509.71 311.278V311.278Z" stroke="#808080" stroke-miterlimit="10"/>
<path d="M512.803 304.932C512.949 305.699 513.306 307.286 514.403 306.902C515.5 306.519 512.698 304.39 512.803 304.932Z" stroke="#808080" stroke-miterlimit="10"/>
<path d="M519.837 311.503C519.44 310.961 518.448 311.965 518.594 312.375C518.739 312.785 520.233 311.992 519.837 311.503Z" stroke="#808080" stroke-miterlimit="10"/>
<path d="M521.49 312.428C521.49 312.428 514.219 317.148 515.448 317.029C516.677 316.91 517.18 315.191 518.436 316.077C519.692 316.963 518.925 319.818 521.331 319.818C519.533 319.818 523.248 315.971 523.076 316.645C523.258 315.864 523.204 315.047 522.922 314.296C522.639 313.546 522.141 312.896 521.49 312.428V312.428Z" stroke="#808080" stroke-miterlimit="10"/>
<path d="M515.501 307.722C515.187 308.073 515.022 308.532 515.039 309.003C515.056 309.474 515.255 309.919 515.593 310.247C518.727 309.56 514.496 312.627 516.915 313.195C518.991 313.697 519.136 306.929 515.501 307.722Z" stroke="#808080" stroke-miterlimit="10"/>
<path d="M565.882 339.172C565.882 341.34 560.316 339.992 560.237 340.653C559.933 343.799 568.804 340.759 566.979 338.472C566.371 338.286 566.001 338.511 565.882 339.172Z" stroke="#808080" stroke-miterlimit="10"/>
<path d="M568.129 338.961C569.623 338.524 566.966 336.634 566.649 336.555C567.138 336.66 567.64 339.093 568.129 338.961Z" stroke="#808080" stroke-miterlimit="10"/>
<path d="M558.545 342.781C559.867 342.874 554.248 338.101 552.953 337.361C550.045 335.709 544.4 333.144 541.491 333.316C540.645 333.316 539.469 335.96 538.437 335.775C536.362 335.391 537.552 333.131 536.071 332.562C534.749 332.047 534.749 330.632 532.515 330.963C532.131 331.029 529.963 332.734 530.73 332.906C531.153 332.998 535.542 335.444 535.569 334.691C535.569 335.034 532.925 335.021 532.634 335.061C531.418 335.285 537.208 338.128 537.578 338.3C540.13 339.542 541.98 339.278 543.461 341.882C544.942 344.487 541.385 344.341 541.98 345.518C543.078 347.673 551.142 345.769 552.001 345.782C554.354 345.782 554.315 345.703 557.289 347.17C557.21 347.17 564.52 350.819 563.74 349.523C563.384 349.008 557.078 342.702 558.545 342.781Z" stroke="#808080" stroke-miterlimit="10"/>
<path d="M446.611 311.886C445.527 312.018 445.501 318.324 446.757 318.827C450.26 320.254 449.48 311.542 446.611 311.886Z" stroke="#808080" stroke-miterlimit="10"/>
<path d="M393.586 352.247C393.586 352.313 391.246 356.332 390.849 356.742C389.792 357.799 387.015 358.447 386.183 359.386C383.882 362.03 385.429 363.233 385.032 367.146C384.742 369.909 381.489 381.066 388.998 377.431C393.295 375.342 392.409 363.061 394.022 359.029C394.234 358.5 395.344 360.218 395.344 357.984C395.344 355.75 394.075 354.19 393.586 352.247Z" stroke="#808080" stroke-miterlimit="10"/>
<path d="M400.91 306.558C401.465 307.193 402.562 306.453 402.628 306.201C402.694 305.95 400.275 305.845 400.91 306.558Z" stroke="#808080" stroke-miterlimit="10"/>
<path d="M579.578 347.831C579.723 348.651 580.9 349.153 581.297 348.862C581.693 348.572 579.419 346.985 579.578 347.831Z" stroke="#808080" stroke-miterlimit="10"/>
<path d="M574.264 342.781C574.264 342.993 575.414 344.262 575.678 344.103C575.942 343.945 574.33 342.398 574.264 342.781Z" stroke="#808080" stroke-miterlimit="10"/>
<path d="M579.869 346.073C580.279 345.782 577.555 344.143 577.516 344.672C577.476 345.2 579.459 346.364 579.869 346.073Z" stroke="#808080" stroke-miterlimit="10"/>
<path d="M571.104 340.494C571.011 340.983 572.611 343.588 573.206 343.138C574.264 342.398 571.17 340.005 571.104 340.494Z" stroke="#808080" stroke-miterlimit="10"/>
<path d="M581.336 345.994C580.953 346.893 582.447 348.453 582.658 348.492C582.87 348.532 581.68 345.293 581.336 345.994Z" stroke="#808080" stroke-miterlimit="10"/>
<path d="M582.645 349.643C582.645 349.841 583.689 350.832 584.179 350.462C584.668 350.092 582.513 349.286 582.645 349.643Z" stroke="#808080" stroke-miterlimit="10"/>
<path d="M529.184 352.26C529.554 352.591 531.418 352.181 531.352 351.692C531.286 351.203 528.615 351.771 529.184 352.26Z" stroke="#808080" stroke-miterlimit="10"/>
<path d="M568.83 383.816C568.83 383.816 567.931 378.396 568.394 378.608C565.208 377.114 560.568 370.477 558.267 366.974C556.536 364.33 556.007 361.514 554.619 358.222C553.905 356.517 552.424 357.799 551.975 356.689C551.234 355.063 551.975 351.665 550.375 350.171C549.159 349.034 548.511 358.302 548.498 358.341C546.806 363.153 547.81 363.233 543.474 361.699C542.232 361.25 538.49 359.333 538.186 357.733C537.909 356.345 541.174 354.005 540.738 353.133C541.068 353.794 532.885 350.806 532.713 350.885C532.502 351.414 532.713 351.824 533.348 352.115C531.1 349.471 527.399 358.883 528.509 358.725C529.038 358.659 525.165 358.117 526.235 358.725C523.459 357.112 523.882 355.512 520.564 357.892C518.409 359.452 519.176 361.541 517.92 362.929C517.59 363.299 517.365 361.038 516.849 361.382C515.065 362.585 516.453 364.132 514.84 365.454C512.844 367.08 511.839 367.185 509.644 368.283C506.762 369.697 504.713 370.134 502.215 372.487C502.091 372.325 502.01 372.136 501.977 371.935C501.945 371.734 501.963 371.529 502.03 371.337C502.03 371.931 501.316 373.795 501.236 374.787C501.157 375.778 502.188 379.612 501.911 380.194C501.474 380.011 501.118 379.678 500.906 379.255C501.108 379.68 501.272 380.123 501.395 380.577C500.985 380.26 500.589 379.93 500.192 379.599C499.716 380.789 503.312 387.121 503.656 388.536C503.828 389.263 503.788 396.111 503.484 395.476C505.784 400.196 509.116 396.97 512.923 395.846C516.043 394.934 518.052 394.273 521.066 393.136C523.393 392.264 528.337 390.492 530.876 390.915C532.436 391.167 540.235 397.274 538.451 398.081C538.993 397.843 542.205 393.85 542.417 394.035C543.421 394.974 540.791 397.512 540.658 398.094C540.183 400.381 543.302 396.296 542.456 396.957C543.58 396.058 543.051 399.746 542.946 399.455C542.84 399.165 546.634 404.334 546.991 404.624C549.132 406.475 554.46 404.757 554.407 404.73C554.486 405.141 554.486 405.562 554.407 405.973C553.918 405.365 556.179 406.726 556.721 407.295C555.623 406.251 562.987 403.95 562.776 404.188C563.899 402.866 564.547 397.063 565.42 395.172C565.962 393.625 568.182 384.345 568.83 383.816Z" stroke="#808080" stroke-miterlimit="10"/>
<path d="M539.773 400.262C540.182 400.672 541.557 400.553 541.782 399.971C542.007 399.389 539.376 399.892 539.773 400.262Z" stroke="#808080" stroke-miterlimit="10"/>
<path d="M556.681 411.671C555.689 411.475 554.722 411.169 553.799 410.759C554.301 410.613 553.891 418.506 558.108 416.285C560.237 415.108 561.057 411.142 556.681 411.671Z" stroke="#808080" stroke-miterlimit="10"/>
<path d="M592.891 425.446C593.155 425.525 594.014 425.287 593.525 424.626C593.036 423.965 592.256 425.261 592.891 425.446Z" stroke="#808080" stroke-miterlimit="10"/>
<path d="M609.799 404.691C608.794 406.528 606.6 401.928 606.401 401.941C606.304 402.095 606.252 402.274 606.252 402.456C606.252 402.639 606.304 402.818 606.401 402.972C606.573 402.708 603.083 397.962 602.356 397.962C602.277 397.962 604.868 403.091 605.093 403.726C605.873 405.999 603.308 405.907 603.4 407.15C603.4 407.057 605.264 412.438 605.159 412.319C607.3 416.338 611.861 400.91 609.799 404.691Z" stroke="#808080" stroke-miterlimit="10"/>
<path d="M603.705 411.301C601.603 409.661 588.964 420.951 592.785 423.516C596.606 426.081 605.476 412.728 603.705 411.301Z" stroke="#808080" stroke-miterlimit="10"/>
<path d="M612.007 362.228C612.416 362.4 613.765 361.911 613.765 361.21C613.765 360.509 611.385 362.03 612.007 362.228Z" stroke="#808080" stroke-miterlimit="10"/>
<path d="M609.693 364.449C610.327 365.11 611.597 365.057 611.636 363.88C611.676 362.704 609.124 363.867 609.693 364.449Z" stroke="#808080" stroke-miterlimit="10"/>
<path d="M392.832 131.658C392.203 131.792 391.641 132.143 391.245 132.649C391.946 134.183 398.411 131.103 398.437 130.666C398.543 128.63 393.215 131.076 392.832 131.658Z" stroke="#808080" stroke-miterlimit="10"/>
<path d="M402.166 132.53C402.166 131.658 399.522 132.623 400.077 132.808C400.632 132.993 402.166 133.403 402.166 132.53Z" stroke="#808080" stroke-miterlimit="10"/>
<path d="M390.44 131.222C391.333 130.819 392.302 130.611 393.282 130.614C393.613 129.715 387.518 130.614 387.703 131.116C387.868 131.315 388.073 131.477 388.305 131.592C388.536 131.706 388.79 131.77 389.048 131.78C389.306 131.79 389.564 131.746 389.803 131.65C390.043 131.553 390.26 131.407 390.44 131.222V131.222Z" stroke="#808080" stroke-miterlimit="10"/>
<path d="M392.991 174.927C394.446 176.394 395.331 174.266 396.085 173.949C397.116 173.539 390.308 172.204 392.991 174.927Z" stroke="#808080" stroke-miterlimit="10"/>
<path d="M403.712 158.402C401.675 160.385 399.776 162.505 398.028 164.748C398.028 164.906 400.91 167.312 400.672 167.392C400.421 166.876 400.513 166.493 400.949 166.255C400.685 166.255 408.167 172.521 408.498 168.899C408.59 167.934 405.206 165.858 405.061 164.51C404.915 163.161 406.383 161.773 406.951 160.544C407.873 158.901 409.017 157.393 410.349 156.062C412.57 154.013 428.672 147.257 427.958 146.649C426.239 145.182 411.882 149.875 409.556 151.329C408.3 152.202 403.752 158.402 403.712 158.402Z" stroke="#808080" stroke-miterlimit="10"/>
<path d="M561.189 154.965C561.885 155.15 562.616 155.166 563.319 155.012C564.023 154.858 564.68 154.538 565.235 154.079C565.578 150.311 548.961 154.079 561.189 154.965Z" stroke="#808080" stroke-miterlimit="10"/>
<path d="M548.418 156.868C548.418 156.049 545.774 157.172 546.832 157.582C547.427 157.807 548.418 157.688 548.418 156.868Z" stroke="#808080" stroke-miterlimit="10"/>
<path d="M477.639 142.221C478.643 142.842 487.606 141.348 487.911 139.577C488.215 137.805 482.715 137.303 482.887 138.678C481.895 130.878 478.934 143.027 477.639 142.221Z" stroke="#808080" stroke-miterlimit="10"/>
<path d="M469.905 134.5C469.409 134.958 469.017 135.517 468.755 136.14C471.267 138.546 477.387 140.396 477.916 136.14C478.366 132.53 469.905 133.522 469.905 134.5Z" stroke="#808080" stroke-miterlimit="10"/>
<path d="M467.261 132.967C468.887 133.72 465.833 133.8 465.648 133.905C464.776 134.342 468.887 134.104 469.614 133.8C470.341 133.495 475.801 131.896 474.796 130.666C470.764 125.59 466.481 132.61 467.261 132.967Z" stroke="#808080" stroke-miterlimit="10"/>
<path d="M499.187 155.89C498.037 158.415 501.21 156.644 501.236 156.221C501.139 156.046 501.003 155.896 500.84 155.781C500.676 155.667 500.489 155.591 500.292 155.559C500.094 155.527 499.893 155.54 499.701 155.598C499.51 155.655 499.334 155.755 499.187 155.89V155.89Z" stroke="#808080" stroke-miterlimit="10"/>
<path d="M403.316 130.508C404.122 131.407 408.987 131.499 409.199 129.913C409.265 129.371 405.153 128.591 404.902 128.683C405.603 128.578 403.752 130.984 403.316 130.508Z" stroke="#808080" stroke-miterlimit="10"/>
<path d="M465.965 129.093C466.164 128.274 462.859 128.631 463.718 129.411C464.022 129.688 465.767 129.913 465.965 129.093Z" stroke="#808080" stroke-miterlimit="10"/>
<path d="M615.166 168.687C615.391 168.859 619.793 168.555 618.921 167.524C616.858 165.052 612.443 168.568 612.773 168.74C613.567 168.7 614.36 168.687 615.166 168.687Z" stroke="#808080" stroke-miterlimit="10"/>
<path d="M542.02 153.484C543.644 154.494 545.578 154.884 547.467 154.581C548.789 154.33 552.239 152.294 550.93 151.832C551.552 152.056 553.376 156.221 554.447 152.995C555.346 150.351 552.808 150.959 550.481 150.205C550.283 150.139 546.184 150.034 546.158 150.034C546.779 149.915 538.147 151.382 542.02 153.484Z" stroke="#808080" stroke-miterlimit="10"/>
<path d="M552.411 160.477C555.055 159.843 545.563 156.67 547.427 159.605C548.022 160.557 551.525 160.702 552.411 160.477Z" stroke="#808080" stroke-miterlimit="10"/>
<path d="M628.082 185.886L629.973 186.323C630.462 186.323 629.351 185.675 629.497 185.582C628.928 185.939 632.841 184.591 631.943 184.26C632.009 184.26 624.275 179.66 624.169 181.259C624.288 179.475 624.949 184.141 624.685 183.282C623.257 178.562 613.606 173.393 608.199 172.23C605.199 171.582 600.082 171.688 598.258 172.534C598.403 172.455 599.487 174.848 598.007 175.76C597.319 176.183 594.041 173.301 594.808 172.944C595.574 172.587 596.539 174.2 596.738 172.666C596.883 171.424 590.405 173.169 589.467 173.301C587.892 173.286 586.32 173.166 584.76 172.944C582.711 172.746 583.809 174.557 582.962 174.967C583.69 174.623 580.318 171.714 580.318 171.741C577.37 169.242 577.793 168.78 572.307 168.357C570.628 168.224 562.419 168.357 561.586 165.858C561.348 165.118 564.084 166.003 563.357 164.787C561.744 162.143 555.2 165.171 555.121 165.448C555.582 165.179 556.024 164.879 556.443 164.549C555.843 164.257 555.208 164.044 554.553 163.915C553.984 162.989 557.197 163.915 557.197 163.426C557.673 160.596 543.54 162.262 544.929 164.192C545.134 164.296 545.36 164.35 545.59 164.35C545.819 164.35 546.046 164.296 546.251 164.192C545.352 163.69 546.409 167.616 546.317 166.426C546.317 166.651 543.104 166.056 542.575 166.426C542.849 166.703 543.178 166.919 543.54 167.061C543.54 167.061 534.617 165.369 534.009 165.223C533.401 165.078 532.383 168.952 531.034 168.872C529.025 168.753 527.491 163.968 526.473 164.034C527.035 164.309 527.66 164.432 528.285 164.391C530.836 162.897 521.926 157.609 520.022 158.005C518.634 158.296 518.343 161.271 517.841 161.35C517.087 161.482 509.909 161.178 509.71 160.345C509.578 159.896 510.676 159.341 510.213 159.222C506.511 158.257 503.603 159.988 501.303 160.213C500.694 160.213 501.421 158.058 500.523 157.9C500.086 157.82 494.058 157.9 494.6 158.574C494.931 158.693 495.274 158.785 495.618 158.878C495.71 159.671 488.069 160.887 487.911 161.31C489.55 157.093 501.911 156.022 500.906 151.567C500.602 150.245 501.422 149.148 498.685 147.839C495.195 146.2 492.564 148.817 489.431 148.037C489.765 147.417 490.173 146.84 490.647 146.319C490.647 146.663 486.271 145.473 485.729 145.698C486.1 145.539 488.744 145.103 488.162 144.19C486.166 141.15 481.552 145.023 479.886 146.24C480.745 145.618 476.674 151.012 476.528 148.474C476.862 148.822 477.23 149.136 477.626 149.412C477.811 148.831 472.946 149.915 472.694 149.822C472.84 149.465 472.999 149.122 473.17 148.778C471.329 148.977 469.508 149.326 467.724 149.822C467.96 150.197 468.328 150.47 468.755 150.589C468.676 149.968 460.611 152.731 460.016 153.008C458.113 153.894 459.091 153.815 458.271 154.912C457.796 154.912 457.306 154.912 456.83 154.819C456.659 155.004 458.483 155.864 458.496 156.022C458.059 156.089 457.617 156.12 457.174 156.115C457.174 156.115 459.184 157.305 458.271 158.138C457.729 158.627 454.596 158.362 453.697 158.547C441.165 161.191 453.697 162.037 451.265 165.356C450.3 166.678 444.033 161.218 442.196 163.042C442.037 163.201 444.219 164.721 443.729 164.853C442.778 165.118 441.323 163.73 440.636 165.052C440.094 166.109 445.065 167.788 444.681 168.251C444.681 168.251 439.393 167.154 439.393 167.074C438.349 165.884 441.191 162.487 438.97 161.786C436.749 161.086 435.44 171.767 436.326 172.984C438.719 176.236 443.187 174.517 444.694 179.475C445.488 182.119 440.107 175.799 442.447 176.831C440.847 176.143 441.363 174.755 439.248 175.125C436.234 175.641 439.102 177.359 437.926 178.787C436.604 180.466 434.819 182.899 432.982 183.308C432.479 183.427 427.971 183.189 428.381 181.986C428.315 182.145 434.33 181.378 435.335 178.02C435.969 175.892 434.912 174.187 434.449 171.754C434.317 171.053 434.647 163.716 434.7 163.822C431.144 157.966 425.221 164.642 424.917 168.793C424.997 167.643 424.785 173.103 424.521 172.415C424.521 172.415 430.946 176.54 427.165 177.148C424.521 177.597 413.945 168.264 410.679 170.128C411.539 169.639 416.417 178.51 411.711 176.606C409.86 175.852 411.777 175.68 407.52 176.064C407.52 176.064 400.712 177.201 401.24 176.778C401.769 176.355 402.708 175.918 402.562 174.861C402.562 175.535 393.665 178.443 392.423 178.985C390.691 179.739 391.101 182.951 387.901 180.823C384.702 178.695 389.501 178.787 389.898 178.324C391.339 176.593 384.028 174.715 384.292 175.813C384.292 175.509 386.011 181.299 384.636 180.294C388.06 182.766 384.094 182.528 383.869 182.7C379.903 185.873 379.903 182.449 379.123 188.121C378.991 189.072 375.845 187.155 375.356 187.539C374.708 187.129 374.034 186.706 373.439 186.283C372.275 186.825 372.117 187.526 372.91 188.398C374.827 187.314 375.448 192.562 372.103 189.918C371.284 189.271 366.749 179.342 364.899 180.215C366.221 179.58 384.993 188.517 379.242 178.219C378.145 176.236 366.445 171.291 365.454 172.534C365.898 172.496 366.326 172.346 366.697 172.098C366.538 170.776 363.669 172.098 363.352 171.794C362.572 170.935 360.708 172.865 360.139 170.749C360.245 171.159 363.18 170.366 363.259 169.956C363.881 166.532 357.866 169.586 358.606 169.613C358.011 169.613 358.923 167.762 358.87 167.669C357.654 165.329 356.623 169.652 355.949 169.652C355.711 169.652 356.107 167.603 355.684 167.881C354.878 168.74 354.085 169.613 353.278 170.525C352.406 170.697 354.984 167.696 354.97 167.63C354.719 166.07 352.049 169.057 352.062 169.057C352.895 168.343 348.704 171.437 349.934 171.067C348.321 171.556 350.357 167.431 350.555 168.198C350.661 168.555 348.109 168.489 348.149 169.097C348.511 169.457 348.755 169.918 348.85 170.419C348.224 170.285 347.579 170.263 346.946 170.353C347.161 170.751 347.493 171.074 347.898 171.278C347.115 171.149 346.36 170.89 345.663 170.511C345.769 170.511 346.377 172.799 345.663 172.362C344.421 171.543 344.685 170.221 343.019 170.974C342.887 170.974 339.397 173.618 339.463 174.015C339.529 174.411 341.169 173.671 340.904 175.059C340.904 175.059 337.956 175.059 338.062 175.191C338.181 174.676 338.313 174.173 338.472 173.658C336.877 175.23 335.2 176.718 333.448 178.113C334.77 178.113 337.718 174.861 339.12 176.156C339.12 176.156 338.908 177.584 338.882 177.597C334.916 179.184 333.805 185.622 330.143 187.222C329.826 187.367 331.637 188.544 331.029 188.808C328.94 189.614 328.927 190.421 327.195 191.849C327.063 191.954 325.873 190.328 325.794 191.346C325.596 193.435 324.564 191.822 323.52 193.382C323.61 193.561 323.737 193.72 323.891 193.847C324.046 193.975 324.226 194.068 324.419 194.122C323.308 191.663 320.453 198.088 320.559 197.586C319.924 201.473 322.462 200.23 322.661 200.851C323.229 202.848 320.347 201.909 320.479 201.803C320.338 202.376 320.24 202.96 320.189 203.548C320.189 204.275 321.735 202.755 322.026 203.548C322.224 204.077 321.061 204.632 320.902 204.87C318.946 207.858 327.512 205.544 326.494 205.769C327.816 205.465 328.596 203.284 329.39 202.821C329.866 202.53 333.567 214.085 333.937 214.217C335.682 214.878 339.318 209.577 339.9 209.405C339.662 210.013 339.358 210.158 338.974 209.841C339.318 206.734 343.033 204.275 342.94 201.909C342.94 198.815 339.437 200.283 340.574 195.735C341.222 193.091 343.218 192.866 344.54 191.002C345.611 189.482 347.369 185.093 349.392 184.392C358.791 181.286 347.21 192.245 346.919 192.8C346.192 194.122 346.721 199.49 347.369 200.137C350.013 202.781 354.97 200.825 357.839 200.045C358.079 199.65 358.348 199.275 358.646 198.921C358.345 199.272 358.076 199.648 357.839 200.045C359.022 200.184 360.146 200.641 361.091 201.367C361.726 202.107 353.027 203.059 353.41 202.874C347.832 205.518 353.212 205.439 351.811 207.052C350.145 209.696 349.801 207.686 349.167 208.255C348.942 208.453 344.804 208.757 346.338 211.85C347.832 215.208 344.87 216.028 343.006 216.702C343.165 216.702 338.141 217.191 336.938 217.35C334.294 217.667 335.696 218.037 334.426 216.213C333.884 215.446 330.817 218.328 330.249 217.905C330.136 217.494 330.136 217.06 330.249 216.649C329.522 216.451 327.314 216.649 327.605 214.732C327.605 214.389 329.522 215.75 329.681 214.904C329.971 213.305 328.768 214.362 328.359 213.582C328.134 213.225 330.421 209.365 329.231 208.056C328.425 207.171 327.089 210.185 327.089 210.185C326.23 211.044 325.397 209.51 325.265 213.093C325.265 214.243 327.473 216.861 326.904 217.984C326.481 218.844 321.682 219.73 320.783 220.311C319.172 221.701 317.665 223.208 316.275 224.819C315.352 225.924 314.33 226.942 313.222 227.86C311.9 228.481 309.018 228.124 308.581 228.375C307.59 228.931 309.494 230.438 308.581 231.191C307.669 231.945 305.052 229.605 304.444 230.755C302.778 233.835 305.263 231.495 306.731 233.835C308.74 237.048 311.86 240.882 307.193 243.248C305.025 244.358 299.711 241.503 297.939 242.455C294.621 244.266 297.212 244.107 296.498 247.187C295.044 253.467 295.176 256.098 300.345 257.763C303.954 258.94 307.775 258.2 310.776 254.181C313.156 250.982 314.583 245.429 318.219 243.169C317.399 243.684 325.82 242.217 325.12 242.19C328.729 242.375 326.442 241.86 329.562 244.253C329.469 244.173 341.46 255.172 338.075 255.172C339.992 255.172 339.397 250.321 339.529 250.202C339.921 250.133 340.323 250.164 340.699 250.291C341.076 250.418 341.414 250.637 341.684 250.929C340.362 250.532 328.464 237.709 334.281 238.026C335.074 238.026 341.327 245.138 343.324 246.262C343.349 246.105 343.389 245.95 343.443 245.799C343.389 245.95 343.349 246.105 343.324 246.262C341.367 245.112 348.545 257.195 348.545 254.379C348.545 251.894 345.307 260.54 349.537 258.213C349.546 257.58 349.448 256.949 349.246 256.349C349.627 256.454 350.029 256.454 350.409 256.349C351.031 255.582 349.087 255.688 349.511 255.291C349.934 254.895 351.93 256.032 351.639 254.419C351.295 252.462 350.238 254.419 349.511 253.639C349.748 253.903 349.206 249.673 348.863 249.884C349.533 250.076 350.218 250.209 350.912 250.281C352.036 249.779 358.037 249.818 359.492 248.364C359.108 248.747 357.086 245.152 357.218 244.398C358.005 242.783 358.972 241.262 360.1 239.864C360.787 238.885 361.104 236.638 362.532 235.977C363.431 235.554 367.45 235.713 367.675 236.929C366.994 237.477 366.237 237.923 365.427 238.251C365.348 237.828 367.252 240.577 367.199 240.525C367.146 240.472 372.368 239.203 372.487 239.044C372.791 238.515 367.781 238.806 370.187 236.228C370.755 235.633 376.387 233.584 376.797 234.391C376.889 234.589 372.831 238.357 372.976 239.07C373.505 241.595 381.239 242.97 380.987 245.68C380.644 249.408 376.202 248.1 373.597 248.047C372.487 248.047 371.601 246.791 370.517 246.725C366.961 246.5 364.872 247.32 361.514 248.258C357.205 249.461 352.432 251.695 357.429 256.785C359.769 259.178 362.056 258.107 364.7 258.213C365.573 258.213 370.887 257.063 371.601 257.526C372.315 257.988 370.054 264.281 369.777 264.955L370.663 265.365C370.663 265.537 370.662 265.735 370.596 265.907C370.596 265.735 370.596 265.537 370.663 265.365L369.803 264.968C367.159 271.169 362.136 269.899 355.592 268.67C353.86 268.353 352.459 267.52 350.727 267.282C347.924 266.898 349.405 264.638 345.677 266.555C344.447 267.203 344.791 269.688 344.659 269.741C342.451 270.613 332.933 267.374 330.474 264.849C328.015 262.324 332.179 260.17 330.315 257.539C329.178 255.939 321.431 257.38 319.237 257.618C316.533 258.064 313.877 258.763 311.305 259.707C308.595 260.474 306.4 260.249 303.875 260.91C301.733 261.478 302.553 260.579 300.715 261.584C302.698 260.526 296.445 266.238 297.212 265.008C296.26 266.528 295.52 268.207 294.568 269.741C293.881 270.931 294.066 272.491 292.929 274.196C292.189 275.32 290.682 275.518 289.849 276.364C287.522 278.953 285.665 281.928 284.362 285.155C282.908 288.844 283.767 289.439 283.648 292.664C283.529 295.665 282.591 298.864 282.683 301.826C282.789 305.078 284.257 306.387 285.843 308.951C289.412 314.755 293.643 320.122 300.491 320.849C304.125 320.985 307.754 320.479 311.212 319.355C311.662 319.236 316.249 316.711 316.725 317.28C317.984 318.042 319.281 318.739 320.612 319.369C321.22 319.66 320.982 321.127 321.762 321.484C322.542 321.841 323.414 320.651 324.062 321.061C327.698 323.348 326.296 321.365 328.147 325.556C328.504 326.481 327.433 329.442 327.446 329.905C327.526 333.673 328.94 334.228 331.135 338.049C332.946 341.182 335.246 347.303 334.757 350.938C334.228 354.785 331.412 358.116 331.24 362.334C330.95 365.163 334.982 371.826 335.603 374.787C336.727 380.075 338.353 383.314 340.124 388.337C342.53 395.172 340.468 396.653 348.056 395.701C355.433 394.802 359.624 392.488 363.484 385.125C364.086 383.204 364.528 381.236 364.806 379.242C367.45 375.435 369.01 377.51 369.737 372.539C370.253 369.01 368.045 369.023 369.962 365.639C371.495 362.915 375.713 362.506 377.352 360.06C380.736 354.97 377.22 349.352 376.255 344.196C375.21 338.683 378.026 334.704 381.82 330.606C383.38 328.9 402.06 309.216 396.256 307.074C392.29 305.58 387.809 311.304 383.235 308.396" stroke="#808080" stroke-miterlimit="10"/>
<path d="M417.13 130.785C418.651 128.644 410.52 129.82 412.345 131.433C413.217 132.2 416.43 131.764 417.13 130.785Z" stroke="#808080" stroke-miterlimit="10"/>
<path d="M408.604 131.817C407.837 132.147 407.07 132.425 406.29 132.689C405.272 133.826 411.446 133.641 411.843 132.319C412.094 131.513 408.498 131.605 408.604 131.817Z" stroke="#808080" stroke-miterlimit="10"/>
<path d="M408.353 128.869C409.43 128.599 410.47 128.195 411.446 127.665C410.798 126.78 406.251 128.512 406.158 128.208C406.451 128.475 406.8 128.674 407.18 128.788C407.56 128.903 407.961 128.93 408.353 128.869V128.869Z" stroke="#808080" stroke-miterlimit="10"/>
<path d="M550.124 225.136C551.181 227.78 548.022 235.329 549.674 237.444C548.551 236.003 552.186 237.59 552.212 237.603C552.239 237.616 550.758 233.254 550.89 233.068C552.212 230.12 553.535 231.495 553.984 230.914C554.777 229.843 550.111 217.958 550.772 217.535C548.894 218.738 549.555 223.762 550.124 225.136Z" stroke="#808080" stroke-miterlimit="10"/>
<path d="M430.404 160.927C431.334 161.008 432.265 160.776 433.048 160.266C434.079 158.19 428.156 160.544 430.404 160.927Z" stroke="#808080" stroke-miterlimit="10"/>
<path d="M446.268 161.139C446.162 160.266 444.337 161.39 444.946 161.747C445.554 162.104 446.36 162.011 446.268 161.139Z" stroke="#808080" stroke-miterlimit="10"/>
<path d="M420.78 130.508L422.287 129.715C422.776 128.036 417.792 130.111 417.977 130.349C418.861 130.742 419.857 130.798 420.78 130.508V130.508Z" stroke="#808080" stroke-miterlimit="10"/>
<path d="M587.074 368.838C587.179 369.499 591.37 373.002 591.965 372.566C592.56 372.13 586.968 368.217 587.074 368.838Z" stroke="#808080" stroke-miterlimit="10"/>
<path d="M178.867 281.956C177.928 280.185 179.078 285.459 179.501 284.481C179.23 283.656 179.018 282.812 178.867 281.956V281.956Z" stroke="#808080" stroke-miterlimit="10"/>
<path d="M206.456 310.948C207.699 311.225 208.109 310.802 207.659 309.705C206.774 308.885 206.047 310.538 206.456 310.948Z" stroke="#808080" stroke-miterlimit="10"/>
<path d="M492.048 335.405C492.048 334.915 490.726 335.153 491.162 335.841C491.599 336.528 492.048 335.894 492.048 335.405Z" stroke="#808080" stroke-miterlimit="10"/>
<path d="M502.36 345.954C503.011 346.135 503.695 346.157 504.356 346.02C505.242 345.28 499.557 344.301 499.716 344.381C499.766 343.981 499.971 343.618 500.289 343.37C500.606 343.122 501.008 343.01 501.408 343.059C499.927 344.05 486.985 339.701 487.844 342.768C488.175 344.064 501.778 346.826 502.36 345.954Z" stroke="#808080" stroke-miterlimit="10"/>
<path d="M517.695 346.02C519.017 346.02 519.163 345.848 518.237 345.465C517.576 345.359 511.389 346.02 511.508 346.285C512.315 348.043 516.572 346.086 517.695 346.02Z" stroke="#808080" stroke-miterlimit="10"/>
<path d="M507.648 345.359C507.172 346.536 506.009 344.949 505.401 345.756C504.158 347.422 509.671 347.382 510.147 346.232C510.437 345.571 507.886 344.817 507.648 345.359Z" stroke="#808080" stroke-miterlimit="10"/>
<path d="M493 328.847C496.768 332.694 494.93 336.013 501.143 336.343C506.312 336.608 506.603 332.496 509.961 328.292C509.736 328.57 507.74 323.85 507.767 323.414C507.872 321.405 510.252 321.695 510.662 320.36C511.072 319.025 505.863 318.073 505.585 318.139C503.906 318.509 504.752 321.471 501.87 321.246C501.778 321.246 496.807 326.944 496.794 326.983C497.164 326.098 490.382 326.164 493 328.847Z" stroke="#808080" stroke-miterlimit="10"/>
<path d="M473.276 327.367C473.17 327.909 473.725 329.495 474.32 328.847C474.915 328.2 473.395 326.825 473.276 327.367Z" stroke="#808080" stroke-miterlimit="10"/>
<path d="M475.748 332.073C475.643 332.337 476.198 333.395 476.542 333.104C476.885 332.813 476.052 331.201 475.748 332.073Z" stroke="#808080" stroke-miterlimit="10"/>
<path d="M488.162 338.141C488.016 335.841 489.312 336.449 489.298 334.968C489.298 334.321 487.196 332.324 487.157 333.554C487.56 333.951 487.915 334.395 488.214 334.876C487.778 335.973 482.662 328.173 482.398 327.882C481.208 326.56 470.87 318.628 470.407 319.66C470.076 320.426 478.339 332.324 479.436 333.831C480.534 335.338 488.637 345.439 488.162 338.141Z" stroke="#808080" stroke-miterlimit="10"/>
<path d="M513.253 349.008C513.253 347.527 510.305 348.321 510.16 348.083C510.014 347.845 513.253 350.33 513.253 349.008Z" stroke="#808080" stroke-miterlimit="10"/>
<path d="M509.909 334.863C509.671 335.299 513.055 340.243 511.654 340.825C512.976 340.283 511.799 334.797 513.095 335.431C515.554 336.634 512.831 340.032 516.122 337.467C514.377 338.789 516.215 328.425 517.55 331.359C517.722 331.756 510.107 333.752 512.011 330.645C514.086 327.248 518.713 331.135 520.538 327.367C519.441 329.641 514.906 326.865 513.399 327.883C511.046 329.469 511.218 332.536 509.909 334.863Z" stroke="#808080" stroke-miterlimit="10"/>
<path d="M525.627 336.118C527.066 336.658 528.554 337.061 530.069 337.321C531.92 337.321 524.728 333.144 525.627 336.118Z" stroke="#808080" stroke-miterlimit="10"/>
<path d="M525.879 327.525C525.879 323.85 522.825 331.425 525.627 330.87C527.478 330.5 525.879 327.459 525.879 327.525Z" stroke="#808080" stroke-miterlimit="10"/>
<path d="M520.26 348.03C521.119 346.893 524.001 346.708 524.384 345.637C524.596 345.002 519.956 347.051 519.519 347.104C518.845 347.21 516.875 348.651 518.197 349.352C518.631 349.35 519.055 349.224 519.42 348.99C519.786 348.756 520.077 348.423 520.26 348.03Z" stroke="#808080" stroke-miterlimit="10"/>
<path d="M522.19 336.224C522.402 337.097 523.843 337.546 524.239 336.832C524.636 336.118 521.952 335.206 522.19 336.224Z" stroke="#808080" stroke-miterlimit="10"/>
<path d="M325.45 248.933C324.987 249.792 326.032 254.71 327.949 252.29C329.522 250.294 326.653 246.659 325.45 248.933Z" stroke="#808080" stroke-miterlimit="10"/>
<path d="M336.317 254.802C336.674 254.723 332.483 254.432 332.853 255.542C333.931 256.535 335.175 257.332 336.528 257.896C336.847 256.882 337.226 255.889 337.665 254.921C337.49 254.747 337.259 254.639 337.012 254.618C336.766 254.596 336.52 254.661 336.317 254.802V254.802Z" stroke="#808080" stroke-miterlimit="10"/>
</svg>
