<svg width="392" height="455" viewBox="0 0 392 455" fill="none" xmlns="http://www.w3.org/2000/svg">
<path d="M238.143 56.8366C238.143 49.6353 236.725 42.5046 233.969 35.8515C231.213 29.1984 227.174 23.1533 222.082 18.0613C216.99 12.9692 210.945 8.92998 204.292 6.17419C197.639 3.41839 190.508 2 183.307 2H164.217C149.673 2 135.725 7.7774 125.442 18.0613C115.158 28.3451 109.38 42.293 109.38 56.8366" stroke="#263238" stroke-width="3" stroke-linecap="round" stroke-linejoin="round"/>
<path d="M238.143 97.4485V56.8367" stroke="#263238" stroke-width="6" stroke-linecap="round" stroke-linejoin="round"/>
<path d="M109.38 56.8367V97.4485" stroke="#263238" stroke-width="6" stroke-linecap="round" stroke-linejoin="round"/>
<path d="M149.5 165C149.5 165 152.187 182.294 151.499 188.442C150.812 194.589 149.45 200.736 132.37 193.902C115.29 187.067 84.5534 199.375 64.7366 223.276C55.7605 234.103 32.0274 278.5 32.0274 278.5C32.0274 278.5 19.9145 291.227 12.5 302.5C4.42876 314.771 1.00002 325.775 1.00002 328.5C-1 345.5 8.85699 362.885 22.5 365C48 368 74.2815 324.383 74.2815 324.383C74.2815 324.383 87.9377 401.575 87.9377 407.669C87.9377 413.763 81.8169 454.124 81.8169 454.124H275.146L267.624 404.258L281.293 294.268L319.5 343.5C319.5 343.5 326 338 340 330C366.5 320 379 329 379 329C379 329 304.521 210.268 293.548 201.397C282.576 192.527 251.879 191.826 240.946 194.563C230.013 197.299 211.571 201.397 206.786 198.661C202 195.924 202.013 172.62 206.786 161C206.786 161 184 182 149.5 165Z" stroke="#263238" stroke-linecap="round" stroke-linejoin="round"/>
<path d="M122.058 366.383C124.262 367.233 126.508 367.97 128.787 368.591" stroke="#263238" stroke-linecap="round" stroke-linejoin="round"/>
<path d="M86.8008 322.559C86.8008 322.559 89.8414 349.104 114.854 363.012" stroke="#263238" stroke-linecap="round" stroke-linejoin="round"/>
<path d="M164.6 244.812L177.899 264.245" stroke="#263238" stroke-linecap="round" stroke-linejoin="round"/>
<path d="M296.113 263.386L299.629 256.062" stroke="#263238" stroke-linecap="round" stroke-linejoin="round"/>
<path d="M290.415 254.013L281.293 294.321L292.504 270.935" stroke="#263238" stroke-linecap="round" stroke-linejoin="round"/>
<path d="M331.371 326.644C331.371 326.644 345.807 317.39 360.018 317.39" stroke="#263238" stroke-linecap="round" stroke-linejoin="round"/>
<path d="M301.996 354.366C311.15 349.417 319.899 343.749 328.158 337.418C340.023 328.311 354.923 324.092 369.801 325.626C383.431 327.093 390.807 344.041 391.164 361.002C391.521 377.964 382.32 388.262 365.742 390.84C349.164 393.418 329.625 389.743 317.476 386.795C311.046 385.161 304.52 383.93 297.937 383.106C297.937 383.106 282.099 358.781 301.996 354.366Z" stroke="#263238" stroke-linecap="round" stroke-linejoin="round"/>
<path d="M391.165 361.002C390.808 344.041 383.431 327.093 369.801 325.626C354.924 324.092 340.023 328.311 328.158 337.418L326.308 338.832C342.172 339.374 374.243 345.852 369.22 390.152C383.603 386.702 391.509 376.721 391.165 361.002Z" stroke="#263238" stroke-linecap="round" stroke-linejoin="round"/>
<path d="M149.5 164.5C149.5 164.5 152.186 182.294 151.499 188.442C150.983 193.055 150.084 197.696 142.47 196.797C153.363 214.604 184.998 256.406 214.519 199.441C211.082 199.652 208.305 199.441 206.825 198.621C202.052 195.885 202.052 173.12 206.825 161.5C187 175 166 174 149.5 164.5Z" stroke="#263238" stroke-linecap="round" stroke-linejoin="round"/>
<path d="M111.218 75.7014H107.45C102.821 75.7014 99.0684 79.4539 99.0684 84.0829V116.155C99.0684 120.784 102.821 124.536 107.45 124.536H111.218C115.847 124.536 119.599 120.784 119.599 116.155V84.0829C119.599 79.4539 115.847 75.7014 111.218 75.7014Z" stroke="#263238" stroke-linecap="round" stroke-linejoin="round"/>
<path d="M111.43 75.7412C111.126 75.7412 110.808 75.7412 110.491 75.7412H108.164C107.847 75.7412 107.543 75.7412 107.226 75.7412V124.497C107.543 124.497 107.847 124.497 108.164 124.497H110.491C110.808 124.497 111.126 124.497 111.43 124.497V75.7412Z" fill="white" stroke="#263238" stroke-linecap="round" stroke-linejoin="round"/>
<path d="M240.404 75.7014H236.636C232.007 75.7014 228.255 79.4539 228.255 84.0829V116.155C228.255 120.784 232.007 124.536 236.636 124.536H240.404C245.033 124.536 248.786 120.784 248.786 116.155V84.0829C248.786 79.4539 245.033 75.7014 240.404 75.7014Z" stroke="#263238" stroke-linecap="round" stroke-linejoin="round"/>
<path d="M240 76C239.711 76 239.409 76 239.107 76H236.893C236.591 76 236.289 76 236 76V124C236.289 124 236.591 124 236.893 124H239.107C239.409 124 239.711 124 240 124V76Z" fill="white" stroke="#263238" stroke-linecap="round" stroke-linejoin="round"/>
<path d="M77.0575 114.264C75.4574 114.409 73.9189 114.952 72.5821 115.843C71.2453 116.735 70.1524 117.946 69.4031 119.367C66.336 124.47 56.6458 143.348 57.6637 148.967C58.6817 154.585 101.039 194.378 101.039 196.929C101.039 199.48 67.3672 245.407 44.9064 265.818C22.4456 286.23 4.59861 309.18 1.53157 327.556C-1.53547 345.932 9.18594 361.227 20.4229 364.294C31.6599 367.361 45.422 360.725 61.2331 340.815C77.0442 320.906 120.432 234.17 127.069 204.649C127.069 204.649 128.589 191.429 122.468 183.722C116.347 176.015 101.039 158.208 101.039 158.208C101.039 158.208 104.106 123.003 101.554 120.451C99.0027 117.9 96.4512 123.518 96.4512 123.518C96.4512 123.518 94.0848 111.713 90.8327 112.281C87.2765 112.916 86.2453 117.384 86.2453 117.384C86.2453 117.384 83.6939 107.112 77.0575 114.264Z" stroke="#263238" stroke-linecap="round" stroke-linejoin="round"/>
<path d="M96.4515 123.452C96.4515 123.452 89.1276 152.761 89.8415 157.705" stroke="#263238" stroke-linecap="round" stroke-linejoin="round"/>
<path d="M86.2453 117.318C86.2453 117.318 78.4851 145.82 77.4936 149.786C77.1635 151.084 77.1035 152.435 77.3173 153.756C77.5311 155.077 78.014 156.34 78.7363 157.467" stroke="#263238" stroke-linecap="round" stroke-linejoin="round"/>
<path d="M77.0571 114.264C77.0571 114.264 66.0977 144.829 66.0977 148.054C66.0977 151.28 68.583 155.233 68.583 155.233" stroke="#263238" stroke-linecap="round" stroke-linejoin="round"/>
<path d="M67.3011 241.983C60.3254 250.361 52.8467 258.308 44.9064 265.779C22.4324 286.177 4.59861 309.14 1.53157 327.516C-1.53547 345.892 9.18594 361.187 20.4229 364.254C31.6599 367.321 45.422 360.685 61.2331 340.776C70.3417 329.327 88.5588 295.748 103.656 263.663C80.6533 257.556 71.1613 248.037 67.3011 241.983Z" stroke="#263238" stroke-linecap="round" stroke-linejoin="round"/>
<path d="M119.15 50.3984C119.15 50.3984 118.264 121.429 120.935 134.755C123.605 148.081 147.573 170.714 175.137 171.599C202.7 172.485 224.421 147.182 227.078 133.856C229.735 120.531 227.078 67.2671 226.642 45.9565C226.206 24.6459 195.562 5.55617 164.508 10.4344C133.454 15.3125 117.379 33.5165 119.15 50.3984Z" stroke="#263238" stroke-linecap="round" stroke-linejoin="round"/>
<path d="M186.638 79.2576C186.638 79.2576 188.41 91.6844 190.194 94.3416C191.979 96.9988 195.073 100.568 188.872 103.225C182.672 105.883 177.768 102.776 177.768 99.6693" stroke="#263238" stroke-linecap="round" stroke-linejoin="round"/>
<path d="M193.3 123.201C193.3 123.201 169.319 126.268 158.664 115.692C158.664 115.692 161.308 132.125 169.319 134.795C177.331 137.466 193.3 123.201 193.3 123.201Z" stroke="#263238" stroke-linecap="round" stroke-linejoin="round"/>
<path d="M149.942 86.292C149.942 86.292 157.292 90.468 170.942 86.7514" stroke="#263238" stroke-width="2" stroke-linecap="round" stroke-linejoin="round"/>
<path d="M196.942 86.292C196.942 86.292 204.636 90.468 218.942 86.7514" stroke="#263238" stroke-width="2" stroke-linecap="round" stroke-linejoin="round"/>
<path d="M149.345 67.2671C151.515 64.3729 154.329 62.0239 157.564 60.4062C160.8 58.7885 164.368 57.9465 167.985 57.947" stroke="#263238" stroke-width="2" stroke-linecap="round" stroke-linejoin="round"/>
<path d="M191.966 57.0481C191.966 57.0481 204.842 53.5051 213.726 63.6581" stroke="#263238" stroke-width="2" stroke-linecap="round" stroke-linejoin="round"/>
<path d="M118.942 68.292C118.942 68.292 176.066 46.2619 206.942 18.292" stroke="#737373" stroke-linecap="round" stroke-linejoin="round"/>
<path d="M118.942 52.292C118.942 52.292 167.77 41.5577 195.942 13.292" stroke="#737373" stroke-linecap="round" stroke-linejoin="round"/>
<path d="M210.942 21.292C210.942 21.292 211.478 34.3018 225.942 46.292" stroke="#737373" stroke-linecap="round" stroke-linejoin="round"/>
<path d="M210.893 158.292C213.606 178.825 210.889 199.712 203.016 218.861C189.875 250.481 199.946 284.301 215.282 291.322C230.617 298.343 245.497 295.722 252.942 286.056" stroke="#737373" stroke-linecap="round" stroke-linejoin="round"/>
<path d="M218.942 149.292C218.942 149.292 230.558 184.523 225.779 210.952C221 237.381 223.048 270.914 237.394 277.459C251.74 284.005 259.942 270.914 259.942 270.914" stroke="#737373" stroke-linecap="round" stroke-linejoin="round"/>
<path d="M236.942 170.292C236.942 170.292 247.266 218.709 247.266 243.797C247.266 268.885 259.735 264.933 262.942 252.606" stroke="#737373" stroke-linecap="round" stroke-linejoin="round"/>
<path d="M203.388 165.857C203.388 165.857 203.388 181.959 191.318 207.619C179.248 233.279 178.732 258.939 186.783 278.055C194.834 297.171 216.476 304.733 239.663 296.18C262.851 287.627 265.826 249.381 263.314 226.233C260.802 203.085 238.196 175.917 233.119 162.327C228.043 148.737 224.566 141.704 224.566 141.704C224.566 141.704 211.478 159.816 203.414 163.834L203.388 165.857Z" stroke="#263238" stroke-linecap="round" stroke-linejoin="round"/>
<path d="M265.483 307.286L179.649 303.824C175.863 303.671 172.67 306.616 172.517 310.403L167.736 428.916C167.583 432.702 170.529 435.896 174.315 436.048L260.149 439.511C263.935 439.664 267.128 436.718 267.281 432.932L272.062 314.418C272.215 310.632 269.269 307.439 265.483 307.286Z" stroke="#263238" stroke-linecap="round" stroke-linejoin="round"/>
<path d="M309.214 355.225C309.214 355.225 265.271 341.556 257.775 339.255C250.279 336.955 207.103 369.199 205.384 373.799C203.666 378.4 209.985 378.413 209.985 378.413C209.985 378.413 207.341 383.014 211.307 385.314C212.557 386.156 213.885 386.878 215.273 387.469C215.273 387.469 212.972 392.651 217.573 394.383C222.174 396.115 228.519 391.501 228.519 391.501L238.884 384.018C238.884 384.018 226.43 399.261 229.088 402.447C232.75 406.81 235.09 402.13 235.09 402.13L249.407 385.169L263.79 378.255C263.79 378.255 275.305 385.169 293.733 385.737C312.162 386.306 316.207 378.255 316.207 378.255" stroke="#263238" stroke-linecap="round" stroke-linejoin="round"/>
<path d="M215.365 387.469C215.365 387.469 231.506 376.39 235.525 372.385C239.544 368.379 252.566 360.011 256.585 360.011" stroke="#263238" stroke-linecap="round" stroke-linejoin="round"/>
<path d="M238.976 384.058C238.976 384.058 246.908 375.095 249.896 373.76C252.884 372.424 257.246 370.415 257.246 370.415" stroke="#263238" stroke-linecap="round" stroke-linejoin="round"/>
<path d="M209.985 378.413C209.985 378.413 232.459 362.549 240.153 357.882C244.754 355.075 249.557 352.613 254.523 350.519" stroke="#263238" stroke-linecap="round" stroke-linejoin="round"/>
</svg>
