<svg width="579" height="455" viewBox="0 0 579 455" fill="none" xmlns="http://www.w3.org/2000/svg">
<path d="M1 453.909H577.577" stroke="#263238" stroke-linecap="round" stroke-linejoin="round"/>
<path d="M59.4721 395.992C59.4721 395.992 27.0566 365.758 42.8413 352.208C58.626 338.657 66.9414 366.75 66.9414 366.75C66.9414 366.75 49.491 280.225 77.7553 277.092C106.02 273.959 85.2246 352.155 85.2246 352.155C85.2246 352.155 109.325 318.788 107.699 345.902C106.073 373.016 70.2728 395.992 70.2728 395.992" stroke="#263238" stroke-miterlimit="10"/>
<path d="M75.3889 390.48L53.4834 366.75" stroke="#263238" stroke-miterlimit="10"/>
<path d="M70.828 392.317L76.7506 322.952" stroke="#263238" stroke-miterlimit="10"/>
<path d="M69.9029 387.294L89.5346 361.277" stroke="#263238" stroke-miterlimit="10"/>
<path d="M98.2859 382.455H37.7119L43.7667 453.909H92.2312L98.2859 382.455Z" fill="#263238"/>
<path d="M385.143 56.8366C385.143 49.6353 383.725 42.5046 380.969 35.8515C378.213 29.1984 374.174 23.1533 369.082 18.0613C363.99 12.9692 357.945 8.92998 351.292 6.17419C344.639 3.41839 337.508 2 330.307 2H311.217C296.673 2 282.725 7.7774 272.442 18.0613C262.158 28.3451 256.38 42.293 256.38 56.8366" stroke="#263238" stroke-width="3" stroke-linecap="round" stroke-linejoin="round"/>
<path d="M385.143 97.4485V56.8367" stroke="#263238" stroke-width="6" stroke-linecap="round" stroke-linejoin="round"/>
<path d="M256.38 56.8367V97.4485" stroke="#263238" stroke-width="6" stroke-linecap="round" stroke-linejoin="round"/>
<path d="M295.763 158.379C295.763 158.379 299.187 182.294 298.499 188.442C297.812 194.589 296.45 200.736 279.37 193.902C262.29 187.067 231.553 199.375 211.737 223.276C191.92 247.178 154.362 327.12 154.362 336.678C154.362 346.236 161.871 359.152 175.514 361.267C189.157 363.382 221.281 324.383 221.281 324.383C221.281 324.383 234.938 401.575 234.938 407.669C234.938 413.763 228.817 454.124 228.817 454.124H422.146L414.624 404.258L428.293 294.268C428.293 294.268 484.994 371.459 497.289 374.91C509.583 378.36 528.713 372.173 533.498 357.83C538.284 343.486 530.762 328.455 521.19 317.522C511.619 306.589 451.521 210.268 440.548 201.397C429.576 192.527 398.879 191.826 387.946 194.563C377.013 197.299 358.571 201.397 353.786 198.661C349 195.924 349.013 169.973 353.786 158.353C353.825 158.379 312.156 169.312 295.763 158.379Z" fill="white" stroke="#263238" stroke-linecap="round" stroke-linejoin="round"/>
<path d="M269.058 366.383C271.262 367.233 273.508 367.97 275.787 368.591" stroke="#263238" stroke-linecap="round" stroke-linejoin="round"/>
<path d="M233.801 322.559C233.801 322.559 236.841 349.104 261.854 363.012" stroke="#263238" stroke-linecap="round" stroke-linejoin="round"/>
<path d="M311.6 244.812L324.899 264.245" stroke="#263238" stroke-linecap="round" stroke-linejoin="round"/>
<path d="M443.113 263.386L446.629 256.062" stroke="#263238" stroke-linecap="round" stroke-linejoin="round"/>
<path d="M437.415 254.013L428.293 294.321L439.504 270.935" stroke="#263238" stroke-linecap="round" stroke-linejoin="round"/>
<path d="M478.371 326.644C478.371 326.644 492.807 317.39 507.018 317.39" stroke="#263238" stroke-linecap="round" stroke-linejoin="round"/>
<path d="M448.996 354.366C458.15 349.417 466.899 343.749 475.158 337.418C487.023 328.311 501.923 324.092 516.801 325.626C530.431 327.093 537.807 344.041 538.164 361.002C538.521 377.964 529.32 388.262 512.742 390.84C496.164 393.418 476.625 389.743 464.476 386.795C458.046 385.161 451.52 383.93 444.937 383.106C444.937 383.106 429.099 358.781 448.996 354.366Z" fill="white" stroke="#263238" stroke-linecap="round" stroke-linejoin="round"/>
<path d="M538.165 361.002C537.808 344.041 530.431 327.093 516.801 325.626C501.924 324.092 487.023 328.311 475.158 337.418L473.308 338.832C489.172 339.374 521.243 345.852 516.22 390.152C530.603 386.702 538.509 376.721 538.165 361.002Z" fill="white" stroke="#263238" stroke-linecap="round" stroke-linejoin="round"/>
<path d="M295.762 158.379C295.762 158.379 299.186 182.294 298.499 188.442C297.983 193.055 297.084 197.696 289.47 196.797C300.363 214.604 331.998 256.406 361.519 199.441C358.082 199.652 355.305 199.441 353.825 198.621C349.052 195.884 349.052 169.934 353.825 158.313C353.825 158.379 312.155 169.312 295.762 158.379Z" fill="white" stroke="#263238" stroke-linecap="round" stroke-linejoin="round"/>
<path d="M258.218 75.7014H254.45C249.821 75.7014 246.068 79.4539 246.068 84.0829V116.155C246.068 120.784 249.821 124.536 254.45 124.536H258.218C262.847 124.536 266.599 120.784 266.599 116.155V84.0829C266.599 79.4539 262.847 75.7014 258.218 75.7014Z" fill="#263238" stroke="#263238" stroke-linecap="round" stroke-linejoin="round"/>
<path d="M258.43 75.7412C258.126 75.7412 257.808 75.7412 257.491 75.7412H255.164C254.847 75.7412 254.543 75.7412 254.226 75.7412V124.497C254.543 124.497 254.847 124.497 255.164 124.497H257.491C257.808 124.497 258.126 124.497 258.43 124.497V75.7412Z" fill="white" stroke="#263238" stroke-linecap="round" stroke-linejoin="round"/>
<path d="M387.404 75.7014H383.636C379.007 75.7014 375.255 79.4539 375.255 84.0829V116.155C375.255 120.784 379.007 124.536 383.636 124.536H387.404C392.033 124.536 395.786 120.784 395.786 116.155V84.0829C395.786 79.4539 392.033 75.7014 387.404 75.7014Z" fill="#263238" stroke="#263238" stroke-linecap="round" stroke-linejoin="round"/>
<path d="M387.628 75.7412C387.324 75.7412 387.007 75.7412 386.69 75.7412H384.363C384.046 75.7412 383.728 75.7412 383.424 75.7412V124.497C383.728 124.497 384.046 124.497 384.363 124.497H386.69C387.007 124.497 387.324 124.497 387.628 124.497V75.7412Z" fill="white" stroke="#263238" stroke-linecap="round" stroke-linejoin="round"/>
<path d="M224.057 114.264C222.457 114.409 220.919 114.952 219.582 115.843C218.245 116.735 217.152 117.946 216.403 119.367C213.336 124.47 203.646 143.348 204.664 148.967C205.682 154.585 248.039 194.378 248.039 196.929C248.039 199.48 214.367 245.407 191.906 265.818C169.446 286.23 151.599 309.18 148.532 327.556C145.465 345.932 156.186 361.227 167.423 364.294C178.66 367.361 192.422 360.725 208.233 340.815C224.044 320.906 267.432 234.17 274.069 204.649C274.069 204.649 275.589 191.429 269.468 183.722C263.347 176.015 248.039 158.208 248.039 158.208C248.039 158.208 251.106 123.003 248.554 120.451C246.003 117.9 243.451 123.518 243.451 123.518C243.451 123.518 241.085 111.713 237.833 112.281C234.277 112.916 233.245 117.384 233.245 117.384C233.245 117.384 230.694 107.112 224.057 114.264Z" fill="white" stroke="#263238" stroke-linecap="round" stroke-linejoin="round"/>
<path d="M243.451 123.452C243.451 123.452 236.128 152.761 236.841 157.705" stroke="#263238" stroke-linecap="round" stroke-linejoin="round"/>
<path d="M233.245 117.318C233.245 117.318 225.485 145.82 224.494 149.786C224.164 151.084 224.104 152.435 224.317 153.756C224.531 155.077 225.014 156.34 225.736 157.467" stroke="#263238" stroke-linecap="round" stroke-linejoin="round"/>
<path d="M224.057 114.264C224.057 114.264 213.098 144.829 213.098 148.054C213.098 151.28 215.583 155.233 215.583 155.233" stroke="#263238" stroke-linecap="round" stroke-linejoin="round"/>
<path d="M214.301 241.983C207.325 250.361 199.847 258.308 191.906 265.779C169.432 286.177 151.599 309.14 148.532 327.516C145.465 345.892 156.186 361.187 167.423 364.254C178.66 367.321 192.422 360.685 208.233 340.776C217.342 329.327 235.559 295.748 250.656 263.663C227.653 257.556 218.161 248.037 214.301 241.983Z" fill="white" stroke="#263238" stroke-linecap="round" stroke-linejoin="round"/>
<path d="M266.15 50.3984C266.15 50.3984 265.264 121.429 267.935 134.755C270.605 148.081 294.573 170.714 322.137 171.599C349.7 172.485 371.421 147.182 374.078 133.856C376.735 120.531 374.078 67.2671 373.642 45.9565C373.206 24.6459 342.562 5.55617 311.508 10.4344C280.454 15.3125 264.379 33.5165 266.15 50.3984Z" fill="white"/>
<path d="M266.15 50.3984C266.15 50.3984 265.264 121.429 267.935 134.755C270.605 148.081 294.573 170.714 322.137 171.599C349.7 172.485 371.421 147.182 374.078 133.856C376.735 120.531 374.078 67.2671 373.642 45.9565C373.206 24.6459 342.562 5.55617 311.508 10.4344C280.454 15.3125 264.379 33.5165 266.15 50.3984Z" stroke="#263238" stroke-linecap="round" stroke-linejoin="round"/>
<path d="M333.638 79.2576C333.638 79.2576 335.41 91.6844 337.194 94.3416C338.979 96.9988 342.073 100.568 335.872 103.225C329.672 105.883 324.768 102.776 324.768 99.6693" stroke="#263238" stroke-linecap="round" stroke-linejoin="round"/>
<path d="M340.3 123.201C340.3 123.201 316.319 126.268 305.664 115.692C305.664 115.692 308.308 132.125 316.319 134.795C324.331 137.466 340.3 123.201 340.3 123.201Z" fill="white" stroke="#263238" stroke-linecap="round" stroke-linejoin="round"/>
<path d="M296.942 86.292C296.942 86.292 304.292 90.468 317.942 86.7514" stroke="#263238" stroke-width="2" stroke-linecap="round" stroke-linejoin="round"/>
<path d="M343.942 86.292C343.942 86.292 351.636 90.468 365.942 86.7514" stroke="#263238" stroke-width="2" stroke-linecap="round" stroke-linejoin="round"/>
<path d="M296.345 67.2671C298.515 64.3729 301.329 62.0239 304.564 60.4062C307.8 58.7885 311.368 57.9465 314.985 57.947" stroke="#263238" stroke-width="2" stroke-linecap="round" stroke-linejoin="round"/>
<path d="M338.966 57.0481C338.966 57.0481 351.842 53.5051 360.726 63.6581" stroke="#263238" stroke-width="2" stroke-linecap="round" stroke-linejoin="round"/>
<path d="M345.629 31.745C345.629 31.745 357.13 68.6817 374.594 78.2265C374.21 65.5618 373.761 53.6638 373.602 45.9565C373.153 24.6459 342.522 5.55617 311.468 10.4344C280.414 15.3125 264.405 33.5165 266.177 50.3984C266.177 50.3984 266.031 61.9924 266.044 76.7062C281.036 70.2416 320.511 52.236 345.629 31.745Z" fill="#F1E4A2"/>
<path d="M265.942 68.292C265.942 68.292 323.066 46.2619 353.942 18.292" stroke="#737373" stroke-linecap="round" stroke-linejoin="round"/>
<path d="M265.942 52.292C265.942 52.292 314.77 41.5577 342.942 13.292" stroke="#737373" stroke-linecap="round" stroke-linejoin="round"/>
<path d="M357.942 21.292C357.942 21.292 358.478 34.3018 372.942 46.292" stroke="#737373" stroke-linecap="round" stroke-linejoin="round"/>
<path d="M350.388 165.857C350.388 165.857 350.388 181.959 338.318 207.619C326.248 233.279 325.732 258.939 333.783 278.055C341.834 297.171 363.476 304.733 386.663 296.18C409.851 287.627 412.826 249.381 410.314 226.233C407.802 203.085 385.196 175.917 380.119 162.327C375.043 148.737 371.566 141.704 371.566 141.704C371.566 141.704 358.478 159.816 350.414 163.834L350.388 165.857Z" fill="#F1E4A2"/>
<path d="M357.893 158.292C360.606 178.825 357.889 199.712 350.016 218.861C336.875 250.481 346.946 284.301 362.282 291.322C377.617 298.343 392.497 295.722 399.942 286.056" stroke="#737373" stroke-linecap="round" stroke-linejoin="round"/>
<path d="M365.942 149.292C365.942 149.292 377.558 184.523 372.779 210.952C368 237.381 370.048 270.914 384.394 277.459C398.74 284.005 406.942 270.914 406.942 270.914" stroke="#737373" stroke-linecap="round" stroke-linejoin="round"/>
<path d="M383.942 170.292C383.942 170.292 394.266 218.709 394.266 243.797C394.266 268.885 406.735 264.933 409.942 252.606" stroke="#737373" stroke-linecap="round" stroke-linejoin="round"/>
<path d="M350.388 165.857C350.388 165.857 350.388 181.959 338.318 207.619C326.248 233.279 325.732 258.939 333.783 278.055C341.834 297.171 363.476 304.733 386.663 296.18C409.851 287.627 412.826 249.381 410.314 226.233C407.802 203.085 385.196 175.917 380.119 162.327C375.043 148.737 371.566 141.704 371.566 141.704C371.566 141.704 358.478 159.816 350.414 163.834L350.388 165.857Z" stroke="#263238" stroke-linecap="round" stroke-linejoin="round"/>
<path d="M412.483 307.286L326.649 303.824C322.863 303.671 319.67 306.616 319.517 310.403L314.736 428.916C314.583 432.702 317.529 435.896 321.315 436.048L407.149 439.511C410.935 439.664 414.128 436.718 414.281 432.932L419.062 314.418C419.215 310.632 416.269 307.439 412.483 307.286Z" fill="#263238" stroke="#263238" stroke-linecap="round" stroke-linejoin="round"/>
<path d="M456.214 355.225C456.214 355.225 412.271 341.556 404.775 339.255C397.279 336.955 354.103 369.199 352.384 373.799C350.666 378.4 356.985 378.413 356.985 378.413C356.985 378.413 354.341 383.014 358.307 385.314C359.557 386.156 360.885 386.878 362.273 387.469C362.273 387.469 359.972 392.651 364.573 394.383C369.174 396.115 375.519 391.501 375.519 391.501L385.884 384.018C385.884 384.018 373.43 399.261 376.088 402.447C379.75 406.81 382.09 402.13 382.09 402.13L396.407 385.169L410.79 378.255C410.79 378.255 422.305 385.169 440.733 385.737C459.162 386.306 463.207 378.255 463.207 378.255" fill="white"/>
<path d="M456.214 355.225C456.214 355.225 412.271 341.556 404.775 339.255C397.279 336.955 354.103 369.199 352.384 373.799C350.666 378.4 356.985 378.413 356.985 378.413C356.985 378.413 354.341 383.014 358.307 385.314C359.557 386.156 360.885 386.878 362.273 387.469C362.273 387.469 359.972 392.651 364.573 394.383C369.174 396.115 375.519 391.501 375.519 391.501L385.884 384.018C385.884 384.018 373.43 399.261 376.088 402.447C379.75 406.81 382.09 402.13 382.09 402.13L396.407 385.169L410.79 378.255C410.79 378.255 422.305 385.169 440.733 385.737C459.162 386.306 463.207 378.255 463.207 378.255" stroke="#263238" stroke-linecap="round" stroke-linejoin="round"/>
<path d="M362.365 387.469C362.365 387.469 378.506 376.39 382.525 372.385C386.544 368.379 399.566 360.011 403.585 360.011" stroke="#263238" stroke-linecap="round" stroke-linejoin="round"/>
<path d="M385.976 384.058C385.976 384.058 393.908 375.095 396.896 373.76C399.884 372.424 404.246 370.415 404.246 370.415" stroke="#263238" stroke-linecap="round" stroke-linejoin="round"/>
<path d="M356.985 378.413C356.985 378.413 379.459 362.549 387.153 357.882C391.754 355.075 396.557 352.613 401.523 350.519" stroke="#263238" stroke-linecap="round" stroke-linejoin="round"/>
</svg>
