<svg width="371" height="247" viewBox="0 0 371 247" fill="none" xmlns="http://www.w3.org/2000/svg">
<path d="M285.398 151.48C285.398 151.48 279.632 148.106 279.205 155.748C278.778 163.39 277.708 213.102 277.708 213.102" stroke="#263238" stroke-width="2" stroke-linecap="round" stroke-linejoin="round"/>
<path d="M276.193 156.425C276.193 156.425 280.885 167.446 278.759 212.425" stroke="#263238" stroke-width="2" stroke-linecap="round" stroke-linejoin="round"/>
<path d="M280.833 153.016C280.833 153.016 278.623 154.498 277.37 152.804C276.118 151.11 278.22 147.978 276.366 146.644C274.513 145.31 271.308 147.345 271.308 147.345C271.308 147.345 273.772 148.106 273.692 149.524C273.612 150.942 272.425 151.5 272.284 150.858C272.144 150.215 270.947 147.118 268.944 148.417C268.367 148.777 267.866 149.255 267.47 149.824C267.074 150.393 266.792 151.04 266.64 151.727C266.64 151.727 271.299 151.203 271.58 153.051C271.862 154.899 269.671 152.73 267.747 152.611C265.824 152.493 264.069 152.789 264.195 154.014C264.238 155.098 264.177 156.184 264.012 157.255C265.064 156.332 266.397 155.837 267.766 155.862C269.882 155.99 269.802 157.408 267.879 157.29C265.955 157.171 264.303 159.098 264.303 159.098C264.303 159.098 266.058 162.254 268.287 163.815C270.515 165.376 271.318 164.803 271.571 163.613C271.824 162.422 271.233 159.325 272.58 159.409C273.926 159.493 270.351 164.759 272.068 165.07C273.786 165.381 275.17 164.853 275.62 163.662L276.089 162.472C276.089 162.472 275.489 159.389 275.752 158.184C276.014 156.978 276.329 158.218 276.634 159.666C276.939 161.113 277.131 164.576 277.717 164.408C278.304 164.24 280.185 161.716 280.626 160.728C281.068 159.74 278.149 156.712 278.182 156.104C278.215 155.496 280.467 156.652 280.819 157.285C281.074 157.765 281.304 158.26 281.509 158.767C281.509 158.767 282.916 157.838 282.879 154.992C282.841 152.147 280.833 153.016 280.833 153.016Z" fill="white"/>
<path opacity="0.3" d="M280.833 153.016C280.833 153.016 278.623 154.498 277.37 152.804C276.118 151.11 278.22 147.978 276.366 146.644C274.513 145.31 271.308 147.345 271.308 147.345C271.308 147.345 273.772 148.106 273.692 149.524C273.612 150.942 272.425 151.5 272.284 150.858C272.144 150.215 270.947 147.118 268.944 148.417C268.367 148.777 267.866 149.255 267.47 149.824C267.074 150.393 266.792 151.04 266.64 151.727C266.64 151.727 271.299 151.203 271.58 153.051C271.862 154.899 269.671 152.73 267.747 152.611C265.824 152.493 264.069 152.789 264.195 154.014C264.238 155.098 264.177 156.184 264.012 157.255C265.064 156.332 266.397 155.837 267.766 155.862C269.882 155.99 269.802 157.408 267.879 157.29C265.955 157.171 264.303 159.098 264.303 159.098C264.303 159.098 266.058 162.254 268.287 163.815C270.515 165.376 271.318 164.803 271.571 163.613C271.824 162.422 271.233 159.325 272.58 159.409C273.926 159.493 270.351 164.759 272.068 165.07C273.786 165.381 275.17 164.853 275.62 163.662L276.089 162.472C276.089 162.472 275.489 159.389 275.752 158.184C276.014 156.978 276.329 158.218 276.634 159.666C276.939 161.113 277.131 164.576 277.717 164.408C278.304 164.24 280.185 161.716 280.626 160.728C281.068 159.74 278.149 156.712 278.182 156.104C278.215 155.496 280.467 156.652 280.819 157.285C281.074 157.765 281.304 158.26 281.509 158.767C281.509 158.767 282.916 157.838 282.879 154.992C282.841 152.147 280.833 153.016 280.833 153.016Z" fill="#263238"/>
<path d="M269.647 159.69C271.088 157.818 273.204 155.284 274.982 154.074" stroke="#263238" stroke-linecap="round" stroke-linejoin="round"/>
<path d="M267.977 161.973C267.977 161.973 268.348 161.429 268.948 160.619" stroke="#263238" stroke-linecap="round" stroke-linejoin="round"/>
<path d="M275.92 154.538C275.92 154.538 278.06 157.719 278.454 160.995" stroke="#263238" stroke-linecap="round" stroke-linejoin="round"/>
<path d="M273.499 156.42C273.499 156.42 274.1 156.055 273.875 160.1" stroke="#263238" stroke-linecap="round" stroke-linejoin="round"/>
<path d="M275.062 152.646C275.062 152.646 276.282 151.5 275.639 149.228" stroke="#263238" stroke-linecap="round" stroke-linejoin="round"/>
<path d="M273.41 154.587L272.538 152.908" stroke="#263238" stroke-linecap="round" stroke-linejoin="round"/>
<path d="M271.576 156.302C271.576 156.302 268.808 154.098 267.076 153.99" stroke="#263238" stroke-linecap="round" stroke-linejoin="round"/>
<path d="M288.697 147.014C288.697 147.014 288.607 150.354 286.13 150.517C283.653 150.68 282.123 146.338 279.59 147.38C277.056 148.422 276.812 153.189 276.812 153.189C276.812 153.189 279.214 151.11 280.509 152.162C281.804 153.214 281.504 154.829 280.805 154.573C280.106 154.316 276.338 153.431 276.211 156.425C276.159 157.278 276.271 158.133 276.541 158.939C276.812 159.744 277.234 160.484 277.783 161.113C277.783 161.113 280.462 155.847 282.414 156.805C284.366 157.764 280.805 158.599 279.378 160.545C277.952 162.491 277.032 164.541 278.295 165.248C279.354 165.942 280.344 166.746 281.251 167.649C281.251 167.649 280.913 164.892 282.48 162.753C284.047 160.614 285.337 161.661 283.916 163.608C282.494 165.554 283.198 168.607 283.198 168.607C283.198 168.607 287.392 168.913 290.395 167.619C293.398 166.325 293.417 165.105 292.45 164.008C291.484 162.911 288.143 161.444 289.138 160.081C290.132 158.717 292.703 166.078 294.172 164.477C295.641 162.877 296.077 161.064 295.256 159.774L294.43 158.485C294.43 158.485 291.089 157.003 290.123 155.921C289.156 154.839 290.55 155.333 292.131 155.995C293.712 156.657 297.133 158.816 297.377 158.085C297.621 157.354 296.499 153.639 295.861 152.513C295.223 151.386 290.353 152.384 289.799 151.935C289.246 151.485 291.878 149.899 292.718 149.959C293.557 150.018 294.594 150.23 294.594 150.23C294.594 150.23 294.669 148.121 291.939 146.214C289.208 144.307 288.697 147.014 288.697 147.014Z" fill="white"/>
<path opacity="0.2" d="M288.697 147.014C288.697 147.014 288.607 150.354 286.13 150.517C283.653 150.68 282.123 146.338 279.59 147.38C277.056 148.422 276.812 153.189 276.812 153.189C276.812 153.189 279.214 151.11 280.509 152.162C281.804 153.214 281.504 154.829 280.805 154.573C280.106 154.316 276.338 153.431 276.211 156.425C276.159 157.278 276.271 158.133 276.541 158.939C276.812 159.744 277.234 160.484 277.783 161.113C277.783 161.113 280.462 155.847 282.414 156.805C284.366 157.764 280.805 158.599 279.378 160.545C277.952 162.491 277.032 164.541 278.295 165.248C279.354 165.942 280.344 166.746 281.251 167.649C281.251 167.649 280.913 164.892 282.48 162.753C284.047 160.614 285.337 161.661 283.916 163.608C282.494 165.554 283.198 168.607 283.198 168.607C283.198 168.607 287.392 168.913 290.395 167.619C293.398 166.325 293.417 165.105 292.45 164.008C291.484 162.911 288.143 161.444 289.138 160.081C290.132 158.717 292.703 166.078 294.172 164.477C295.641 162.877 296.077 161.064 295.256 159.774L294.43 158.485C294.43 158.485 291.089 157.003 290.123 155.921C289.156 154.839 290.55 155.333 292.131 155.995C293.712 156.657 297.133 158.816 297.377 158.085C297.621 157.354 296.499 153.639 295.861 152.513C295.223 151.386 290.353 152.384 289.799 151.935C289.246 151.485 291.878 149.899 292.718 149.959C293.557 150.018 294.594 150.23 294.594 150.23C294.594 150.23 294.669 148.121 291.939 146.214C289.208 144.307 288.697 147.014 288.697 147.014Z" fill="#263238"/>
<path d="M287.416 163.356C286.618 160.56 285.651 156.598 285.717 153.901" stroke="#263238" stroke-linecap="round" stroke-linejoin="round"/>
<path d="M288.448 166.666C288.448 166.666 288.185 165.91 287.824 164.724" stroke="#263238" stroke-linecap="round" stroke-linejoin="round"/>
<path d="M286.796 153.229C286.796 153.229 291.277 153.145 294.66 154.958" stroke="#263238" stroke-linecap="round" stroke-linejoin="round"/>
<path d="M286.937 157.062C286.937 157.062 286.993 156.183 290.691 159.182" stroke="#263238" stroke-linecap="round" stroke-linejoin="round"/>
<path d="M284.422 152.853C284.422 152.853 284.169 150.784 281.565 149.914" stroke="#263238" stroke-linecap="round" stroke-linejoin="round"/>
<path d="M285.131 155.911L282.94 155.684" stroke="#263238" stroke-linecap="round" stroke-linejoin="round"/>
<path d="M285.511 159.009C285.511 159.009 281.527 160.431 280.247 162.18" stroke="#263238" stroke-linecap="round" stroke-linejoin="round"/>
<path d="M262.117 169.244C262.117 169.244 274.719 178.018 274.504 211.975" stroke="#263238" stroke-width="2" stroke-linecap="round" stroke-linejoin="round"/>
<path d="M277.657 166.928C277.657 166.928 277.253 170.771 274.372 170.717C271.491 170.662 270.121 165.49 267.109 166.443C264.097 167.397 263.379 172.865 263.379 172.865C263.379 172.865 266.34 170.707 267.743 172.045C269.145 173.384 268.648 175.222 267.865 174.856C267.081 174.491 262.816 173.098 262.398 176.541C262.263 177.521 262.318 178.52 262.559 179.477C262.801 180.434 263.226 181.329 263.806 182.108C263.806 182.108 267.372 176.294 269.535 177.593C271.698 178.892 267.517 179.505 265.697 181.609C263.876 183.714 262.642 185.991 264.022 186.93C265.185 187.833 266.257 188.859 267.222 189.992C267.222 189.992 267.076 186.776 269.099 184.465C271.121 182.153 272.495 183.477 270.68 185.591C268.864 187.705 269.404 191.292 269.404 191.292C269.404 191.292 274.222 192.062 277.802 190.877C281.382 189.691 281.509 188.278 280.49 186.925C279.472 185.571 275.752 183.536 277.023 182.064C278.295 180.592 280.598 189.335 282.438 187.636C284.277 185.937 284.943 183.887 284.108 182.316L283.231 180.745C283.231 180.745 279.51 178.714 278.492 177.356C277.474 175.997 279.036 176.724 280.8 177.642C282.564 178.561 286.322 181.397 286.665 180.572C287.007 179.747 286.046 175.37 285.431 173.992C284.816 172.614 279.088 173.3 278.487 172.727C277.886 172.154 281.072 170.583 282.034 170.751C282.75 170.877 283.46 171.042 284.16 171.245C284.16 171.245 284.432 168.815 281.452 166.345C278.473 163.875 277.657 166.928 277.657 166.928Z" fill="white"/>
<path opacity="0.3" d="M277.657 166.928C277.657 166.928 277.253 170.771 274.372 170.717C271.491 170.662 270.121 165.49 267.109 166.443C264.097 167.397 263.379 172.865 263.379 172.865C263.379 172.865 266.34 170.707 267.743 172.045C269.145 173.384 268.648 175.222 267.865 174.856C267.081 174.491 262.816 173.098 262.398 176.541C262.263 177.521 262.318 178.52 262.559 179.477C262.801 180.434 263.226 181.329 263.806 182.108C263.806 182.108 267.372 176.294 269.535 177.593C271.698 178.892 267.517 179.505 265.697 181.609C263.876 183.714 262.642 185.991 264.022 186.93C265.185 187.833 266.257 188.859 267.222 189.992C267.222 189.992 267.076 186.776 269.099 184.465C271.121 182.153 272.495 183.477 270.68 185.591C268.864 187.705 269.404 191.292 269.404 191.292C269.404 191.292 274.222 192.062 277.802 190.877C281.382 189.691 281.509 188.278 280.49 186.925C279.472 185.571 275.752 183.536 277.023 182.064C278.295 180.592 280.598 189.335 282.438 187.636C284.277 185.937 284.943 183.887 284.108 182.316L283.231 180.745C283.231 180.745 279.51 178.714 278.492 177.356C277.474 175.997 279.036 176.724 280.8 177.642C282.564 178.561 286.322 181.397 286.665 180.572C287.007 179.747 286.046 175.37 285.431 173.992C284.816 172.614 279.088 173.3 278.487 172.727C277.886 172.154 281.072 170.583 282.034 170.751C282.75 170.877 283.46 171.042 284.16 171.245C284.16 171.245 284.432 168.815 281.452 166.345C278.473 163.875 277.657 166.928 277.657 166.928Z" fill="#263238"/>
<path d="M274.719 185.655C274.044 182.355 273.288 177.687 273.598 174.58" stroke="#263238" stroke-linecap="round" stroke-linejoin="round"/>
<path d="M275.611 189.577C275.611 189.577 275.376 188.678 275.062 187.275" stroke="#263238" stroke-linecap="round" stroke-linejoin="round"/>
<path d="M274.907 173.888C274.907 173.888 280.068 174.239 283.822 176.669" stroke="#263238" stroke-linecap="round" stroke-linejoin="round"/>
<path d="M274.724 178.334C274.724 178.334 274.87 177.346 278.867 181.15" stroke="#263238" stroke-linecap="round" stroke-linejoin="round"/>
<path d="M272.2 173.241C272.2 173.241 272.092 170.83 269.169 169.565" stroke="#263238" stroke-linecap="round" stroke-linejoin="round"/>
<path d="M272.744 176.837L270.239 176.358" stroke="#263238" stroke-linecap="round" stroke-linejoin="round"/>
<path d="M272.908 180.453C272.908 180.453 268.184 181.693 266.546 183.585" stroke="#263238" stroke-linecap="round" stroke-linejoin="round"/>
<path d="M267.029 196.009C267.029 196.009 275.146 202.53 276 212.203L274.316 179.816" stroke="#263238" stroke-width="2" stroke-linecap="round" stroke-linejoin="round"/>
<path d="M286.679 191.287C276 189.261 276 212.203 276 212.203" stroke="#263238" stroke-width="2" stroke-linecap="round" stroke-linejoin="round"/>
<path d="M277.281 211.975C277.281 211.975 271.088 164.522 289.011 164.522" stroke="#263238" stroke-width="2" stroke-linecap="round" stroke-linejoin="round"/>
<path d="M282.611 189.918C281.152 188.194 278.051 188.194 276.23 192.611C274.41 197.027 276.047 196.256 276.047 196.256C276.047 196.256 279.51 195.105 281.677 194.335C283.845 193.564 286.782 191.647 286.965 192.803C287.148 193.959 285.506 195.105 283.498 195.491C281.49 195.876 276.207 197.407 276.751 198.563C277.295 199.719 278.576 203.167 278.576 203.167C280.135 201.776 281.779 200.493 283.498 199.329C285.872 197.793 287.331 198.371 286.055 200.095C284.779 201.819 281.128 203.745 281.86 206.047C282.592 208.349 286.984 211.234 286.984 211.234C286.984 211.234 287.528 206.433 288.809 204.896C290.09 203.36 290.085 205.089 289.719 207.776C289.536 208.921 289.414 210.075 289.353 211.234L294.458 213.151C295.293 211.813 296.207 210.531 297.194 209.313L298.132 208.354C298.132 208.354 294.12 204.704 293.937 202.426C293.754 200.149 296.673 202.426 297.583 202.812C298.493 203.197 299.952 205.879 299.952 205.879C299.952 205.879 300.867 201.468 301.05 199.951L301.233 198.415C301.233 198.415 297.4 196.879 295.941 196.879C294.482 196.879 293.754 198.03 293.754 196.493C293.754 194.957 295.214 193.999 296.856 194.191C298.342 194.45 299.806 194.835 301.233 195.342C301.233 195.342 302.326 194.379 301.96 191.499C301.594 188.619 300.684 188.619 298.498 189.39C296.311 190.16 294.848 191.86 293.205 191.86C291.563 191.86 292.478 189.75 293.571 189.172C294.665 188.594 297.4 187.443 297.949 187.251C298.498 187.058 295.031 184.371 293.205 183.99C291.38 183.61 289.02 184.978 289.194 186.87C289.541 190.882 284.07 191.672 282.611 189.918Z" fill="white"/>
<path d="M294.35 209.688C294.407 210.266 294.444 210.849 294.463 211.427" stroke="#263238" stroke-linecap="round" stroke-linejoin="round"/>
<path d="M290.686 195.906C292.289 199.71 293.442 203.706 294.12 207.806" stroke="#263238" stroke-linecap="round" stroke-linejoin="round"/>
<path d="M290.029 194.364C289.128 192.319 288.448 191.074 288.448 191.074C289.434 190.574 290.252 189.769 290.794 188.767C291.221 187.859 291.847 187.07 292.619 186.465" stroke="#263238" stroke-linecap="round" stroke-linejoin="round"/>
<path d="M282.062 197.6C282.062 197.6 288.631 194.72 288.631 195.298" stroke="#263238" stroke-linecap="round" stroke-linejoin="round"/>
<path d="M292.276 193.954C292.276 193.954 295.195 192.418 297.747 192.418" stroke="#263238" stroke-linecap="round" stroke-linejoin="round"/>
<path d="M291.207 198.588C289.942 199.682 288.78 200.903 287.739 202.234C286.675 203.556 285.814 205.047 285.187 206.65" stroke="#263238" stroke-linecap="round" stroke-linejoin="round"/>
<path d="M293.187 199.329C293.187 199.329 297.02 198.178 299.023 200.095" stroke="#263238" stroke-linecap="round" stroke-linejoin="round"/>
<path d="M300.121 173.394C298.137 172.159 295.941 172.129 294.862 170.825C293.783 169.521 295.899 168.849 297.029 169.343C298.16 169.837 300.783 171.255 301.276 171.566C301.768 171.877 301.43 167.357 300.511 165.638C299.591 163.919 297.072 162.946 295.819 164.334C293.168 167.268 289.03 163.42 289.311 161.128C289.593 158.836 287.561 156.371 283.212 157.818C278.862 159.266 280.476 160.061 280.476 160.061C280.476 160.061 283.573 162.062 285.562 163.302C287.552 164.541 290.836 165.599 290.128 166.498C289.419 167.397 287.519 166.848 285.928 165.51C284.338 164.171 279.773 160.97 279.303 162.16C278.834 163.351 277.192 166.606 277.192 166.606C279.213 166.933 281.212 167.4 283.174 168.004C285.83 168.879 286.374 170.415 284.3 170.534C282.226 170.652 278.454 169.012 277.262 171.102C276.071 173.191 276.892 178.561 276.892 178.561C276.892 178.561 280.692 175.849 282.63 175.859C284.568 175.869 283.329 177 281.161 178.472C280.222 179.078 279.316 179.738 278.445 180.448L280.415 185.769C281.922 185.554 283.441 185.44 284.962 185.428L286.247 185.522C286.247 185.522 286.247 179.939 287.768 178.285C289.288 176.63 289.56 180.458 289.884 181.436C290.207 182.414 289.236 185.334 289.236 185.334C289.236 185.334 292.99 183.165 294.219 182.306L295.444 181.441C295.444 181.441 294.036 177.39 293.098 176.23C292.159 175.069 290.841 175.242 291.939 174.254C293.037 173.266 294.688 173.76 295.626 175.207C296.412 176.559 297.095 177.975 297.667 179.441C297.667 179.441 299.075 179.683 300.9 177.504C302.725 175.325 302.111 174.624 300.121 173.394ZM282.865 179.539C281.405 178.774 284.868 177.237 284.868 177.237C286.149 177.035 284.324 180.31 282.869 179.529L282.865 179.539ZM285.318 172.371C284.699 172.045 286.562 171.383 286.562 171.383C289.264 171.912 285.947 172.692 285.323 172.361L285.318 172.371Z" fill="white"/>
<path d="M282.827 183.442C282.449 183.867 282.059 184.277 281.659 184.672" stroke="#263238" stroke-linecap="round" stroke-linejoin="round"/>
<path d="M290.311 171.492C288.635 175.261 286.525 178.798 284.028 182.024" stroke="#263238" stroke-linecap="round" stroke-linejoin="round"/>
<path d="M290.986 169.961C291.864 167.901 292.309 166.542 292.309 166.542C293.317 167.011 294.438 167.142 295.519 166.918C296.45 166.662 297.426 166.641 298.367 166.858" stroke="#263238" stroke-linecap="round" stroke-linejoin="round"/>
<path d="M289.4 169.442C289.813 169.067 283.446 165.732 283.446 165.732" stroke="#263238" stroke-linecap="round" stroke-linejoin="round"/>
<path d="M292.755 171.477C292.755 171.477 295.772 172.791 297.447 174.822" stroke="#263238" stroke-linecap="round" stroke-linejoin="round"/>
<path d="M288.734 173.626C287.119 173.341 285.482 173.22 283.845 173.266C282.2 173.285 280.567 173.577 279.008 174.13" stroke="#263238" stroke-linecap="round" stroke-linejoin="round"/>
<path d="M289.499 175.726C289.499 175.726 292.835 178.018 292.783 180.868" stroke="#263238" stroke-linecap="round" stroke-linejoin="round"/>
<path d="M271.787 199.991C270.192 199.003 268.423 198.973 267.564 197.921C266.706 196.869 268.395 196.34 269.305 196.74C270.215 197.141 272.322 198.277 272.725 198.524C273.129 198.771 272.847 195.14 272.106 193.772C271.365 192.403 269.338 191.603 268.353 192.724C266.218 195.081 262.887 191.988 263.116 190.141C263.346 188.293 261.709 186.312 258.195 187.478C254.68 188.644 255.994 189.286 255.994 189.286C255.994 189.286 258.485 190.896 260.085 191.889C261.685 192.882 264.308 193.737 263.759 194.463C263.21 195.189 261.662 194.745 260.381 193.663C259.1 192.581 255.426 190.007 255.046 190.966C254.666 191.924 253.353 194.567 253.353 194.567C254.979 194.828 256.587 195.203 258.166 195.688C260.301 196.395 260.738 197.635 259.067 197.728C257.397 197.822 254.375 196.503 253.437 198.183C252.499 199.863 253.141 204.185 253.141 204.185C253.141 204.185 256.201 202.007 257.758 202.011C259.316 202.016 258.321 202.93 256.581 204.116C255.823 204.602 255.092 205.131 254.389 205.702L255.975 209.985C257.188 209.811 258.411 209.718 259.635 209.708L260.672 209.787C260.672 209.787 260.672 205.292 261.897 203.963C263.121 202.634 263.337 205.712 263.595 206.497C263.853 207.282 263.074 209.634 263.074 209.634C263.074 209.634 266.105 207.89 267.086 207.194L268.071 206.502C268.071 206.502 266.936 203.242 266.166 202.308C265.397 201.374 264.346 201.513 265.228 200.702C266.11 199.892 267.438 200.322 268.193 201.473C268.827 202.562 269.377 203.701 269.84 204.882C269.84 204.882 270.971 205.074 272.439 203.321C273.908 201.567 273.378 200.984 271.787 199.991ZM257.899 204.931C256.726 204.314 259.513 203.079 259.513 203.079C260.541 202.925 259.072 205.553 257.894 204.936L257.899 204.931ZM259.879 199.161C259.377 198.899 260.878 198.371 260.878 198.371C263.055 198.815 260.376 199.433 259.879 199.166V199.161Z" fill="white"/>
<path d="M257.894 208.083C257.589 208.423 257.275 208.754 256.956 209.071" stroke="#263238" stroke-linecap="round" stroke-linejoin="round"/>
<path d="M263.891 198.469C262.539 201.5 260.841 204.346 258.833 206.942" stroke="#263238" stroke-linecap="round" stroke-linejoin="round"/>
<path d="M264.435 197.234C265.139 195.579 265.5 194.483 265.5 194.483C266.31 194.859 267.211 194.965 268.08 194.784C268.829 194.579 269.614 194.562 270.37 194.735" stroke="#263238" stroke-linecap="round" stroke-linejoin="round"/>
<path d="M258.363 193.846C258.363 193.846 263.492 196.528 263.159 196.81" stroke="#263238" stroke-linecap="round" stroke-linejoin="round"/>
<path d="M265.87 198.455C265.87 198.455 268.296 199.512 269.624 201.142" stroke="#263238" stroke-linecap="round" stroke-linejoin="round"/>
<path d="M262.619 200.184C261.321 199.952 260.004 199.854 258.687 199.892C257.363 199.909 256.048 200.144 254.793 200.589" stroke="#263238" stroke-linecap="round" stroke-linejoin="round"/>
<path d="M263.234 201.873C263.234 201.873 265.922 203.716 265.871 206.013" stroke="#263238" stroke-linecap="round" stroke-linejoin="round"/>
<path d="M265.275 168.286C265.275 168.286 263.266 169.822 261.99 168.286C260.714 166.75 262.539 163.677 260.709 162.526C258.88 161.375 255.971 163.484 255.971 163.484C255.971 163.484 258.34 164.062 258.34 165.406C258.34 166.75 257.247 167.323 257.064 166.75C256.881 166.177 255.605 163.292 253.779 164.635C253.253 165.009 252.804 165.491 252.46 166.052C252.115 166.613 251.883 167.242 251.776 167.901C251.776 167.901 256.149 167.13 256.515 168.859C256.881 170.588 254.69 168.666 252.869 168.666C251.049 168.666 249.402 169.052 249.585 170.203C249.684 171.224 249.684 172.254 249.585 173.275C250.53 172.344 251.759 171.799 253.052 171.739C255.056 171.739 255.056 173.083 253.235 173.083C251.415 173.083 249.951 175.004 249.951 175.004C249.951 175.004 251.776 177.884 253.962 179.228C256.149 180.572 256.881 179.999 257.064 178.843C257.247 177.687 256.515 174.812 257.791 174.812C259.067 174.812 255.971 179.999 257.608 180.187C259.245 180.374 260.526 179.806 260.892 178.65L261.258 177.499C261.258 177.499 260.526 174.619 260.709 173.468C260.892 172.317 261.258 173.468 261.62 174.812C261.981 176.155 262.352 179.421 262.896 179.228C263.44 179.035 265.087 176.541 265.453 175.582C265.819 174.624 262.896 171.932 262.896 171.359C262.896 170.786 265.087 171.739 265.453 172.317C265.717 172.752 265.96 173.2 266.18 173.661C266.18 173.661 267.456 172.702 267.273 170.01C267.09 167.318 265.275 168.286 265.275 168.286Z" fill="white"/>
<path d="M255.079 175.246C256.341 173.394 258.209 170.875 259.827 169.63" stroke="#263238" stroke-linecap="round" stroke-linejoin="round"/>
<path d="M253.601 177.499C253.601 177.499 253.925 176.966 254.446 176.165" stroke="#263238" stroke-linecap="round" stroke-linejoin="round"/>
<path d="M260.709 170.01C260.709 170.01 262.896 172.89 263.445 175.963" stroke="#263238" stroke-linecap="round" stroke-linejoin="round"/>
<path d="M258.528 171.912C258.528 171.912 259.072 171.527 259.072 175.37" stroke="#263238" stroke-linecap="round" stroke-linejoin="round"/>
<path d="M259.804 168.286C259.804 168.286 260.897 167.13 260.165 165.021" stroke="#263238" stroke-linecap="round" stroke-linejoin="round"/>
<path d="M258.345 170.203L257.43 168.666" stroke="#263238" stroke-linecap="round" stroke-linejoin="round"/>
<path d="M256.703 171.912C256.703 171.912 253.967 169.99 252.325 169.99" stroke="#263238" stroke-linecap="round" stroke-linejoin="round"/>
<path d="M283.69 211.299H269.591V232.664H283.69V211.299Z" fill="#263238" stroke="#263238" stroke-width="2" stroke-linecap="round" stroke-linejoin="round"/>
<path d="M156.7 47.1177C156.7 47.1177 156.869 40.8044 156.657 35.3753C156.446 29.9463 156.874 18.3076 156.874 18.3076" stroke="#263238" stroke-miterlimit="10"/>
<path d="M156.774 25.1544L154.433 23.213" stroke="#263238" stroke-miterlimit="10"/>
<path d="M156.746 26.4882L157.581 25.0704" stroke="#263238" stroke-miterlimit="10"/>
<path d="M156.559 32.1051L158.637 30.2921" stroke="#263238" stroke-miterlimit="10"/>
<path d="M156.873 20.6937L155.775 19.6415" stroke="#263238" stroke-miterlimit="10"/>
<path d="M156.54 33.0881L155.165 31.537" stroke="#263238" stroke-miterlimit="10"/>
<path d="M156.657 39.184L153.8 36.4374" stroke="#263238" stroke-miterlimit="10"/>
<path d="M156.732 42.568C157.46 42.2707 158.169 41.9225 158.853 41.5256" stroke="#263238" stroke-miterlimit="10"/>
<path d="M155.142 26.1277C153.992 25.194 150.136 25.3571 149.394 27.2985C148.653 29.2399 151.013 32.4064 153.265 32.1841C154.152 32.0952 154.537 32.031 154.884 31.5074L151.717 28.247L155.146 31.1517C155.243 30.9626 155.321 30.7641 155.381 30.5589C155.419 30.4156 155.456 30.2575 155.484 30.0945C155.724 28.9336 156.226 27.0021 155.142 26.1277Z" fill="white"/>
<path d="M162.607 23.875V23.9442C162.297 25.3916 160.73 26.2116 159.402 26.0881C159.218 26.0717 159.036 26.0369 158.858 25.9844C158.547 26.5016 158.355 27.0876 158.297 27.6962C158.238 28.3049 158.315 28.9195 158.52 29.4918C158.575 29.6554 158.649 29.8113 158.74 29.9561C159.13 29.6202 163.296 25.8757 163.296 25.8757L158.97 30.2624C160.275 31.7444 163.334 31.532 164.399 28.8101C165.464 26.0881 164.108 24.2653 162.607 23.875Z" fill="white"/>
<path d="M160.486 18.8115C158.243 18.3175 156.235 19.3648 156.263 21.8299C156.275 22.3733 156.393 22.9083 156.61 23.4019C156.826 23.8955 157.136 24.3373 157.52 24.7L159.834 21.3803L157.891 25.0013C158.326 25.3139 158.83 25.5043 159.355 25.5546C160.678 25.6732 162.25 24.8531 162.56 23.4057C162.883 21.7903 162.728 19.3302 160.486 18.8115Z" fill="white"/>
<path d="M157.868 10.2406C157.868 10.2406 157.638 10.3147 156.202 11.0508C155.362 11.5387 154.739 12.3573 154.47 13.3274C154.201 14.2975 154.307 15.3403 154.766 16.2279C155.164 17.0571 155.852 17.6912 156.685 17.9964L157.262 12.1227L157.018 18.0754C157.128 18.0873 157.238 18.0873 157.347 18.0754C158.285 17.9766 159.754 16.8009 159.895 14.3951C160.035 11.9894 157.868 10.2406 157.868 10.2406Z" fill="white"/>
<path d="M151.313 15.5808L155.644 19.2265C155.687 19.0659 155.701 18.8985 155.686 18.7325C155.484 16.6478 153.509 15.4375 152.205 15.0028C150.9 14.5681 149.995 15.3437 150.835 17.3394C151.674 19.3352 153.875 20.3034 154.856 20.0021C155.089 19.9416 155.298 19.8071 155.456 19.6168L151.313 15.5808Z" fill="white"/>
<path d="M154.292 20.2539C153.629 20.2035 152.984 19.995 152.408 19.6442C151.832 19.2933 151.339 18.8093 150.966 18.2285C150.506 18.1826 150.047 18.3279 149.688 18.6335C149.328 18.9391 149.097 19.3806 149.042 19.8637C148.601 22.0373 150.093 24.3097 152.247 24.033C152.923 23.9959 153.565 23.707 154.058 23.2179L150.211 19.5179L154.33 22.8227C154.411 22.6702 154.462 22.5023 154.48 22.3287C154.613 21.6328 154.548 20.911 154.292 20.2539Z" fill="white"/>
<path d="M154.269 32.3422C153.919 32.4999 153.546 32.5935 153.166 32.6188C151.759 32.7571 150.323 31.5962 149.61 30.2328C149.191 30.2626 148.794 30.4394 148.482 30.7349C148.17 31.0305 147.961 31.4276 147.888 31.863C147.461 34.4071 149.699 37.7613 151.961 37.2278C152.549 37.1073 153.093 36.8165 153.532 36.388L148.597 31.3887L153.819 36.062C154.117 35.6588 154.31 35.1801 154.377 34.6738C154.624 33.9105 154.586 33.0766 154.269 32.3422Z" fill="white"/>
<path d="M164.202 37.544C162.541 35.5186 160.566 37.3315 160.566 37.3315C160.566 37.3315 159.355 37.7514 158.895 39.5595C158.754 40.108 158.776 40.6887 158.956 41.2243L163.948 38.1615L159.078 41.5108C159.547 42.4197 160.523 42.9928 161.893 42.5729C164.08 41.9406 165.858 39.5842 164.202 37.544Z" fill="white"/>
<path d="M160.064 45.2108H153.152V55.985H160.064V45.2108Z" fill="#263238"/>
<path d="M236.344 55.896H145.19V233.356H236.344V55.896Z" fill="white" stroke="#263238" stroke-miterlimit="10"/>
<path d="M223.489 58.1438H147.086V230.654H223.489V58.1438Z" fill="#263238" stroke="#263238" stroke-linecap="round" stroke-linejoin="round"/>
<path d="M223.489 84.8988H147.086V87.4429H223.489V84.8988Z" fill="white" stroke="#263238" stroke-miterlimit="10"/>
<path d="M223.489 114.312H147.086V116.856H223.489V114.312Z" fill="white" stroke="#263238" stroke-miterlimit="10"/>
<path d="M198.866 58.1733H197.242V84.8938H198.866V58.1733Z" fill="white" stroke="#263238" stroke-miterlimit="10"/>
<path d="M172.891 58.1733H171.268V84.8938H172.891V58.1733Z" fill="white" stroke="#263238" stroke-miterlimit="10"/>
<path d="M198.866 116.885H197.242V143.606H198.866V116.885Z" fill="white" stroke="#263238" stroke-miterlimit="10"/>
<path d="M172.891 116.885H171.268V143.606H172.891V116.885Z" fill="white" stroke="#263238" stroke-miterlimit="10"/>
<path d="M185.752 87.5862H184.128V114.307H185.752V87.5862Z" fill="white" stroke="#263238" stroke-miterlimit="10"/>
<path d="M223.489 143.611H147.086V146.155H223.489V143.611Z" fill="white" stroke="#263238" stroke-miterlimit="10"/>
<path d="M223.489 172.925H147.086V231.553H223.489V172.925Z" fill="white" stroke="#263238" stroke-miterlimit="10"/>
<path d="M185.752 146.199H184.128V172.92H185.752V146.199Z" fill="white" stroke="#263238" stroke-miterlimit="10"/>
<path d="M225.361 55.8812V233.316L236.349 233.356V55.8812H225.361Z" fill="#263238" stroke="#263238" stroke-linecap="round" stroke-linejoin="round"/>
<path d="M203.914 60.2482H199.992V84.8345H203.914V60.2482Z" fill="white" stroke="#263238" stroke-miterlimit="10"/>
<path d="M203.914 79.5537H199.992V81.5692H203.914V79.5537Z" fill="white" stroke="#263238" stroke-miterlimit="10"/>
<path d="M203.914 62.7429H199.992V64.7584H203.914V62.7429Z" fill="white" stroke="#263238" stroke-miterlimit="10"/>
<path d="M207.926 60.2482H204.003V84.8345H207.926V60.2482Z" fill="white" stroke="#263238" stroke-miterlimit="10"/>
<path d="M207.926 79.5537H204.003V81.5692H207.926V79.5537Z" fill="white" stroke="#263238" stroke-miterlimit="10"/>
<path d="M207.926 62.7429H204.003V64.7584H207.926V62.7429Z" fill="white" stroke="#263238" stroke-miterlimit="10"/>
<path d="M211.942 60.2482H208.019V84.8345H211.942V60.2482Z" fill="white" stroke="#263238" stroke-miterlimit="10"/>
<path d="M211.942 79.5537H208.019V81.5692H211.942V79.5537Z" fill="white" stroke="#263238" stroke-miterlimit="10"/>
<path d="M211.942 62.7429H208.019V64.7584H211.942V62.7429Z" fill="white" stroke="#263238" stroke-miterlimit="10"/>
<path d="M215.953 60.2482H212.031V84.8345H215.953V60.2482Z" fill="white" stroke="#263238" stroke-miterlimit="10"/>
<path d="M222.489 60.2482H215.921V84.8345H222.489V60.2482Z" fill="white" stroke="#263238" stroke-miterlimit="10"/>
<path d="M215.953 79.5537H212.031V81.5692H215.953V79.5537Z" fill="white" stroke="#263238" stroke-miterlimit="10"/>
<path d="M215.953 62.7429H212.031V64.7584H215.953V62.7429Z" fill="white" stroke="#263238" stroke-miterlimit="10"/>
<path d="M177.672 60.2482H173.75V84.8345H177.672V60.2482Z" fill="white" stroke="#263238" stroke-miterlimit="10"/>
<path d="M177.672 79.5537H173.75V81.5692H177.672V79.5537Z" fill="white" stroke="#263238" stroke-miterlimit="10"/>
<path d="M177.672 62.7429H173.75V64.7584H177.672V62.7429Z" fill="white" stroke="#263238" stroke-miterlimit="10"/>
<path d="M181.684 60.2482H177.761V84.8345H181.684V60.2482Z" fill="white" stroke="#263238" stroke-miterlimit="10"/>
<path d="M181.684 79.5537H177.761V81.5692H181.684V79.5537Z" fill="white" stroke="#263238" stroke-miterlimit="10"/>
<path d="M181.684 62.7429H177.761V64.7584H181.684V62.7429Z" fill="white" stroke="#263238" stroke-miterlimit="10"/>
<path d="M185.7 60.2482H181.778V84.8345H185.7V60.2482Z" fill="white" stroke="#263238" stroke-miterlimit="10"/>
<path d="M185.7 79.5537H181.778V81.5692H185.7V79.5537Z" fill="white" stroke="#263238" stroke-miterlimit="10"/>
<path d="M185.7 62.7429H181.778V64.7584H185.7V62.7429Z" fill="white" stroke="#263238" stroke-miterlimit="10"/>
<path d="M189.712 60.2482H185.789V84.8345H189.712V60.2482Z" fill="white" stroke="#263238" stroke-miterlimit="10"/>
<path d="M196.247 60.2482H189.679V84.8345H196.247V60.2482Z" fill="white" stroke="#263238" stroke-miterlimit="10"/>
<path d="M189.712 79.5537H185.789V81.5692H189.712V79.5537Z" fill="white" stroke="#263238" stroke-miterlimit="10"/>
<path d="M189.712 62.7429H185.789V64.7584H189.712V62.7429Z" fill="white" stroke="#263238" stroke-miterlimit="10"/>
<path d="M177.672 119.049H173.75V143.635H177.672V119.049Z" fill="white" stroke="#263238" stroke-miterlimit="10"/>
<path d="M177.672 138.354H173.75V140.37H177.672V138.354Z" fill="white" stroke="#263238" stroke-miterlimit="10"/>
<path d="M177.672 121.549H173.75V123.564H177.672V121.549Z" fill="white" stroke="#263238" stroke-miterlimit="10"/>
<path d="M181.684 119.049H177.761V143.635H181.684V119.049Z" fill="white" stroke="#263238" stroke-miterlimit="10"/>
<path d="M181.684 138.354H177.761V140.37H181.684V138.354Z" fill="white" stroke="#263238" stroke-miterlimit="10"/>
<path d="M181.684 121.549H177.761V123.564H181.684V121.549Z" fill="white" stroke="#263238" stroke-miterlimit="10"/>
<path d="M185.7 119.049H181.778V143.635H185.7V119.049Z" fill="white" stroke="#263238" stroke-miterlimit="10"/>
<path d="M185.7 138.354H181.778V140.37H185.7V138.354Z" fill="white" stroke="#263238" stroke-miterlimit="10"/>
<path d="M185.7 121.549H181.778V123.564H185.7V121.549Z" fill="white" stroke="#263238" stroke-miterlimit="10"/>
<path d="M189.712 119.049H185.789V143.635H189.712V119.049Z" fill="white" stroke="#263238" stroke-miterlimit="10"/>
<path d="M196.247 119.049H189.679V143.635H196.247V119.049Z" fill="white" stroke="#263238" stroke-miterlimit="10"/>
<path d="M189.712 138.354H185.789V140.37H189.712V138.354Z" fill="white" stroke="#263238" stroke-miterlimit="10"/>
<path d="M189.712 121.549H185.789V123.564H189.712V121.549Z" fill="white" stroke="#263238" stroke-miterlimit="10"/>
<path d="M203.576 119.049H199.654V143.635H203.576V119.049Z" fill="white" stroke="#263238" stroke-miterlimit="10"/>
<path d="M203.576 138.354H199.654V140.37H203.576V138.354Z" fill="white" stroke="#263238" stroke-miterlimit="10"/>
<path d="M203.576 121.549H199.654V123.564H203.576V121.549Z" fill="white" stroke="#263238" stroke-miterlimit="10"/>
<path d="M207.592 119.049H203.67V143.635H207.592V119.049Z" fill="white" stroke="#263238" stroke-miterlimit="10"/>
<path d="M207.592 138.354H203.67V140.37H207.592V138.354Z" fill="white" stroke="#263238" stroke-miterlimit="10"/>
<path d="M207.592 121.549H203.67V123.564H207.592V121.549Z" fill="white" stroke="#263238" stroke-miterlimit="10"/>
<path d="M211.604 119.049H207.682V143.635H211.604V119.049Z" fill="white" stroke="#263238" stroke-miterlimit="10"/>
<path d="M211.604 138.354H207.682V140.37H211.604V138.354Z" fill="white" stroke="#263238" stroke-miterlimit="10"/>
<path d="M211.604 121.549H207.682V123.564H211.604V121.549Z" fill="white" stroke="#263238" stroke-miterlimit="10"/>
<path d="M215.62 119.049H211.698V143.635H215.62V119.049Z" fill="white" stroke="#263238" stroke-miterlimit="10"/>
<path d="M222.151 119.049H215.583V143.635H222.151V119.049Z" fill="white" stroke="#263238" stroke-miterlimit="10"/>
<path d="M215.62 138.354H211.698V140.37H215.62V138.354Z" fill="white" stroke="#263238" stroke-miterlimit="10"/>
<path d="M215.62 121.549H211.698V123.564H215.62V121.549Z" fill="white" stroke="#263238" stroke-miterlimit="10"/>
<path d="M151.933 119.049H148.01V143.635H151.933V119.049Z" fill="white" stroke="#263238" stroke-miterlimit="10"/>
<path d="M151.933 138.354H148.01V140.37H151.933V138.354Z" fill="white" stroke="#263238" stroke-miterlimit="10"/>
<path d="M151.933 121.549H148.01V123.564H151.933V121.549Z" fill="white" stroke="#263238" stroke-miterlimit="10"/>
<path d="M155.949 119.049H152.026V143.635H155.949V119.049Z" fill="white" stroke="#263238" stroke-miterlimit="10"/>
<path d="M155.949 138.354H152.026V140.37H155.949V138.354Z" fill="white" stroke="#263238" stroke-miterlimit="10"/>
<path d="M155.949 121.549H152.026V123.564H155.949V121.549Z" fill="white" stroke="#263238" stroke-miterlimit="10"/>
<path d="M159.96 119.049H156.038V143.635H159.96V119.049Z" fill="white" stroke="#263238" stroke-miterlimit="10"/>
<path d="M159.96 138.354H156.038V140.37H159.96V138.354Z" fill="white" stroke="#263238" stroke-miterlimit="10"/>
<path d="M159.96 121.549H156.038V123.564H159.96V121.549Z" fill="white" stroke="#263238" stroke-miterlimit="10"/>
<path d="M163.977 119.049H160.054V143.635H163.977V119.049Z" fill="white" stroke="#263238" stroke-miterlimit="10"/>
<path d="M170.508 119.049H163.939V143.635H170.508V119.049Z" fill="white" stroke="#263238" stroke-miterlimit="10"/>
<path d="M163.977 138.354H160.054V140.37H163.977V138.354Z" fill="white" stroke="#263238" stroke-miterlimit="10"/>
<path d="M163.977 121.549H160.054V123.564H163.977V121.549Z" fill="white" stroke="#263238" stroke-miterlimit="10"/>
<path d="M151.43 60.2482H147.508V84.8345H151.43V60.2482Z" fill="white" stroke="#263238" stroke-miterlimit="10"/>
<path d="M151.43 79.5537H147.508V81.5692H151.43V79.5537Z" fill="white" stroke="#263238" stroke-miterlimit="10"/>
<path d="M151.43 62.7429H147.508V64.7584H151.43V62.7429Z" fill="white" stroke="#263238" stroke-miterlimit="10"/>
<path d="M155.442 60.2482H151.52V84.8345H155.442V60.2482Z" fill="white" stroke="#263238" stroke-miterlimit="10"/>
<path d="M155.442 79.5537H151.52V81.5692H155.442V79.5537Z" fill="white" stroke="#263238" stroke-miterlimit="10"/>
<path d="M155.442 62.7429H151.52V64.7584H155.442V62.7429Z" fill="white" stroke="#263238" stroke-miterlimit="10"/>
<path d="M159.458 60.2482H155.536V84.8345H159.458V60.2482Z" fill="white" stroke="#263238" stroke-miterlimit="10"/>
<path d="M159.458 79.5537H155.536V81.5692H159.458V79.5537Z" fill="white" stroke="#263238" stroke-miterlimit="10"/>
<path d="M159.458 62.7429H155.536V64.7584H159.458V62.7429Z" fill="white" stroke="#263238" stroke-miterlimit="10"/>
<path d="M163.47 60.2482H159.547V84.8345H163.47V60.2482Z" fill="white" stroke="#263238" stroke-miterlimit="10"/>
<path d="M170.006 60.2482H163.437V84.8345H170.006V60.2482Z" fill="white" stroke="#263238" stroke-miterlimit="10"/>
<path d="M163.47 79.5537H159.547V81.5692H163.47V79.5537Z" fill="white" stroke="#263238" stroke-miterlimit="10"/>
<path d="M163.47 62.7429H159.547V64.7584H163.47V62.7429Z" fill="white" stroke="#263238" stroke-miterlimit="10"/>
<path d="M163.038 89.5474H159.116V114.134H163.038V89.5474Z" fill="white" stroke="#263238" stroke-miterlimit="10"/>
<path d="M163.038 108.853H159.116V110.868H163.038V108.853Z" fill="white" stroke="#263238" stroke-miterlimit="10"/>
<path d="M163.038 92.047H159.116V94.0625H163.038V92.047Z" fill="white" stroke="#263238" stroke-miterlimit="10"/>
<path d="M159.167 89.5474H155.245V114.134H159.167V89.5474Z" fill="white" stroke="#263238" stroke-miterlimit="10"/>
<path d="M159.167 108.853H155.245V110.868H159.167V108.853Z" fill="white" stroke="#263238" stroke-miterlimit="10"/>
<path d="M159.167 92.047H155.245V94.0625H159.167V92.047Z" fill="white" stroke="#263238" stroke-miterlimit="10"/>
<path d="M155.297 89.5474H151.374V114.134H155.297V89.5474Z" fill="white" stroke="#263238" stroke-miterlimit="10"/>
<path d="M155.297 108.853H151.374V110.868H155.297V108.853Z" fill="white" stroke="#263238" stroke-miterlimit="10"/>
<path d="M155.297 92.047H151.374V94.0625H155.297V92.047Z" fill="white" stroke="#263238" stroke-miterlimit="10"/>
<path d="M151.43 89.5474H147.508V114.134H151.43V89.5474Z" fill="white" stroke="#263238" stroke-miterlimit="10"/>
<path d="M151.43 108.853H147.508V110.868H151.43V108.853Z" fill="white" stroke="#263238" stroke-miterlimit="10"/>
<path d="M151.43 92.047H147.508V94.0625H151.43V92.047Z" fill="white" stroke="#263238" stroke-miterlimit="10"/>
<path d="M167.05 89.5474H163.127V114.134H167.05V89.5474Z" fill="white" stroke="#263238" stroke-miterlimit="10"/>
<path d="M167.05 108.853H163.127V110.868H167.05V108.853Z" fill="white" stroke="#263238" stroke-miterlimit="10"/>
<path d="M167.05 92.047H163.127V94.0625H167.05V92.047Z" fill="white" stroke="#263238" stroke-miterlimit="10"/>
<path d="M171.061 89.5474H167.139V114.134H171.061V89.5474Z" fill="white" stroke="#263238" stroke-miterlimit="10"/>
<path d="M171.061 108.853H167.139V110.868H171.061V108.853Z" fill="white" stroke="#263238" stroke-miterlimit="10"/>
<path d="M171.061 92.047H167.139V94.0625H171.061V92.047Z" fill="white" stroke="#263238" stroke-miterlimit="10"/>
<path d="M175.078 89.5474H171.155V114.134H175.078V89.5474Z" fill="white" stroke="#263238" stroke-miterlimit="10"/>
<path d="M181.613 89.5474H175.045V114.134H181.613V89.5474Z" fill="white" stroke="#263238" stroke-miterlimit="10"/>
<path d="M175.078 108.853H171.155V110.868H175.078V108.853Z" fill="white" stroke="#263238" stroke-miterlimit="10"/>
<path d="M175.078 92.047H171.155V94.0625H175.078V92.047Z" fill="white" stroke="#263238" stroke-miterlimit="10"/>
<path d="M190.927 89.5474H187.004V114.134H190.927V89.5474Z" fill="white" stroke="#263238" stroke-miterlimit="10"/>
<path d="M190.927 108.853H187.004V110.868H190.927V108.853Z" fill="white" stroke="#263238" stroke-miterlimit="10"/>
<path d="M190.927 92.047H187.004V94.0625H190.927V92.047Z" fill="white" stroke="#263238" stroke-miterlimit="10"/>
<path d="M194.943 89.5474H191.021V114.134H194.943V89.5474Z" fill="white" stroke="#263238" stroke-miterlimit="10"/>
<path d="M194.943 108.853H191.021V110.868H194.943V108.853Z" fill="white" stroke="#263238" stroke-miterlimit="10"/>
<path d="M194.943 92.047H191.021V94.0625H194.943V92.047Z" fill="white" stroke="#263238" stroke-miterlimit="10"/>
<path d="M202.974 89.5413L199.317 91.1669L208.513 114.099L212.17 112.474L202.974 89.5413Z" fill="white" stroke="#263238" stroke-miterlimit="10"/>
<path d="M210.195 107.546L206.539 109.172L207.292 111.051L210.949 109.426L210.195 107.546Z" fill="white" stroke="#263238" stroke-miterlimit="10"/>
<path d="M203.91 91.8719L200.253 93.4974L201.007 95.377L204.664 93.7514L203.91 91.8719Z" fill="white" stroke="#263238" stroke-miterlimit="10"/>
<path d="M208.517 114.089H216.704L220.387 112.474L212.172 112.464L208.517 114.089Z" fill="white" stroke="#263238" stroke-miterlimit="10"/>
<path d="M202.976 89.5325H210.666L220.387 112.474L212.172 112.464L202.976 89.5325Z" fill="white" stroke="#263238" stroke-miterlimit="10"/>
<path d="M198.814 89.5474H194.891V114.134H198.814V89.5474Z" fill="white" stroke="#263238" stroke-miterlimit="10"/>
<path d="M198.814 108.853H194.891V110.868H198.814V108.853Z" fill="white" stroke="#263238" stroke-miterlimit="10"/>
<path d="M198.814 92.047H194.891V94.0625H198.814V92.047Z" fill="white" stroke="#263238" stroke-miterlimit="10"/>
<path d="M198.814 89.5474H202.976L199.316 91.1578L208.517 114.089H198.814V89.5474Z" fill="white" stroke="#263238" stroke-miterlimit="10"/>
<path d="M163.038 148.244H159.116V172.831H163.038V148.244Z" fill="white" stroke="#263238" stroke-miterlimit="10"/>
<path d="M163.038 167.55H159.116V169.565H163.038V167.55Z" fill="white" stroke="#263238" stroke-miterlimit="10"/>
<path d="M163.038 150.739H159.116V152.755H163.038V150.739Z" fill="white" stroke="#263238" stroke-miterlimit="10"/>
<path d="M159.167 148.244H155.245V172.831H159.167V148.244Z" fill="white" stroke="#263238" stroke-miterlimit="10"/>
<path d="M159.167 167.55H155.245V169.565H159.167V167.55Z" fill="white" stroke="#263238" stroke-miterlimit="10"/>
<path d="M159.167 150.739H155.245V152.755H159.167V150.739Z" fill="white" stroke="#263238" stroke-miterlimit="10"/>
<path d="M155.297 148.244H151.374V172.831H155.297V148.244Z" fill="white" stroke="#263238" stroke-miterlimit="10"/>
<path d="M155.297 167.55H151.374V169.565H155.297V167.55Z" fill="white" stroke="#263238" stroke-miterlimit="10"/>
<path d="M155.297 150.739H151.374V152.755H155.297V150.739Z" fill="white" stroke="#263238" stroke-miterlimit="10"/>
<path d="M151.43 148.244H147.508V172.831H151.43V148.244Z" fill="white" stroke="#263238" stroke-miterlimit="10"/>
<path d="M151.43 167.55H147.508V169.565H151.43V167.55Z" fill="white" stroke="#263238" stroke-miterlimit="10"/>
<path d="M151.43 150.739H147.508V152.755H151.43V150.739Z" fill="white" stroke="#263238" stroke-miterlimit="10"/>
<path d="M167.05 148.244H163.127V172.831H167.05V148.244Z" fill="white" stroke="#263238" stroke-miterlimit="10"/>
<path d="M167.05 167.55H163.127V169.565H167.05V167.55Z" fill="white" stroke="#263238" stroke-miterlimit="10"/>
<path d="M167.05 150.739H163.127V152.755H167.05V150.739Z" fill="white" stroke="#263238" stroke-miterlimit="10"/>
<path d="M171.061 148.244H167.139V172.831H171.061V148.244Z" fill="white" stroke="#263238" stroke-miterlimit="10"/>
<path d="M171.061 167.55H167.139V169.565H171.061V167.55Z" fill="white" stroke="#263238" stroke-miterlimit="10"/>
<path d="M171.061 150.739H167.139V152.755H171.061V150.739Z" fill="white" stroke="#263238" stroke-miterlimit="10"/>
<path d="M175.078 148.244H171.155V172.831H175.078V148.244Z" fill="white" stroke="#263238" stroke-miterlimit="10"/>
<path d="M181.613 148.244H175.045V172.831H181.613V148.244Z" fill="white" stroke="#263238" stroke-miterlimit="10"/>
<path d="M175.078 167.55H171.155V169.565H175.078V167.55Z" fill="white" stroke="#263238" stroke-miterlimit="10"/>
<path d="M175.078 150.739H171.155V152.755H175.078V150.739Z" fill="white" stroke="#263238" stroke-miterlimit="10"/>
<path d="M190.927 148.244H187.004V172.831H190.927V148.244Z" fill="white" stroke="#263238" stroke-miterlimit="10"/>
<path d="M190.927 167.55H187.004V169.565H190.927V167.55Z" fill="white" stroke="#263238" stroke-miterlimit="10"/>
<path d="M190.927 150.739H187.004V152.755H190.927V150.739Z" fill="white" stroke="#263238" stroke-miterlimit="10"/>
<path d="M194.943 148.244H191.021V172.831H194.943V148.244Z" fill="white" stroke="#263238" stroke-miterlimit="10"/>
<path d="M194.943 167.55H191.021V169.565H194.943V167.55Z" fill="white" stroke="#263238" stroke-miterlimit="10"/>
<path d="M194.943 150.739H191.021V152.755H194.943V150.739Z" fill="white" stroke="#263238" stroke-miterlimit="10"/>
<path d="M202.97 148.235L199.314 149.861L208.51 172.793L212.166 171.168L202.97 148.235Z" fill="white" stroke="#263238" stroke-miterlimit="10"/>
<path d="M210.1 165.803L206.448 167.433L207.204 169.31L210.855 167.68L210.1 165.803Z" fill="white" stroke="#263238" stroke-width="0.99925" stroke-miterlimit="10"/>
<path d="M203.906 150.566L200.25 152.192L201.003 154.071L204.66 152.446L203.906 150.566Z" fill="white" stroke="#263238" stroke-miterlimit="10"/>
<path d="M208.517 172.786H216.704L220.387 171.171L212.172 171.156L208.517 172.786Z" fill="white" stroke="#263238" stroke-miterlimit="10"/>
<path d="M202.976 148.225H210.666L220.387 171.171L212.172 171.156L202.976 148.225Z" fill="white" stroke="#263238" stroke-miterlimit="10"/>
<path d="M198.814 148.244H194.891V172.831H198.814V148.244Z" fill="white" stroke="#263238" stroke-miterlimit="10"/>
<path d="M198.814 167.55H194.891V169.565H198.814V167.55Z" fill="white" stroke="#263238" stroke-miterlimit="10"/>
<path d="M198.814 150.739H194.891V152.755H198.814V150.739Z" fill="white" stroke="#263238" stroke-miterlimit="10"/>
<path d="M198.814 148.244H202.976L199.316 149.85L208.517 172.786H198.814V148.244Z" fill="white" stroke="#263238" stroke-miterlimit="10"/>
<path d="M184.128 172.92V230.569" stroke="#263238" stroke-miterlimit="10"/>
<path d="M147.705 180.058H223.47" stroke="#263238" stroke-miterlimit="10"/>
<path d="M163.254 184.934V195.387" stroke="#263238" stroke-width="2" stroke-miterlimit="10"/>
<path d="M166.562 184.934V195.387" stroke="#263238" stroke-width="2" stroke-miterlimit="10"/>
<path d="M201.305 184.934V195.387" stroke="#263238" stroke-width="2" stroke-miterlimit="10"/>
<path d="M204.613 184.934V195.387" stroke="#263238" stroke-width="2" stroke-miterlimit="10"/>
<path d="M244.588 56.8149V39.0902H269.07" stroke="#263238" stroke-miterlimit="10"/>
<path d="M270.872 39.0902H281.185V83.0562H244.588V59.5023" stroke="#263238" stroke-miterlimit="10"/>
<path d="M267.869 77.1282H249.519V45.0182H276.249V77.1282H269.971" stroke="#263238" stroke-miterlimit="10"/>
<path d="M268.024 54.8982H257.744V67.2482H268.024V54.8982Z" stroke="#263238" stroke-miterlimit="10"/>
<path d="M284.436 77.3061V66.2504H299.708" stroke="#263238" stroke-miterlimit="10"/>
<path d="M300.83 66.2504H307.262V93.6723H284.436V78.9807" stroke="#263238" stroke-miterlimit="10"/>
<path d="M298.958 89.9771H287.514V69.9454H304.184V89.9771H300.267" stroke="#263238" stroke-miterlimit="10"/>
<path d="M299.056 76.1106H292.642V83.8121H299.056V76.1106Z" stroke="#263238" stroke-miterlimit="10"/>
<path d="M42.4424 233.356H307.065" stroke="#263238" stroke-linecap="round" stroke-linejoin="round"/>
<path d="M61.21 164.196C61.21 164.196 58.3949 124.676 59.8024 120.23C61.21 115.784 69.89 116.031 71.5322 116.031C73.1743 116.031 107.425 116.031 112.352 118.501C117.278 120.971 117.982 181.733 117.982 181.733H63.556L61.21 164.196Z" fill="#263238" stroke="#263238" stroke-miterlimit="10"/>
<path d="M119.854 160.985C119.854 160.985 114.224 160.985 113.098 166.913C111.972 172.841 116.405 197.294 116.734 204.21C117.062 211.126 118.217 220.759 118.217 220.759H138.157L142.614 160.985H119.854Z" fill="#263238" stroke="#263238" stroke-miterlimit="10"/>
<path d="M142.614 160.985C142.614 160.985 136.984 160.985 135.577 166.913C134.169 172.841 137.453 197.294 137.453 204.21C137.453 211.126 138.157 220.759 138.157 220.759H145.195C145.195 220.759 145.899 202.975 145.899 200.505C145.899 198.035 148.714 172.347 147.306 167.16C145.899 161.973 144.726 161.479 142.614 160.985Z" fill="#636363" stroke="#263238" stroke-miterlimit="10"/>
<path d="M83.1446 118.624C83.1446 118.624 64.4943 126.652 64.4943 127.516C64.4943 128.381 70.8284 151.599 73.1743 155.18C75.5203 158.762 77.1624 162.714 77.8662 164.196C78.57 165.678 81.6197 169.383 84.083 169.383C86.5462 169.383 89.4787 166.295 97.3376 165.06C105.197 163.825 112.234 163.949 113.642 162.837C115.049 161.726 113.29 158.762 113.055 158.144C112.821 157.527 111.882 155.304 111.882 155.304C111.882 155.304 119.507 161.973 122.557 162.22C125.606 162.467 127.835 160.861 128.304 158.762C128.773 156.662 127.014 151.599 125.841 148.882C124.668 146.165 119.155 141.842 116.692 138.508C114.228 135.173 111.061 131.221 108.833 128.504C106.891 126.112 104.493 124.177 101.795 122.823C99.6835 121.835 94.2879 119.365 90.8862 118.995C87.4846 118.624 83.1446 118.624 83.1446 118.624Z" fill="white" stroke="#263238" stroke-miterlimit="10"/>
<path d="M119.699 147.563C119.699 147.563 117.044 155.304 117.982 157.28C118.92 159.256 121.421 159.913 121.421 159.913" stroke="#263238" stroke-miterlimit="10"/>
<path d="M80.3295 121.218L95.8127 137.026L98.1587 125.17" stroke="#263238" stroke-miterlimit="10"/>
<path d="M120.445 148.511C120.445 148.511 124.199 151.352 125.489 150.364C126.779 149.376 126.427 147.523 125.606 145.547C124.785 143.571 122.087 142.46 121.032 143.324C119.976 144.189 119.624 147.647 120.445 148.511Z" fill="white" stroke="#263238" stroke-miterlimit="10"/>
<path d="M81.9717 113.437L82.5582 120.847L94.9917 133.691L96.8684 124.552L97.6895 120.724C97.6895 120.724 89.596 119.242 87.0155 117.389C84.4349 115.537 81.9717 113.437 81.9717 113.437Z" fill="white" stroke="#263238" stroke-miterlimit="10"/>
<path d="M97.6895 120.724C97.6895 120.724 89.596 119.242 87.0155 117.389C84.4349 115.537 81.9717 113.437 81.9717 113.437L82.5582 120.847L85.7017 124.093C88.1462 124.819 90.5813 125.17 92.2375 124.498C94.0753 123.794 95.8318 122.875 97.4737 121.756L97.6895 120.724Z" fill="#263238" stroke="#263238" stroke-miterlimit="10"/>
<path d="M78.2557 107.717C78.2557 107.717 76.0646 97.1747 76.0646 95.3667C76.0646 93.5587 82.0092 84.3308 90.1403 85.8128C98.2713 87.2948 102.808 92.2348 103.123 93.7168C103.437 95.1987 102.184 98.1627 102.184 98.1627C102.432 99.0214 102.589 99.906 102.654 100.801C102.654 101.789 101.246 106.067 101.246 106.067L100.777 101.621C100.777 101.621 96.8684 102.777 94.6773 102.777C92.4862 102.777 88.7327 101.295 88.7327 101.295C88.7327 101.295 89.5162 103.928 88.7327 105.247C87.9492 106.566 85.6079 107.717 85.6079 107.717C85.6079 107.717 85.2935 110.35 84.3552 110.35C83.1975 110.288 82.047 110.123 80.916 109.856C80.2873 109.693 78.2557 107.717 78.2557 107.717Z" fill="#263238" stroke="#263238" stroke-miterlimit="10"/>
<path d="M81.8543 108.868C81.8543 108.868 81.54 104.916 78.4105 105.904C75.281 106.892 77.3173 110.513 79.0392 112.326C80.7611 114.139 81.2256 112.82 81.2256 112.82C81.2256 112.82 81.6948 116.609 84.0408 118.748C86.3867 120.887 89.9854 124.839 93.7389 124.345C97.4924 123.851 100.153 118.911 100.622 115.29C101.091 111.669 101.401 103.103 101.401 102.115C101.288 101 101.079 99.8992 100.777 98.8247C100.777 98.8247 97.4924 101.295 94.5225 100.633C91.5525 99.9708 88.423 98.6567 87.0154 98.6567C85.6079 98.6567 85.9175 100.801 86.3867 101.458C86.8559 102.115 88.1086 103.434 86.7011 104.259C85.2935 105.084 83.4167 105.904 83.4167 105.904V109.362L81.8543 108.868Z" fill="white" stroke="#263238" stroke-miterlimit="10"/>
<path d="M96.8168 107.07L96.0473 115.996L92.1953 114.82" stroke="#263238" stroke-miterlimit="10"/>
<path d="M93.5653 115.542C93.5653 115.542 91.6885 115.542 90.6563 115.635C90.0363 115.743 89.4063 115.773 88.7795 115.724C88.3526 115.635 87.8412 115.275 88.6951 116.174C89.549 117.073 92.1202 118.15 93.4902 118.338C94.8602 118.525 95.8033 118.066 96.8261 117.35C97.849 116.633 98.7029 115.907 98.1962 115.729C97.4901 115.597 96.7737 115.536 96.0567 115.547V116.001L93.5653 115.542Z" fill="#263238" stroke="#263238" stroke-miterlimit="10"/>
<path d="M90.8675 110.132C91.1758 110.132 91.4258 109.588 91.4258 108.917C91.4258 108.246 91.1758 107.702 90.8675 107.702C90.5591 107.702 90.3091 108.246 90.3091 108.917C90.3091 109.588 90.5591 110.132 90.8675 110.132Z" fill="#263238"/>
<path d="M99.2143 108.739C99.2143 109.411 98.9657 109.955 98.6607 109.955C98.3557 109.955 98.1024 109.411 98.1024 108.739C98.1024 108.068 98.351 107.519 98.6607 107.519C98.9704 107.519 99.2143 108.068 99.2143 108.739Z" fill="#263238"/>
<path d="M88.7701 107.07C88.7701 107.07 91.0832 105.355 92.9647 106.082" stroke="#263238" stroke-miterlimit="10"/>
<path d="M97.2485 106.171C97.2485 106.171 99.646 104.995 100.674 106.077" stroke="#263238" stroke-miterlimit="10"/>
<path d="M92.3689 111.15C92.3689 111.15 91.8527 111.782 90.1402 112.321" stroke="#263238" stroke-miterlimit="10"/>
<path d="M97.0748 110.765C97.5815 111.133 98.128 111.436 98.7029 111.669" stroke="#263238" stroke-miterlimit="10"/>
<path d="M104.375 134.185L105.197 131.962C105.197 131.962 106.252 133.074 109.067 133.074C111.882 133.074 116.457 135.173 116.457 135.173L116.809 135.791C116.809 135.791 117.63 133.197 119.155 132.703C120.68 132.209 123.143 130.48 123.495 129.986L123.847 129.492L125.489 130.974L118.217 141.101L104.61 135.544L104.375 134.185Z" fill="white" stroke="#263238" stroke-miterlimit="10"/>
<path d="M104.493 133.321L100.974 152.957L113.173 155.921L117.63 136.902L104.493 133.321Z" fill="white" stroke="#263238" stroke-miterlimit="10"/>
<path d="M117.63 136.902L125.489 130.974L120.797 149.993L113.173 155.921L117.63 136.902Z" fill="white" stroke="#263238" stroke-miterlimit="10"/>
<path d="M89.3613 149.376L94.6772 147.069C94.6772 147.069 99.3691 141.803 99.8383 141.309C100.308 140.815 104.999 140.321 104.999 140.321L110.161 143.942C110.161 143.942 111.099 144.767 110.161 145.093C109.222 145.419 107.191 144.436 107.191 144.436L105.154 143.117L103.906 143.779L106.562 146.081C106.562 146.081 107.345 148.225 107.345 149.376C107.331 150.115 107.171 150.843 106.876 151.515L105.314 153.822L100.622 151.352C100.622 151.352 97.8067 153.491 97.178 153.822C96.5493 154.153 90.6094 153.659 90.6094 153.659L89.3613 149.376Z" fill="white" stroke="#263238" stroke-miterlimit="10"/>
<path d="M100.58 143.606L102.241 143.275L103.667 143.69" stroke="#263238" stroke-miterlimit="10"/>
<path d="M98.9985 146.856C98.9985 146.856 102.715 145.77 102.954 145.77C103.193 145.77 105.961 148.768 105.961 148.768L106.276 152.019" stroke="#263238" stroke-miterlimit="10"/>
<path d="M99.1581 148.936L102.161 149.02L104.929 150.937C105.21 151.869 105.34 152.844 105.314 153.822" stroke="#263238" stroke-miterlimit="10"/>
<path d="M67.7787 125.17C67.7787 125.17 64.3348 125.664 63.8656 128.791C63.3964 131.918 60.2716 158.268 61.21 161.232C62.1484 164.196 79.5084 159.093 80.1324 158.762C80.7564 158.431 90.6094 155.304 90.7689 154.647C90.9285 153.99 91.2381 148.551 89.8306 148.225C88.423 147.899 74.9713 148.388 74.9713 148.388L73.0946 131.261" fill="white"/>
<path d="M67.7787 125.17C67.7787 125.17 64.3348 125.664 63.8656 128.791C63.3964 131.918 60.2716 158.268 61.21 161.232C62.1484 164.196 79.5084 159.093 80.1324 158.762C80.7564 158.431 90.6094 155.304 90.7689 154.647C90.9285 153.99 91.2381 148.551 89.8306 148.225C88.423 147.899 74.9713 148.388 74.9713 148.388L73.0946 131.261" stroke="#263238" stroke-miterlimit="10"/>
<path d="M74.9713 148.388L66.6807 149.87" stroke="#263238" stroke-miterlimit="10"/>
<path d="M65.1183 147.894L72.311 148.882" stroke="#263238" stroke-miterlimit="10"/>
<path d="M123.378 139.125C123.378 139.125 120.211 142.583 120.328 143.448C120.445 144.312 122.087 142.954 122.439 142.583C122.791 142.213 124.433 141.225 124.433 140.237C124.433 139.249 124.081 138.137 123.378 139.125Z" fill="white" stroke="#263238" stroke-miterlimit="10"/>
<path d="M123.729 141.225C123.729 141.225 124.668 142.213 124.668 143.077C124.668 143.942 122.674 146.782 121.735 146.782C120.797 146.782 121.501 144.806 121.97 143.942C122.439 143.077 123.729 141.225 123.729 141.225Z" fill="white" stroke="#263238" stroke-miterlimit="10"/>
<path d="M124.668 143.077C124.668 143.077 125.841 143.448 125.841 144.559C125.841 145.671 123.612 147.523 123.026 147.647C122.439 147.77 122.557 146.659 123.026 145.794C123.495 144.93 124.668 143.077 124.668 143.077Z" fill="white" stroke="#263238" stroke-miterlimit="10"/>
<path d="M125.841 144.559C126.081 145.185 126.162 145.866 126.075 146.535C125.958 147.77 124.199 148.511 123.612 148.511C123.026 148.511 123.026 147.647 123.026 147.647C124.018 146.674 124.958 145.643 125.841 144.559Z" fill="white" stroke="#263238" stroke-miterlimit="10"/>
<path d="M88.9485 233.356H86.7198L85.6078 217.795H90.0652L88.9485 233.356Z" fill="white" stroke="#263238" stroke-miterlimit="10"/>
<path d="M68.5387 233.356H66.3101L65.1981 217.795H69.6554L68.5387 233.356Z" fill="white" stroke="#263238" stroke-miterlimit="10"/>
<path d="M142.202 233.356H139.973L138.861 217.795H143.318L142.202 233.356Z" fill="white" stroke="#263238" stroke-miterlimit="10"/>
<path d="M121.792 233.356H119.563L118.451 217.795H122.908L121.792 233.356Z" fill="white" stroke="#263238" stroke-miterlimit="10"/>
<path d="M139.095 188.021H85.8425V220.625H139.095V188.021Z" fill="#263238" stroke="#263238" stroke-miterlimit="10"/>
<path d="M177.724 182.805C177.724 182.805 183.354 180.335 184.607 179.347C185.86 178.359 187.577 180.498 186.793 182.805C186.01 185.112 183.978 189.227 180.853 191.203C177.729 193.179 175.223 194.824 174.594 195.481C173.966 196.138 174.125 198.613 171.47 199.601C168.814 200.589 165.525 198.613 163.648 195.481C161.771 192.349 160.519 190.215 160.519 190.215C160.519 190.215 160.678 187.908 163.803 186.757C166.928 185.606 172.248 185.107 172.248 185.107L177.724 182.805Z" fill="white" stroke="#263238" stroke-miterlimit="10"/>
<path d="M113.642 162.837C113.642 162.837 117.353 161.889 118.292 162.383C119.23 162.877 122.36 166.009 122.36 166.009C122.36 166.009 141.282 166.335 142.689 166.997C144.097 167.659 158.642 179.347 161.771 180.992C164.901 182.637 167.557 184.119 167.557 184.119L165.211 194.987V195.975L165.37 197.625C165.37 197.625 157.234 194.987 155.203 194.493C153.171 193.999 144.726 189.39 143.942 189.39C143.159 189.39 136.75 187.414 136.75 187.414C136.75 187.414 135.811 186.757 125.644 185.769C115.476 184.781 104.061 183.625 99.9932 183.462C95.9254 183.299 90.6094 182.968 88.5779 182.143C86.5463 181.318 82.9476 175.558 82.3236 172.1C81.6995 168.642 88.2635 165.678 91.0786 164.359C93.8938 163.04 104.375 161.395 106.252 161.395C108.129 161.395 113.642 162.837 113.642 162.837Z" fill="white" stroke="#263238" stroke-miterlimit="10"/>
<path d="M117.198 167.654L114.069 172.431L118.292 169.467" fill="white"/>
<path d="M117.198 167.654L114.069 172.431L118.292 169.467" stroke="#263238" stroke-miterlimit="10"/>
<path d="M165.211 181.98C165.211 181.98 169.748 178.191 170.686 177.04C171.624 175.889 174.754 169.63 175.378 167.654C176.002 165.678 177.569 164.69 178.662 166.172C179.755 167.654 180.539 170.618 181.163 171.937C181.787 173.256 180.853 179.673 178.977 181.817C177.1 183.961 174.505 189.153 173.97 190.215C172.563 193.011 170.372 193.342 168.964 193.505C167.557 193.668 164.117 189.721 164.117 189.721L165.211 181.98Z" fill="white" stroke="#263238" stroke-miterlimit="10"/>
<path d="M95.6157 170.949C95.6157 170.949 100.308 169.961 104.53 170.455C108.753 170.949 117.353 173.745 120.952 174.733C124.551 175.721 130.96 176.215 133.934 177.371C136.909 178.527 144.726 180.004 150.666 180.004C156.606 180.004 165.68 180.829 165.68 180.829C165.68 180.829 164.432 190.378 164.741 192.191C165.05 193.65 165.469 195.08 165.994 196.469C165.994 196.469 153.95 197.457 150.511 197.951C147.072 198.445 133.151 196.143 130.805 195.481C128.459 194.819 125.02 193.836 122.829 193.836C120.638 193.836 116.415 194.824 110.315 195.481C104.216 196.138 95.6157 193.342 94.5224 193.179C93.4292 193.016 89.5162 191.529 88.5778 190.872C87.6394 190.215 82.164 180.004 84.0408 175.721C85.9175 171.438 88.2635 170.781 88.2635 170.781" fill="white"/>
<path d="M95.6157 170.949C95.6157 170.949 100.308 169.961 104.53 170.455C108.753 170.949 117.353 173.745 120.952 174.733C124.551 175.721 130.96 176.215 133.934 177.371C136.909 178.527 144.726 180.004 150.666 180.004C156.606 180.004 165.68 180.829 165.68 180.829C165.68 180.829 164.432 190.378 164.741 192.191C165.05 193.65 165.469 195.08 165.994 196.469C165.994 196.469 153.95 197.457 150.511 197.951C147.072 198.445 133.151 196.143 130.805 195.481C128.459 194.819 125.02 193.836 122.829 193.836C120.638 193.836 116.415 194.824 110.315 195.481C104.216 196.138 95.6157 193.342 94.5224 193.179C93.4292 193.016 89.5162 191.529 88.5778 190.872C87.6394 190.215 82.164 180.004 84.0408 175.721C85.9175 171.438 88.2635 170.781 88.2635 170.781" stroke="#263238" stroke-miterlimit="10"/>
<path d="M124.386 187.562C127.403 188.194 130.598 190.121 134.92 191.904C140.686 194.28 152.228 194.063 153.715 194.28C155.203 194.498 158.98 194.28 158.98 194.28" fill="white"/>
<path d="M124.386 187.562C127.403 188.194 130.598 190.121 134.92 191.904C140.686 194.28 152.228 194.063 153.715 194.28C155.203 194.498 158.98 194.28 158.98 194.28" stroke="#263238" stroke-miterlimit="10"/>
<path d="M101.124 189.795L102.846 190.057C107.857 190.847 117.391 187.947 121.388 187.419" fill="white"/>
<path d="M101.124 189.795L102.846 190.057C107.857 190.847 117.391 187.947 121.388 187.419" stroke="#263238" stroke-miterlimit="10"/>
<path d="M96.0801 189.266C96.0801 189.266 96.981 189.266 99.3316 189.558L96.0801 189.266Z" fill="white"/>
<path d="M96.0801 189.266C96.0801 189.266 96.981 189.266 99.3316 189.558" stroke="#263238" stroke-miterlimit="10"/>
<path d="M65.6626 160.985C65.6626 160.985 60.0323 160.985 58.9063 166.913C57.7802 172.841 62.1906 197.294 62.5425 204.21C62.8944 211.126 64.0251 220.759 64.0251 220.759H83.9657L88.423 160.985H65.6626Z" fill="#263238" stroke="#263238" stroke-miterlimit="10"/>
<path d="M88.4229 160.985C88.4229 160.985 82.7927 160.985 81.3851 166.913C79.9775 172.841 83.2619 197.294 83.2619 204.21C83.2619 211.126 83.9656 220.759 83.9656 220.759H91.0035C91.0035 220.759 91.7073 202.975 91.7073 200.505C91.7073 198.035 94.5224 172.347 93.1148 167.16C91.7073 161.973 90.5343 161.479 88.4229 160.985Z" fill="#636363" stroke="#263238" stroke-miterlimit="10"/>
<path d="M134.225 233.356H131.997L130.885 217.795H135.342L134.225 233.356Z" fill="white" stroke="#263238" stroke-miterlimit="10"/>
<path d="M153.227 233.356H150.999L149.887 217.795H154.344L153.227 233.356Z" fill="white" stroke="#263238" stroke-miterlimit="10"/>
<path d="M162.142 233.356H159.913L158.801 217.795H163.259L162.142 233.356Z" fill="white" stroke="#263238" stroke-miterlimit="10"/>
<path d="M180.91 233.356H178.681L177.569 217.795H182.026L180.91 233.356Z" fill="white" stroke="#263238" stroke-miterlimit="10"/>
<path d="M131.471 197.541H180.478C181.38 197.541 182.245 197.918 182.883 198.59C183.521 199.261 183.88 200.172 183.88 201.122V226.44H128.046V201.122C128.046 200.65 128.135 200.182 128.307 199.746C128.48 199.31 128.732 198.914 129.051 198.581C129.369 198.248 129.747 197.985 130.162 197.806C130.578 197.628 131.022 197.537 131.471 197.541Z" fill="#263238" stroke="#263238" stroke-miterlimit="10"/>
<path d="M180.501 197.541H162.672C161.77 197.541 160.905 197.918 160.267 198.59C159.629 199.261 159.271 200.172 159.271 201.122V226.44H183.903V201.122C183.902 200.173 183.543 199.263 182.905 198.591C182.268 197.92 181.403 197.542 180.501 197.541Z" fill="#636363" stroke="#263238" stroke-miterlimit="10"/>
</svg>
