<svg width="267" height="231" viewBox="0 0 267 231" fill="none" xmlns="http://www.w3.org/2000/svg">
<path d="M236.187 153.694L235.73 157.796L243.705 148.473C244.659 148.573 245.618 148.623 246.577 148.625" stroke="#263238" stroke-linecap="round" stroke-linejoin="round"/>
<path d="M226.196 125.402C225.148 126.983 224.491 128.791 224.279 130.676C223.523 137.491 228.868 143.937 236.943 146.92L236.533 150.582" stroke="#263238" stroke-linecap="round" stroke-linejoin="round"/>
<path d="M229.295 122.009C228.776 122.43 228.283 122.882 227.819 123.363" stroke="#263238" stroke-linecap="round" stroke-linejoin="round"/>
<path d="M259.205 122.009C255.564 119.514 251.355 117.975 246.963 117.532C242.322 116.963 237.614 117.655 233.333 119.536" stroke="#263238" stroke-linecap="round" stroke-linejoin="round"/>
<path d="M252.126 148.074C259.744 146.498 265.516 141.628 266.19 135.311C266.682 130.893 264.614 126.633 260.916 123.363" stroke="#263238" stroke-linecap="round" stroke-linejoin="round"/>
<path d="M233.339 126.539C233.984 126.659 234.646 126.65 235.288 126.514C235.929 126.377 236.538 126.115 237.078 125.742L239.926 127.951C239.726 128.015 239.744 127.594 239.955 127.582C240.166 127.57 240.324 127.764 240.47 127.916C241.139 128.625 242.264 128.648 243.219 128.443C244.174 128.238 245.106 127.857 246.079 127.892C246.657 127.953 247.226 128.085 247.772 128.285C251.687 129.498 255.759 130.108 259.814 130.705" stroke="#263238" stroke-linecap="round" stroke-linejoin="round"/>
<path d="M229.975 130.705C230.561 130.67 233.825 130.705 234.294 130.313L235.091 131.701L235.97 130.852C236.122 131.438 236.275 132.024 236.421 132.575C237.083 132.733 237.007 131.455 237.593 131.074C237.773 130.986 237.98 130.969 238.173 131.027C238.365 131.084 238.528 131.212 238.63 131.385C238.823 131.745 238.916 132.149 238.9 132.557L242.908 132.885L243.688 132.95C243.966 132.525 244.379 132.205 244.86 132.041C244.713 132.967 245.879 133.495 246.805 133.682C251.364 134.612 255.947 135.415 260.553 136.091" stroke="#263238" stroke-linecap="round" stroke-linejoin="round"/>
<path d="M231.757 137.069C232.126 137.327 232.577 136.847 233.028 136.788C233.479 136.729 233.849 137.069 234.247 137.274C234.646 137.479 235.302 137.392 235.325 136.946C235.419 137.532 236.146 137.743 236.738 137.825L252.126 139.988" stroke="#263238" stroke-linecap="round" stroke-linejoin="round"/>
<path d="M25.848 117.051L32.0127 125.349L30.7763 114.491C32.2502 113.775 33.6599 112.934 34.9896 111.977C41.3067 107.406 43.8499 100.052 41.5352 94.1271C39.912 89.9899 36.1089 87.1771 31.3037 86.011" stroke="#263238" stroke-linecap="round" stroke-linejoin="round"/>
<path d="M1.4997 103.96C1.30758 105.839 1.56467 107.737 2.24978 109.498C4.74614 115.885 12.4696 119.108 21.0018 117.995" stroke="#263238" stroke-linecap="round" stroke-linejoin="round"/>
<path d="M2.66584 99.5125C2.4041 100.128 2.17908 100.758 1.99194 101.399" stroke="#263238" stroke-linecap="round" stroke-linejoin="round"/>
<path d="M29.1531 85.6125C24.7687 85.0884 20.3229 85.6769 16.2259 87.3236C11.8531 88.9772 8.00683 91.7789 5.09192 95.4339" stroke="#263238" stroke-linecap="round" stroke-linejoin="round"/>
<path d="M8.3501 101.64C9.61071 101.246 10.6642 100.37 11.2801 99.2018L14.7961 99.8347C14.6437 99.9812 14.4679 99.6003 14.6496 99.489C14.8313 99.3776 15.0598 99.489 15.2356 99.5476C16.1615 99.864 17.1635 99.3659 17.9136 98.7389C18.6637 98.1119 19.3083 97.3325 20.1932 96.9223C20.7337 96.7063 21.2984 96.5568 21.875 96.4769C25.9067 95.7386 29.7918 94.379 33.6653 93.0254" stroke="#263238" stroke-linecap="round" stroke-linejoin="round"/>
<path d="M7.30701 106.896C7.82855 106.585 10.7175 105.103 10.9519 104.552L12.3056 105.413C12.4345 105.027 12.5634 104.634 12.6865 104.241L13.8878 105.56C14.55 105.396 13.8878 104.3 14.2042 103.702C14.3221 103.54 14.4972 103.429 14.6941 103.391C14.891 103.352 15.095 103.391 15.2649 103.497C15.5995 103.722 15.8685 104.031 16.0443 104.394L19.7419 102.823L20.4686 102.519C20.5102 102.015 20.7161 101.54 21.0546 101.165C21.3593 102.062 22.6368 101.979 23.5392 101.716C28.0123 100.427 32.4445 99.0085 36.8355 97.4614" stroke="#263238" stroke-linecap="round" stroke-linejoin="round"/>
<path d="M11.8427 111.701C12.2939 111.76 12.4697 111.115 12.8389 110.857C13.208 110.6 13.7003 110.734 14.1456 110.723C14.591 110.711 15.136 110.342 14.9485 109.937C15.3059 110.412 16.0501 110.26 16.6068 110.06L31.2568 104.816" stroke="#263238" stroke-linecap="round" stroke-linejoin="round"/>
<path d="M204.537 16.5173H58.4238C55.579 16.5173 53.2728 18.8235 53.2728 21.6683V153.296C53.2728 156.14 55.579 158.447 58.4238 158.447H204.537C207.382 158.447 209.688 156.14 209.688 153.296V21.6683C209.688 18.8235 207.382 16.5173 204.537 16.5173Z" fill="white"/>
<path opacity="0.2" d="M209.688 94.2618V153.448C209.688 154.773 209.162 156.043 208.226 156.98C207.29 157.918 206.02 158.445 204.695 158.446H58.2714C56.9457 158.446 55.6743 157.92 54.7369 156.982C53.7995 156.045 53.2728 154.774 53.2728 153.448V141.728H53.5834V149.627C53.5834 150.378 53.7314 151.121 54.0189 151.815C54.3064 152.509 54.7278 153.139 55.2589 153.669C55.7901 154.2 56.4206 154.621 57.1145 154.907C57.8084 155.194 58.552 155.341 59.3028 155.341H200.757C201.508 155.341 202.252 155.194 202.946 154.907C203.639 154.621 204.27 154.2 204.801 153.669C205.332 153.139 205.754 152.509 206.041 151.815C206.329 151.121 206.477 150.378 206.477 149.627V103.04C206.477 101.985 206.057 100.973 205.311 100.227C204.565 99.4804 203.553 99.0612 202.498 99.0612H53.2728V94.2618H209.688Z" fill="black"/>
<path d="M204.537 16.5173H58.4238C55.579 16.5173 53.2728 18.8235 53.2728 21.6683V153.296C53.2728 156.14 55.579 158.447 58.4238 158.447H204.537C207.382 158.447 209.688 156.14 209.688 153.296V21.6683C209.688 18.8235 207.382 16.5173 204.537 16.5173Z" stroke="#263238" stroke-linecap="round" stroke-linejoin="round"/>
<path d="M196.069 111.115V104.335C196.07 104.006 196.006 103.679 195.88 103.375C195.754 103.07 195.57 102.793 195.336 102.56C195.103 102.327 194.827 102.142 194.522 102.017C194.217 101.891 193.891 101.826 193.561 101.827H69.3996C68.7344 101.827 68.0965 102.091 67.6261 102.562C67.1558 103.032 66.8915 103.67 66.8915 104.335V111.115C66.8915 111.78 66.6273 112.418 66.1569 112.889C65.6866 113.359 65.0486 113.623 64.3834 113.623C63.7167 113.623 63.0773 113.888 62.6058 114.36C62.1344 114.831 61.8695 115.471 61.8695 116.137V129.516C61.8695 132.601 63.095 135.559 65.2765 137.741C67.4579 139.922 70.4166 141.148 73.5016 141.148C73.9974 141.148 74.4729 141.345 74.8234 141.695C75.174 142.046 75.3709 142.521 75.3709 143.017V147.025C75.3709 148.505 75.9587 149.924 77.0049 150.97C78.0511 152.016 79.4701 152.604 80.9497 152.604H182.011C183.491 152.604 184.91 152.016 185.956 150.97C187.002 149.924 187.59 148.505 187.59 147.025V143.017C187.59 142.521 187.787 142.046 188.137 141.695C188.488 141.345 188.964 141.148 189.459 141.148C190.987 141.148 192.499 140.847 193.911 140.262C195.322 139.678 196.604 138.821 197.684 137.741C198.765 136.661 199.621 135.378 200.206 133.967C200.79 132.556 201.091 131.043 201.091 129.516V116.137C201.091 115.472 200.827 114.833 200.357 114.362C199.887 113.89 199.249 113.625 198.583 113.623C197.918 113.623 197.279 113.359 196.808 112.889C196.336 112.419 196.071 111.781 196.069 111.115Z" fill="#263238"/>
<path d="M76.4023 105.666H72.06C71.5285 105.666 71.0187 105.877 70.6429 106.253C70.2671 106.628 70.0559 107.138 70.0559 107.67V108.783C70.0559 111.092 71.9253 114.022 74.2341 114.022C76.5429 114.022 78.4123 111.092 78.4123 108.783V107.67C78.4107 107.138 78.1983 106.628 77.8215 106.252C77.4447 105.876 76.9344 105.666 76.4023 105.666Z" fill="white" stroke="#263238" stroke-linecap="round" stroke-linejoin="round"/>
<path d="M86.7921 105.666H82.4498C81.9177 105.666 81.4074 105.876 81.0306 106.252C80.6538 106.628 80.4414 107.138 80.4398 107.67V108.783C80.4398 111.092 82.3092 114.022 84.618 114.022C86.9268 114.022 88.7962 111.092 88.7962 108.783V107.67C88.7962 107.138 88.585 106.628 88.2092 106.253C87.8333 105.877 87.3236 105.666 86.7921 105.666Z" fill="white" stroke="#263238" stroke-linecap="round" stroke-linejoin="round"/>
<path d="M97.2228 105.666H92.8806C92.3491 105.666 91.8393 105.877 91.4635 106.253C91.0876 106.628 90.8765 107.138 90.8765 107.67V108.783C90.8765 111.092 92.7458 114.022 95.0488 114.022C97.3518 114.022 99.227 111.092 99.227 108.783V107.67C99.227 107.138 99.0158 106.628 98.64 106.253C98.2641 105.877 97.7544 105.666 97.2228 105.666Z" fill="white" stroke="#263238" stroke-linecap="round" stroke-linejoin="round"/>
<path d="M107.63 105.666H103.288C102.756 105.666 102.247 105.877 101.871 106.253C101.495 106.628 101.284 107.138 101.284 107.67V108.783C101.284 111.092 103.153 114.022 105.462 114.022C107.771 114.022 109.634 111.092 109.634 108.783V107.67C109.634 107.406 109.582 107.146 109.482 106.903C109.381 106.66 109.233 106.439 109.047 106.253C108.861 106.066 108.64 105.919 108.397 105.818C108.154 105.717 107.893 105.666 107.63 105.666Z" fill="white" stroke="#263238" stroke-linecap="round" stroke-linejoin="round"/>
<path d="M118.038 105.666H113.695C113.164 105.666 112.654 105.877 112.278 106.253C111.902 106.628 111.691 107.138 111.691 107.67V108.783C111.691 111.092 113.56 114.022 115.869 114.022C118.178 114.022 120.048 111.092 120.048 108.783V107.67C120.046 107.138 119.834 106.628 119.457 106.252C119.08 105.876 118.57 105.666 118.038 105.666Z" fill="white" stroke="#263238" stroke-linecap="round" stroke-linejoin="round"/>
<path d="M128.451 105.666H124.108C123.576 105.666 123.066 105.876 122.689 106.252C122.313 106.628 122.1 107.138 122.099 107.67V108.783C122.099 111.092 123.968 114.022 126.277 114.022C128.586 114.022 130.455 111.092 130.455 108.783V107.67C130.455 107.138 130.244 106.628 129.868 106.253C129.492 105.877 128.982 105.666 128.451 105.666Z" fill="white" stroke="#263238" stroke-linecap="round" stroke-linejoin="round"/>
<path d="M138.858 105.666H134.516C133.984 105.666 133.475 105.877 133.099 106.253C132.723 106.628 132.512 107.138 132.512 107.67V108.783C132.512 111.092 134.381 114.022 136.684 114.022C138.987 114.022 140.862 111.092 140.862 108.783V107.67C140.862 107.138 140.651 106.628 140.275 106.253C139.899 105.877 139.39 105.666 138.858 105.666Z" fill="white" stroke="#263238" stroke-linecap="round" stroke-linejoin="round"/>
<path d="M149.265 105.666H144.923C144.392 105.666 143.882 105.877 143.506 106.253C143.13 106.628 142.919 107.138 142.919 107.67V108.783C142.919 111.092 144.788 114.022 147.097 114.022C149.406 114.022 151.27 111.092 151.27 108.783V107.67C151.27 107.138 151.058 106.628 150.683 106.253C150.307 105.877 149.797 105.666 149.265 105.666Z" fill="white" stroke="#263238" stroke-linecap="round" stroke-linejoin="round"/>
<path d="M159.673 105.665H155.354C155.091 105.665 154.83 105.717 154.587 105.818C154.344 105.919 154.123 106.066 153.937 106.252C153.751 106.439 153.603 106.659 153.502 106.903C153.402 107.146 153.35 107.406 153.35 107.67V108.783C153.35 111.092 155.219 114.022 157.528 114.022C159.837 114.022 161.706 111.092 161.706 108.783V107.67C161.706 107.404 161.652 107.141 161.549 106.897C161.447 106.652 161.296 106.43 161.107 106.244C160.918 106.057 160.694 105.91 160.448 105.811C160.202 105.712 159.938 105.662 159.673 105.665Z" fill="white" stroke="#263238" stroke-linecap="round" stroke-linejoin="round"/>
<path d="M170.086 105.666H165.744C165.212 105.666 164.701 105.876 164.325 106.252C163.948 106.628 163.735 107.138 163.734 107.67V108.783C163.734 111.092 165.603 114.022 167.912 114.022C170.221 114.022 172.09 111.092 172.09 108.783V107.67C172.09 107.138 171.879 106.628 171.503 106.253C171.127 105.877 170.618 105.666 170.086 105.666Z" fill="white" stroke="#263238" stroke-linecap="round" stroke-linejoin="round"/>
<path d="M180.493 105.666H176.151C175.62 105.666 175.11 105.877 174.734 106.253C174.358 106.628 174.147 107.138 174.147 107.67V108.783C174.147 111.092 176.016 114.022 178.319 114.022C180.622 114.022 182.498 111.092 182.498 108.783V107.67C182.498 107.138 182.286 106.628 181.911 106.253C181.535 105.877 181.025 105.666 180.493 105.666Z" fill="white" stroke="#263238" stroke-linecap="round" stroke-linejoin="round"/>
<path d="M190.901 105.665H186.559C186.027 105.665 185.517 105.877 185.141 106.252C184.766 106.628 184.554 107.138 184.554 107.67V108.783C184.554 111.086 186.412 114.016 188.756 114.016C191.1 114.016 192.928 111.086 192.928 108.777V107.664C192.928 107.399 192.874 107.137 192.772 106.893C192.669 106.649 192.52 106.428 192.331 106.242C192.143 106.056 191.919 105.91 191.674 105.811C191.428 105.712 191.165 105.662 190.901 105.665Z" fill="white" stroke="#263238" stroke-linecap="round" stroke-linejoin="round"/>
<path d="M76.4023 127.723H72.06C71.5285 127.723 71.0187 127.934 70.6429 128.31C70.2671 128.685 70.0559 129.195 70.0559 129.727V130.84C70.0559 133.149 71.9253 136.079 74.2341 136.079C76.5429 136.079 78.4123 133.149 78.4123 130.84V129.727C78.4107 129.195 78.1983 128.685 77.8215 128.309C77.4447 127.933 76.9344 127.723 76.4023 127.723Z" fill="white" stroke="#263238" stroke-linecap="round" stroke-linejoin="round"/>
<path d="M86.7921 127.723H82.4498C81.9177 127.723 81.4074 127.933 81.0306 128.309C80.6538 128.685 80.4414 129.195 80.4398 129.727V130.84C80.4398 133.149 82.3092 136.079 84.618 136.079C86.9268 136.079 88.7962 133.149 88.7962 130.84V129.727C88.7962 129.195 88.585 128.685 88.2092 128.31C87.8333 127.934 87.3236 127.723 86.7921 127.723Z" fill="white" stroke="#263238" stroke-linecap="round" stroke-linejoin="round"/>
<path d="M97.2228 127.723H92.8806C92.3491 127.723 91.8393 127.934 91.4635 128.31C91.0876 128.685 90.8765 129.195 90.8765 129.727V130.84C90.8765 133.149 92.7458 136.079 95.0488 136.079C97.3518 136.079 99.227 133.149 99.227 130.84V129.727C99.227 129.195 99.0158 128.685 98.64 128.31C98.2641 127.934 97.7544 127.723 97.2228 127.723Z" fill="white" stroke="#263238" stroke-linecap="round" stroke-linejoin="round"/>
<path d="M107.63 127.723H103.288C102.756 127.723 102.247 127.934 101.871 128.31C101.495 128.685 101.284 129.195 101.284 129.727V130.84C101.284 133.149 103.153 136.079 105.462 136.079C107.771 136.079 109.634 133.149 109.634 130.84V129.727C109.634 129.463 109.582 129.203 109.482 128.96C109.381 128.717 109.233 128.496 109.047 128.31C108.861 128.123 108.64 127.976 108.397 127.875C108.154 127.774 107.893 127.723 107.63 127.723Z" fill="white" stroke="#263238" stroke-linecap="round" stroke-linejoin="round"/>
<path d="M118.038 127.723H113.695C113.164 127.723 112.654 127.934 112.278 128.31C111.902 128.685 111.691 129.195 111.691 129.727V130.84C111.691 133.149 113.56 136.079 115.869 136.079C118.178 136.079 120.048 133.149 120.048 130.84V129.727C120.046 129.195 119.834 128.685 119.457 128.309C119.08 127.933 118.57 127.723 118.038 127.723Z" fill="white" stroke="#263238" stroke-linecap="round" stroke-linejoin="round"/>
<path d="M128.451 127.723H124.108C123.576 127.723 123.066 127.933 122.689 128.309C122.313 128.685 122.1 129.195 122.099 129.727V130.84C122.099 133.149 123.968 136.079 126.277 136.079C128.586 136.079 130.455 133.149 130.455 130.84V129.727C130.455 129.195 130.244 128.685 129.868 128.31C129.492 127.934 128.982 127.723 128.451 127.723Z" fill="white" stroke="#263238" stroke-linecap="round" stroke-linejoin="round"/>
<path d="M138.858 127.723H134.516C133.984 127.723 133.475 127.934 133.099 128.31C132.723 128.685 132.512 129.195 132.512 129.727V130.84C132.512 133.149 134.381 136.079 136.684 136.079C138.987 136.079 140.862 133.149 140.862 130.84V129.727C140.862 129.195 140.651 128.685 140.275 128.31C139.899 127.934 139.39 127.723 138.858 127.723Z" fill="white" stroke="#263238" stroke-linecap="round" stroke-linejoin="round"/>
<path d="M149.265 127.723H144.923C144.392 127.723 143.882 127.934 143.506 128.31C143.13 128.685 142.919 129.195 142.919 129.727V130.84C142.919 133.149 144.788 136.079 147.097 136.079C149.406 136.079 151.27 133.149 151.27 130.84V129.727C151.27 129.195 151.058 128.685 150.683 128.31C150.307 127.934 149.797 127.723 149.265 127.723Z" fill="white" stroke="#263238" stroke-linecap="round" stroke-linejoin="round"/>
<path d="M159.673 127.723H155.354C155.091 127.723 154.83 127.774 154.587 127.875C154.344 127.976 154.123 128.123 153.937 128.31C153.751 128.496 153.603 128.717 153.502 128.96C153.402 129.203 153.35 129.463 153.35 129.727V130.84C153.35 133.149 155.219 136.079 157.528 136.079C159.837 136.079 161.706 133.149 161.706 130.84V129.727C161.706 129.461 161.652 129.199 161.549 128.954C161.447 128.709 161.296 128.487 161.107 128.301C160.918 128.115 160.694 127.967 160.448 127.868C160.202 127.769 159.938 127.719 159.673 127.723Z" fill="white" stroke="#263238" stroke-linecap="round" stroke-linejoin="round"/>
<path d="M170.086 127.723H165.744C165.212 127.723 164.701 127.933 164.325 128.309C163.948 128.685 163.735 129.195 163.734 129.727V130.84C163.734 133.149 165.603 136.079 167.912 136.079C170.221 136.079 172.09 133.149 172.09 130.84V129.727C172.09 129.195 171.879 128.685 171.503 128.31C171.127 127.934 170.618 127.723 170.086 127.723Z" fill="white" stroke="#263238" stroke-linecap="round" stroke-linejoin="round"/>
<path d="M180.493 127.723H176.151C175.62 127.723 175.11 127.934 174.734 128.31C174.358 128.685 174.147 129.195 174.147 129.727V130.84C174.147 133.149 176.016 136.079 178.319 136.079C180.622 136.079 182.498 133.149 182.498 130.84V129.727C182.498 129.195 182.286 128.685 181.911 128.31C181.535 127.934 181.025 127.723 180.493 127.723Z" fill="white" stroke="#263238" stroke-linecap="round" stroke-linejoin="round"/>
<path d="M190.901 127.723H186.559C186.027 127.723 185.517 127.934 185.141 128.31C184.766 128.685 184.554 129.195 184.554 129.727V130.84C184.554 133.149 186.424 136.079 188.733 136.079C191.041 136.079 192.905 133.149 192.905 130.84V129.727C192.905 129.195 192.694 128.685 192.318 128.31C191.942 127.934 191.432 127.723 190.901 127.723Z" fill="white" stroke="#263238" stroke-linecap="round" stroke-linejoin="round"/>
<path d="M71.1985 117.051H66.868C66.3365 117.051 65.8267 117.263 65.4509 117.638C65.075 118.014 64.8639 118.524 64.8639 119.056V120.169C64.8639 122.472 66.7332 125.408 69.0421 125.408C71.3509 125.408 73.2144 122.478 73.2144 120.169V119.056C73.2144 118.791 73.1622 118.53 73.0607 118.286C72.9593 118.042 72.8106 117.821 72.6233 117.634C72.4359 117.448 72.2136 117.301 71.9691 117.201C71.7246 117.101 71.4627 117.05 71.1985 117.051Z" fill="white" stroke="#263238" stroke-linecap="round" stroke-linejoin="round"/>
<path d="M81.6059 117.051H77.2636C76.7321 117.051 76.2224 117.263 75.8465 117.638C75.4707 118.014 75.2595 118.524 75.2595 119.056V120.169C75.2595 122.472 77.1289 125.408 79.4377 125.408C81.7465 125.408 83.6159 122.478 83.6159 120.169V119.056C83.6143 118.523 83.4019 118.014 83.0251 117.638C82.6483 117.262 82.138 117.051 81.6059 117.051Z" fill="white" stroke="#263238" stroke-linecap="round" stroke-linejoin="round"/>
<path d="M92.0192 117.051H87.677C87.1449 117.051 86.6345 117.262 86.2578 117.638C85.881 118.014 85.6685 118.523 85.667 119.056V120.169C85.667 122.472 87.5422 125.408 89.8452 125.408C92.1482 125.408 94.0233 122.478 94.0233 120.169V119.056C94.0233 118.524 93.8122 118.014 93.4364 117.638C93.0605 117.263 92.5508 117.051 92.0192 117.051Z" fill="white" stroke="#263238" stroke-linecap="round" stroke-linejoin="round"/>
<path d="M102.427 117.051H98.0843C97.5528 117.051 97.043 117.263 96.6672 117.638C96.2913 118.014 96.0802 118.524 96.0802 119.056V120.169C96.0802 122.472 97.9495 125.408 100.253 125.408C102.555 125.408 104.431 122.478 104.431 120.169V119.056C104.431 118.792 104.379 118.532 104.278 118.289C104.177 118.045 104.03 117.824 103.844 117.638C103.658 117.452 103.437 117.305 103.194 117.204C102.95 117.103 102.69 117.051 102.427 117.051Z" fill="white" stroke="#263238" stroke-linecap="round" stroke-linejoin="round"/>
<path d="M112.834 117.051H108.474C107.943 117.051 107.433 117.263 107.057 117.638C106.681 118.014 106.47 118.524 106.47 119.056V120.169C106.47 122.472 108.339 125.408 110.648 125.408C112.957 125.408 114.82 122.478 114.82 120.169V119.056C114.82 118.527 114.612 118.02 114.24 117.645C113.868 117.269 113.362 117.056 112.834 117.051Z" fill="white" stroke="#263238" stroke-linecap="round" stroke-linejoin="round"/>
<path d="M123.241 117.051H118.899C118.367 117.051 117.858 117.263 117.482 117.638C117.106 118.014 116.895 118.524 116.895 119.056V120.169C116.895 122.472 118.764 125.408 121.073 125.408C123.382 125.408 125.251 122.478 125.251 120.169V119.056C125.25 118.523 125.037 118.014 124.66 117.638C124.284 117.262 123.773 117.051 123.241 117.051Z" fill="white" stroke="#263238" stroke-linecap="round" stroke-linejoin="round"/>
<path d="M133.672 117.051H129.33C128.798 117.051 128.287 117.262 127.911 117.638C127.534 118.014 127.321 118.523 127.32 119.056V120.169C127.32 122.472 129.195 125.408 131.498 125.408C133.801 125.408 135.676 122.478 135.676 120.169V119.056C135.676 118.524 135.465 118.014 135.089 117.638C134.713 117.263 134.204 117.051 133.672 117.051Z" fill="white" stroke="#263238" stroke-linecap="round" stroke-linejoin="round"/>
<path d="M144.062 117.051H139.72C139.188 117.051 138.678 117.263 138.302 117.638C137.927 118.014 137.715 118.524 137.715 119.056V120.169C137.715 122.472 139.585 125.408 141.888 125.408C144.191 125.408 146.066 122.478 146.066 120.169V119.056C146.066 118.524 145.855 118.014 145.479 117.638C145.103 117.263 144.593 117.051 144.062 117.051Z" fill="white" stroke="#263238" stroke-linecap="round" stroke-linejoin="round"/>
<path d="M154.469 117.051H150.127C149.595 117.051 149.086 117.263 148.71 117.638C148.334 118.014 148.123 118.524 148.123 119.056V120.169C148.123 122.472 149.992 125.408 152.301 125.408C154.61 125.408 156.473 122.478 156.473 120.169V119.056C156.473 118.524 156.262 118.014 155.886 117.638C155.51 117.263 155.001 117.051 154.469 117.051Z" fill="white" stroke="#263238" stroke-linecap="round" stroke-linejoin="round"/>
<path d="M164.877 117.051H160.534C160.003 117.051 159.493 117.263 159.117 117.638C158.741 118.014 158.53 118.524 158.53 119.056V120.169C158.53 122.472 160.399 125.408 162.708 125.408C165.017 125.408 166.887 122.478 166.887 120.169V119.056C166.885 118.523 166.673 118.014 166.296 117.638C165.919 117.262 165.409 117.051 164.877 117.051Z" fill="white" stroke="#263238" stroke-linecap="round" stroke-linejoin="round"/>
<path d="M175.278 117.051H170.936C170.404 117.051 169.893 117.262 169.517 117.638C169.14 118.014 168.927 118.523 168.926 119.056V120.169C168.926 122.472 170.801 125.408 173.104 125.408C175.407 125.408 177.282 122.478 177.282 120.169V119.056C177.282 118.524 177.071 118.014 176.695 117.638C176.319 117.263 175.81 117.051 175.278 117.051Z" fill="white" stroke="#263238" stroke-linecap="round" stroke-linejoin="round"/>
<path d="M185.697 117.051H181.355C180.828 117.059 180.326 117.274 179.957 117.649C179.587 118.024 179.38 118.529 179.38 119.056V120.169C179.38 122.472 181.249 125.408 183.552 125.408C185.855 125.408 187.731 122.478 187.731 120.169V119.056C187.731 118.79 187.678 118.527 187.575 118.282C187.473 118.037 187.322 117.815 187.133 117.628C186.944 117.442 186.72 117.295 186.473 117.196C186.227 117.097 185.963 117.048 185.697 117.051Z" fill="white" stroke="#263238" stroke-linecap="round" stroke-linejoin="round"/>
<path d="M196.104 117.051H191.762C191.231 117.051 190.721 117.263 190.345 117.638C189.969 118.014 189.758 118.524 189.758 119.056V120.169C189.758 122.472 191.627 125.408 193.936 125.408C196.245 125.408 198.109 122.478 198.109 120.169V119.056C198.109 118.524 197.897 118.014 197.522 117.638C197.146 117.263 196.636 117.051 196.104 117.051Z" fill="white" stroke="#263238" stroke-linecap="round" stroke-linejoin="round"/>
<path d="M171.235 138.833H91.7261C90.6873 138.833 89.8451 139.675 89.8451 140.714V146.422C89.8451 147.461 90.6873 148.303 91.7261 148.303H171.235C172.274 148.303 173.116 147.461 173.116 146.422V140.714C173.116 139.675 172.274 138.833 171.235 138.833Z" fill="white" stroke="#263238" stroke-linecap="round" stroke-linejoin="round"/>
<path d="M181.882 139.39H177.54C177.008 139.39 176.499 139.601 176.123 139.977C175.747 140.353 175.536 140.862 175.536 141.394V142.507C175.536 144.816 177.405 147.746 179.714 147.746C182.023 147.746 183.886 144.816 183.886 142.507V141.394C183.886 140.862 183.675 140.353 183.299 139.977C182.924 139.601 182.414 139.39 181.882 139.39Z" fill="white" stroke="#263238" stroke-linecap="round" stroke-linejoin="round"/>
<path d="M85.4208 139.39H81.0786C80.5471 139.39 80.0373 139.601 79.6615 139.977C79.2856 140.353 79.0745 140.862 79.0745 141.394V142.507C79.0745 144.816 80.9438 147.746 83.2526 147.746C85.5615 147.746 87.4308 144.816 87.4308 142.507V141.394C87.4293 140.862 87.2168 140.352 86.84 139.976C86.4633 139.601 85.9529 139.39 85.4208 139.39Z" fill="white" stroke="#263238" stroke-linecap="round" stroke-linejoin="round"/>
<path opacity="0.2" d="M76.6426 108.847C76.8529 108.848 77.0627 108.868 77.2696 108.906C77.2696 108.865 77.2696 108.824 77.2696 108.783V107.67C77.268 107.439 77.1754 107.218 77.0118 107.056C76.8482 106.893 76.627 106.802 76.3964 106.802H72.0542C71.8246 106.804 71.6049 106.896 71.4426 107.058C71.2803 107.22 71.1884 107.44 71.1869 107.67V108.783C71.1869 110.383 72.3589 112.399 73.7419 112.803C73.3141 111.027 74.2751 108.847 76.6426 108.847Z" fill="black"/>
<path opacity="0.2" d="M87.2843 108.549C87.417 108.539 87.5501 108.539 87.6828 108.549V107.646C87.6812 107.417 87.5894 107.197 87.4271 107.035C87.2647 106.872 87.045 106.78 86.8155 106.779H82.4732C82.2427 106.779 82.0215 106.87 81.8579 107.032C81.6943 107.195 81.6016 107.416 81.6001 107.646V108.759C81.6001 110.517 82.9889 112.715 84.5301 112.861C83.821 111.045 84.7528 108.549 87.2843 108.549Z" fill="black"/>
<path opacity="0.2" d="M98.0022 108.396H98.0901V107.664C98.0901 107.434 97.9987 107.213 97.8361 107.05C97.6735 106.888 97.4529 106.796 97.2228 106.796H92.8806C92.65 106.796 92.4288 106.888 92.2653 107.05C92.1017 107.213 92.009 107.433 92.0074 107.664V108.777C92.0074 110.564 93.4842 112.879 95.0488 112.879C95.1249 112.885 95.2013 112.885 95.2773 112.879C94.4921 111.027 95.4004 108.396 98.0022 108.396Z" fill="black"/>
<path opacity="0.2" d="M107.747 108.097C107.991 108.09 108.235 108.11 108.474 108.156V107.646C108.474 107.416 108.383 107.195 108.22 107.033C108.057 106.87 107.837 106.779 107.607 106.779H103.264C103.034 106.779 102.814 106.87 102.651 107.033C102.489 107.195 102.397 107.416 102.397 107.646V108.759C102.397 110.435 103.686 112.568 105.14 112.861C104.143 111.021 105.005 108.097 107.747 108.097Z" fill="black"/>
<path opacity="0.2" d="M118.688 108.097H118.911V107.658C118.909 107.427 118.816 107.207 118.653 107.044C118.489 106.882 118.268 106.791 118.038 106.791H113.695C113.466 106.792 113.246 106.884 113.084 107.046C112.921 107.209 112.83 107.428 112.828 107.658V108.771C112.828 110.559 114.305 112.873 115.869 112.873C115.949 112.879 116.03 112.879 116.11 112.873C115.084 111.027 115.946 108.097 118.688 108.097Z" fill="black"/>
<path opacity="0.2" d="M129.183 108.156H129.318V107.646C129.316 107.417 129.225 107.197 129.062 107.035C128.9 106.872 128.68 106.78 128.451 106.779H124.108C123.878 106.779 123.657 106.87 123.493 107.032C123.33 107.195 123.237 107.416 123.235 107.646V108.759C123.235 110.547 124.712 112.861 126.277 112.861C126.372 112.87 126.468 112.87 126.564 112.861C125.603 111.016 126.476 108.156 129.183 108.156Z" fill="black"/>
<path opacity="0.2" d="M139.227 108.097C139.394 108.1 139.56 108.111 139.725 108.132V107.67C139.725 107.44 139.634 107.219 139.471 107.056C139.309 106.894 139.088 106.802 138.858 106.802H134.516C134.286 106.802 134.065 106.894 133.903 107.056C133.74 107.219 133.649 107.44 133.649 107.67V108.783C133.649 110.541 135.102 112.85 136.655 112.885C135.618 111.045 136.473 108.097 139.227 108.097Z" fill="black"/>
<path opacity="0.2" d="M150.133 108.25V107.664C150.133 107.434 150.041 107.213 149.879 107.05C149.716 106.888 149.496 106.796 149.266 106.796H144.923C144.693 106.796 144.473 106.888 144.31 107.05C144.147 107.213 144.056 107.434 144.056 107.664V108.777C144.056 110.564 145.527 112.879 147.097 112.879C147.255 112.877 147.411 112.851 147.56 112.803C146.716 110.998 147.578 108.332 150.133 108.25Z" fill="black"/>
<path opacity="0.2" d="M159.69 108.021C159.979 108.02 160.267 108.058 160.546 108.132V107.67C160.544 107.439 160.452 107.218 160.288 107.056C160.125 106.893 159.903 106.802 159.673 106.802H155.354C155.125 106.804 154.905 106.896 154.742 107.058C154.58 107.22 154.488 107.44 154.487 107.67V108.783C154.487 110.435 155.741 112.522 157.165 112.838C156.069 111.004 156.919 108.021 159.69 108.021Z" fill="black"/>
<path opacity="0.2" d="M170.332 108.021C170.541 108.022 170.749 108.041 170.953 108.08V107.67C170.952 107.44 170.86 107.22 170.698 107.058C170.535 106.896 170.316 106.804 170.086 106.802H165.744C165.513 106.802 165.292 106.893 165.129 107.056C164.965 107.218 164.872 107.439 164.871 107.67V108.783C164.871 110.541 166.277 112.774 167.801 112.885C166.699 111.045 167.543 108.021 170.332 108.021Z" fill="black"/>
<path opacity="0.2" d="M180.904 108.32C181.057 108.322 181.209 108.334 181.361 108.355V107.67C181.361 107.44 181.269 107.219 181.107 107.056C180.944 106.894 180.723 106.802 180.493 106.802H176.151C176.037 106.802 175.925 106.825 175.819 106.868C175.714 106.912 175.618 106.976 175.538 107.056C175.457 107.137 175.394 107.232 175.35 107.338C175.306 107.443 175.284 107.556 175.284 107.67V108.783C175.284 110.541 176.69 112.768 178.214 112.885C177.364 111.033 178.261 108.32 180.904 108.32Z" fill="black"/>
<path opacity="0.2" d="M191.768 108.185V107.67C191.768 107.44 191.677 107.219 191.514 107.056C191.351 106.894 191.131 106.802 190.901 106.802H186.559C186.329 106.802 186.108 106.894 185.945 107.056C185.783 107.219 185.691 107.44 185.691 107.67V108.783C185.691 110.57 187.162 112.885 188.733 112.885C188.959 112.882 189.182 112.834 189.389 112.744C188.557 110.975 189.342 108.384 191.768 108.185Z" fill="black"/>
<path opacity="0.2" d="M76.9414 129.838C77.0527 129.832 77.1642 129.832 77.2754 129.838V129.715C77.2739 129.484 77.1812 129.264 77.0176 129.101C76.854 128.939 76.6328 128.848 76.4023 128.848H72.06C71.8305 128.849 71.6108 128.941 71.4485 129.103C71.2861 129.266 71.1943 129.485 71.1927 129.715V130.828C71.1927 132.616 72.6695 134.93 74.2341 134.93C74.3423 134.928 74.4501 134.916 74.5564 134.895C73.2437 133.114 74.0407 129.838 76.9414 129.838Z" fill="black"/>
<path opacity="0.2" d="M87.1378 129.838C87.3204 129.839 87.5027 129.854 87.6828 129.885V129.733C87.6812 129.503 87.5894 129.283 87.4271 129.121C87.2647 128.959 87.045 128.867 86.8155 128.865H82.4732C82.2427 128.865 82.0215 128.956 81.8579 129.119C81.6943 129.281 81.6016 129.502 81.6001 129.733V130.846C81.6001 132.633 83.0768 134.948 84.6414 134.948H84.7704C83.4284 133.143 84.2195 129.838 87.1378 129.838Z" fill="black"/>
<path opacity="0.2" d="M97.4807 129.985C97.6772 129.985 97.8733 130.003 98.0667 130.037V129.727C98.0667 129.613 98.0443 129.5 98.0007 129.395C97.9571 129.29 97.8932 129.194 97.8127 129.113C97.7321 129.033 97.6365 128.969 97.5313 128.925C97.4261 128.882 97.3133 128.859 97.1994 128.859H92.8572C92.6266 128.859 92.4054 128.951 92.2418 129.113C92.0782 129.276 91.9856 129.496 91.984 129.727V130.84C91.984 132.598 93.4373 134.901 94.9902 134.942C93.8241 133.12 94.6386 129.985 97.4807 129.985Z" fill="black"/>
<path opacity="0.2" d="M108.046 130.061C108.197 130.061 108.348 130.071 108.497 130.09V129.727C108.497 129.613 108.475 129.5 108.431 129.395C108.388 129.29 108.324 129.194 108.243 129.113C108.163 129.033 108.067 128.969 107.962 128.925C107.857 128.882 107.744 128.859 107.63 128.859H103.288C103.174 128.859 103.061 128.882 102.956 128.925C102.851 128.969 102.755 129.033 102.675 129.113C102.594 129.194 102.53 129.29 102.487 129.395C102.443 129.5 102.421 129.613 102.421 129.727V130.84C102.421 132.627 103.892 134.942 105.462 134.942H105.532C104.407 133.108 105.245 130.061 108.046 130.061Z" fill="black"/>
<path opacity="0.2" d="M118.243 129.838C118.467 129.838 118.691 129.86 118.911 129.902V129.733C118.909 129.502 118.816 129.281 118.653 129.119C118.489 128.956 118.268 128.865 118.038 128.865H113.695C113.466 128.867 113.246 128.959 113.084 129.121C112.921 129.283 112.83 129.503 112.828 129.733V130.846C112.828 132.633 114.305 134.948 115.869 134.948C114.533 133.155 115.318 129.838 118.243 129.838Z" fill="black"/>
<path opacity="0.2" d="M128.808 129.908C128.979 129.91 129.149 129.923 129.318 129.949V129.727C129.316 129.497 129.225 129.277 129.062 129.115C128.9 128.953 128.68 128.861 128.451 128.859H124.108C123.878 128.859 123.657 128.951 123.493 129.113C123.33 129.276 123.237 129.496 123.235 129.727V130.84C123.235 132.627 124.712 134.942 126.277 134.942H126.388C125.122 133.125 125.931 129.908 128.808 129.908Z" fill="black"/>
<path opacity="0.2" d="M139.602 130.131H139.725V129.721C139.725 129.491 139.634 129.27 139.471 129.108C139.309 128.945 139.088 128.854 138.858 128.854H134.516C134.286 128.854 134.065 128.945 133.903 129.108C133.74 129.27 133.649 129.491 133.649 129.721V130.834C133.649 132.621 135.119 134.936 136.684 134.936C136.799 134.934 136.912 134.921 137.024 134.895C136.016 133.067 136.854 130.131 139.602 130.131Z" fill="black"/>
<path opacity="0.2" d="M150.08 129.908H150.115V129.727C150.115 129.613 150.093 129.5 150.049 129.395C150.006 129.29 149.942 129.194 149.861 129.113C149.781 129.033 149.685 128.969 149.58 128.925C149.475 128.882 149.362 128.859 149.248 128.859H144.923C144.809 128.859 144.697 128.882 144.591 128.925C144.486 128.969 144.391 129.033 144.31 129.113C144.229 129.194 144.166 129.29 144.122 129.395C144.078 129.5 144.056 129.613 144.056 129.727V130.84C144.056 132.627 145.527 134.942 147.097 134.942C147.277 134.939 147.455 134.908 147.625 134.848C146.435 133.032 147.261 129.908 150.08 129.908Z" fill="black"/>
<path opacity="0.2" d="M160.212 129.686H160.54C160.531 129.461 160.436 129.249 160.274 129.093C160.113 128.937 159.897 128.849 159.673 128.848H155.354C155.124 128.849 154.905 128.941 154.742 129.103C154.58 129.266 154.488 129.485 154.487 129.715V130.828C154.487 132.616 155.963 134.93 157.528 134.93C157.671 134.926 157.813 134.904 157.95 134.866C156.479 133.12 157.241 129.686 160.212 129.686Z" fill="black"/>
<path opacity="0.2" d="M170.936 129.838V129.733C170.934 129.503 170.842 129.283 170.68 129.121C170.518 128.959 170.298 128.867 170.069 128.865H165.726C165.496 128.865 165.275 128.956 165.111 129.119C164.947 129.281 164.855 129.502 164.853 129.733V130.846C164.853 132.633 166.33 134.948 167.895 134.948C168.094 134.945 168.292 134.909 168.481 134.842C167.256 133.026 168.064 129.838 170.936 129.838Z" fill="black"/>
<path opacity="0.2" d="M181.138 129.838H181.372V129.721C181.372 129.607 181.35 129.494 181.306 129.389C181.263 129.284 181.199 129.188 181.118 129.108C181.038 129.027 180.942 128.963 180.837 128.92C180.732 128.876 180.619 128.854 180.505 128.854H176.163C175.933 128.854 175.712 128.945 175.55 129.108C175.387 129.27 175.296 129.491 175.296 129.721V130.834C175.296 132.621 176.767 134.936 178.331 134.936C178.47 134.934 178.608 134.915 178.741 134.878C177.435 133.084 178.237 129.838 181.138 129.838Z" fill="black"/>
<path opacity="0.2" d="M191.393 130.283C191.522 130.283 191.651 130.283 191.768 130.283V129.697C191.768 129.467 191.677 129.247 191.514 129.084C191.351 128.921 191.131 128.83 190.901 128.83H186.559C186.329 128.83 186.108 128.921 185.945 129.084C185.783 129.247 185.691 129.467 185.691 129.697V130.811C185.691 132.598 187.162 134.913 188.733 134.913C187.824 133.096 188.703 130.283 191.393 130.283Z" fill="black"/>
<path opacity="0.2" d="M71.9955 119.343H72.0717V119.056C72.0701 118.825 71.9775 118.604 71.8139 118.442C71.6503 118.279 71.4291 118.188 71.1986 118.188H66.868C66.638 118.188 66.4174 118.28 66.2547 118.442C66.0921 118.605 66.0007 118.826 66.0007 119.056V120.169C66.0007 121.956 67.4716 124.271 69.0421 124.271C69.193 124.267 69.3427 124.244 69.4874 124.201C68.3623 122.372 69.212 119.343 71.9955 119.343Z" fill="black"/>
<path opacity="0.2" d="M82.186 119.343H82.479V119.044C82.4775 118.813 82.3848 118.593 82.2212 118.43C82.0577 118.268 81.8365 118.177 81.6059 118.177H77.2636C77.0341 118.178 76.8144 118.27 76.6521 118.432C76.4898 118.595 76.3979 118.814 76.3964 119.044V120.157C76.3964 121.944 77.8731 124.259 79.4377 124.259C79.5236 124.265 79.6097 124.265 79.6955 124.259C78.5411 122.425 79.3732 119.343 82.186 119.343Z" fill="black"/>
<path opacity="0.2" d="M92.8336 119.343H92.8864V119.056C92.8848 118.826 92.793 118.606 92.6307 118.444C92.4684 118.282 92.2486 118.19 92.0191 118.188H87.6768C87.5617 118.187 87.4474 118.208 87.3405 118.251C87.2336 118.294 87.1362 118.357 87.0539 118.438C86.9717 118.518 86.9062 118.615 86.8612 118.721C86.8163 118.827 86.7928 118.94 86.792 119.056V120.169C86.792 121.956 88.2687 124.271 89.8333 124.271C89.9906 124.269 90.1467 124.243 90.2963 124.195C89.2004 122.372 90.0384 119.343 92.8336 119.343Z" fill="black"/>
<path opacity="0.2" d="M103.024 119.29H103.294V119.067C103.294 118.837 103.202 118.617 103.04 118.454C102.877 118.291 102.657 118.2 102.427 118.2H98.0843C97.8543 118.2 97.6337 118.291 97.4711 118.454C97.3084 118.617 97.217 118.837 97.217 119.067V120.181C97.217 121.968 98.6879 124.283 100.253 124.283C100.359 124.28 100.465 124.269 100.569 124.248C99.3559 122.425 100.176 119.29 103.024 119.29Z" fill="black"/>
<path opacity="0.2" d="M113.162 119.343C113.349 119.343 113.535 119.358 113.719 119.39V119.056C113.719 118.826 113.627 118.605 113.465 118.442C113.302 118.28 113.082 118.188 112.852 118.188H108.474C108.244 118.188 108.023 118.28 107.861 118.442C107.698 118.605 107.607 118.826 107.607 119.056V120.169C107.607 121.956 109.078 124.271 110.648 124.271C109.488 122.448 110.314 119.343 113.162 119.343Z" fill="black"/>
<path opacity="0.2" d="M123.64 118.968C123.796 118.968 123.953 118.978 124.109 118.997C124.092 118.778 123.994 118.573 123.833 118.423C123.672 118.273 123.461 118.189 123.241 118.188H118.899C118.669 118.19 118.45 118.282 118.287 118.444C118.125 118.606 118.033 118.826 118.032 119.056V120.169C118.032 121.956 119.508 124.271 121.073 124.271C121.186 124.269 121.297 124.255 121.407 124.23C119.884 122.489 120.628 118.968 123.64 118.968Z" fill="black"/>
<path opacity="0.2" d="M134.129 119.413C134.264 119.413 134.399 119.413 134.522 119.413V119.032C134.52 118.803 134.428 118.583 134.266 118.421C134.104 118.258 133.884 118.166 133.654 118.165H129.312C129.082 118.165 128.86 118.256 128.697 118.418C128.533 118.581 128.441 118.802 128.439 119.032V120.145C128.439 121.933 129.916 124.247 131.48 124.247H131.598C130.502 122.431 131.328 119.413 134.129 119.413Z" fill="black"/>
<path opacity="0.2" d="M144.929 119.056C144.929 118.826 144.838 118.605 144.675 118.442C144.512 118.28 144.292 118.188 144.062 118.188H139.72C139.606 118.188 139.493 118.211 139.388 118.254C139.282 118.298 139.187 118.362 139.106 118.442C139.026 118.523 138.962 118.618 138.918 118.724C138.875 118.829 138.852 118.942 138.852 119.056V120.169C138.852 121.956 140.323 124.271 141.888 124.271C142.2 124.263 142.506 124.179 142.778 124.025C141.595 122.279 142.31 119.29 144.929 119.056Z" fill="black"/>
<path opacity="0.2" d="M155.354 119.29V119.067C155.354 118.837 155.263 118.617 155.1 118.454C154.937 118.291 154.717 118.2 154.487 118.2H150.145C149.915 118.2 149.694 118.291 149.531 118.454C149.369 118.617 149.277 118.837 149.277 119.067V120.181C149.277 121.968 150.748 124.283 152.319 124.283C152.57 124.279 152.818 124.221 153.045 124.113C151.973 122.325 152.741 119.437 155.354 119.29Z" fill="black"/>
<path opacity="0.2" d="M165.386 119.114C165.509 119.114 165.632 119.114 165.75 119.114V119.038C165.748 118.807 165.655 118.587 165.492 118.424C165.328 118.262 165.107 118.171 164.877 118.171H160.534C160.305 118.172 160.085 118.264 159.923 118.426C159.76 118.589 159.669 118.808 159.667 119.038V120.151C159.667 121.939 161.144 124.253 162.708 124.253C162.819 124.252 162.929 124.238 163.036 124.212C161.677 122.448 162.456 119.114 165.386 119.114Z" fill="black"/>
<path opacity="0.2" d="M176.157 119.495V119.056C176.156 118.826 176.064 118.606 175.901 118.444C175.739 118.282 175.519 118.19 175.29 118.188H170.948C170.717 118.188 170.496 118.279 170.332 118.442C170.169 118.604 170.076 118.825 170.074 119.056V120.169C170.074 121.956 171.551 124.271 173.116 124.271C173.293 124.268 173.469 124.238 173.637 124.183C172.682 122.366 173.52 119.565 176.157 119.495Z" fill="black"/>
<path opacity="0.2" d="M186.072 119.19C186.237 119.193 186.401 119.204 186.564 119.225V119.056C186.564 118.825 186.473 118.605 186.31 118.442C186.148 118.28 185.927 118.188 185.697 118.188H181.355C181.241 118.188 181.128 118.211 181.023 118.254C180.918 118.298 180.822 118.362 180.742 118.442C180.661 118.523 180.597 118.618 180.554 118.724C180.51 118.829 180.488 118.942 180.488 119.056V120.169C180.488 121.956 181.959 124.271 183.523 124.271C183.578 124.274 183.633 124.274 183.687 124.271C182.375 122.46 183.172 119.19 186.072 119.19Z" fill="black"/>
<path opacity="0.2" d="M196.567 119.642C196.702 119.632 196.837 119.632 196.972 119.642V119.056C196.972 118.826 196.88 118.605 196.718 118.442C196.555 118.28 196.335 118.188 196.105 118.188H191.762C191.532 118.188 191.312 118.28 191.149 118.442C190.986 118.605 190.895 118.826 190.895 119.056V120.169C190.895 121.927 192.354 124.271 193.919 124.271C193.005 122.425 193.889 119.642 196.567 119.642Z" fill="black"/>
<path opacity="0.2" d="M171.979 146.457V140.679C171.979 140.287 171.661 139.97 171.27 139.97H91.691C91.2994 139.97 90.982 140.287 90.982 140.679V146.457C90.982 146.849 91.2994 147.166 91.691 147.166H171.27C171.661 147.166 171.979 146.849 171.979 146.457Z" fill="black"/>
<path opacity="0.2" d="M182.75 141.974V141.388C182.75 141.274 182.727 141.161 182.684 141.056C182.64 140.951 182.576 140.855 182.496 140.775C182.415 140.694 182.319 140.63 182.214 140.587C182.109 140.543 181.996 140.521 181.882 140.521H177.54C177.426 140.521 177.313 140.543 177.208 140.587C177.103 140.63 177.007 140.694 176.927 140.775C176.846 140.855 176.782 140.951 176.739 141.056C176.695 141.161 176.673 141.274 176.673 141.388V142.501C176.673 144.289 178.144 146.603 179.714 146.603C179.845 146.6 179.974 146.583 180.101 146.551C179.234 144.722 180.118 141.992 182.75 141.974Z" fill="black"/>
<path opacity="0.2" d="M85.7842 141.599C85.9549 141.6 86.1253 141.614 86.294 141.64V141.394C86.2924 141.163 86.1998 140.943 86.0362 140.78C85.8726 140.618 85.6514 140.527 85.4208 140.527H81.0786C80.849 140.528 80.6293 140.62 80.467 140.782C80.3047 140.945 80.2128 141.164 80.2113 141.394V142.507C80.2113 144.295 81.688 146.609 83.2526 146.609H83.3523C82.1041 144.793 82.9245 141.599 85.7842 141.599Z" fill="black"/>
<path opacity="0.2" d="M59.6603 19.377H203.301C204.288 19.377 205.234 19.769 205.932 20.4668C206.63 21.1647 207.022 22.1112 207.022 23.0981V55.9141H55.9392V23.0981C55.9392 22.1112 56.3313 21.1647 57.0291 20.4668C57.7269 19.769 58.6734 19.377 59.6603 19.377Z" fill="black"/>
<path d="M191.557 25.5651H71.4271C70.4253 17.2459 68.6599 9.03656 66.1531 1.04102H196.855C194.308 9.02743 192.534 17.2398 191.557 25.5651Z" fill="white"/>
<path opacity="0.2" d="M192.741 17.6599C191.868 22.43 191.569 25.5651 191.569 25.5651H71.4389C71.4389 25.5651 71.1341 22.4886 70.2375 17.6599H192.741Z" fill="black"/>
<path d="M191.557 25.5651H71.4271C70.4253 17.2459 68.6599 9.03656 66.1531 1.04102H196.855C194.308 9.02743 192.534 17.2398 191.557 25.5651V25.5651Z" stroke="#263238" stroke-linecap="round" stroke-linejoin="round"/>
<path d="M189.922 46.2158H72.0718V94.7015H189.922V46.2158Z" fill="#263238"/>
<g opacity="0.4">
<path opacity="0.4" d="M128.058 90.4118L128.679 90.4411C129.461 78.35 130.242 66.2393 131.023 54.1091C130.027 66.2432 129.039 78.3441 128.058 90.4118Z" fill="white"/>
<path opacity="0.4" d="M126.054 90.2595L126.675 90.3122C128.031 78.2992 129.385 66.2335 130.736 54.115C129.177 66.2413 127.617 78.2894 126.054 90.2595Z" fill="white"/>
<path opacity="0.4" d="M124.103 90.0368C124.308 90.0368 124.519 90.0837 124.724 90.1071C126.646 78.223 128.58 66.2237 130.525 54.1091C128.377 66.2354 126.236 78.2113 124.103 90.0368Z" fill="white"/>
<path opacity="0.4" d="M122.128 89.7379L122.755 89.8375C125.247 78.1175 127.759 66.2022 130.291 54.0916C127.556 66.2139 124.835 78.0961 122.128 89.7379Z" fill="white"/>
<path opacity="0.4" d="M120.159 89.3688L120.792 89.4977C123.839 78.0004 126.927 66.2022 130.056 54.1033C126.728 66.2061 123.429 77.9613 120.159 89.3688Z" fill="white"/>
<path opacity="0.4" d="M118.202 88.9234L118.835 89.0816C122.427 77.8421 126.119 66.1866 129.822 54.0974C125.902 66.1866 121.993 77.7894 118.202 88.9234Z" fill="white"/>
<path opacity="0.4" d="M116.25 88.396L116.889 88.5835C120.991 77.6605 125.286 66.1632 129.588 54.0857C125.07 66.1632 120.569 77.596 116.25 88.396Z" fill="white"/>
<path opacity="0.4" d="M114.334 87.7983L114.973 88.0034C119.608 77.4554 124.472 66.1397 129.371 54.0798C124.232 66.1397 119.145 77.3733 114.334 87.7983Z" fill="white"/>
<path opacity="0.4" d="M112.388 87.1127L113.033 87.3471C118.166 77.1975 123.622 66.1104 129.119 54.0681C123.394 66.1104 117.709 77.0979 112.388 87.1127Z" fill="white"/>
<path opacity="0.4" d="M110.49 86.3391L111.134 86.6087C116.737 76.9163 122.784 66.0987 128.884 54.0564C122.538 66.0753 116.274 76.8342 110.49 86.3391Z" fill="white"/>
<path opacity="0.4" d="M108.609 85.4719L109.253 85.7824C115.301 76.6115 121.94 66.0342 128.65 54.0447C121.7 66.0342 114.832 76.5119 108.609 85.4719Z" fill="white"/>
<path opacity="0.4" d="M106.757 84.5108L107.402 84.8624C113.848 76.2658 121.097 65.9874 128.416 54.0271C121.74 64.5642 114.511 74.7398 106.757 84.5108Z" fill="white"/>
<path opacity="0.4" d="M104.958 83.456C105.169 83.5908 105.392 83.7138 105.608 83.8428C113.741 74.37 121.287 64.409 128.205 54.0154C121.126 64.3398 113.359 74.1756 104.958 83.456Z" fill="white"/>
<path opacity="0.4" d="M103.159 82.2899L103.798 82.7294C112.573 73.793 120.647 64.1932 127.947 54.0154C120.496 64.1218 112.203 73.5803 103.159 82.2899Z" fill="white"/>
<path opacity="0.4" d="M127.712 53.9802C118.284 65.7881 109.06 74.7949 101.442 81.0183L102.069 81.5046C111.474 73.1676 120.061 63.9509 127.712 53.9802Z" fill="white"/>
<path opacity="0.4" d="M127.478 53.9626C117.434 65.6826 107.619 74.25 99.772 79.6412L100.393 80.1744C108.134 74.4433 117.698 65.7119 127.478 53.9626Z" fill="white"/>
<path opacity="0.4" d="M127.226 53.9451C116.578 65.5772 106.206 73.6405 98.1838 78.141C98.3772 78.3402 98.5706 78.5395 98.7698 78.727C106.716 73.8632 116.86 65.6065 127.226 53.9451Z" fill="white"/>
<path opacity="0.4" d="M127.009 53.9216C115.781 65.4365 104.87 72.9666 96.7189 76.5412L97.3049 77.18C105.374 73.2128 116.039 65.4717 127.009 53.9216Z" fill="white"/>
<path opacity="0.4" d="M95.3711 74.8301C95.541 75.0645 95.7168 75.2989 95.8926 75.5275C104.067 72.5096 115.231 65.3076 126.781 53.9041C114.996 65.2549 103.593 72.2224 95.3711 74.8301Z" fill="white"/>
<path opacity="0.4" d="M94.1757 73.0487C94.328 73.2948 94.4862 73.5409 94.6445 73.787C102.848 71.7243 114.498 65.0967 126.546 53.863C114.264 65.0322 102.409 71.4137 94.1757 73.0487Z" fill="white"/>
<path opacity="0.4" d="M93.156 71.2379C93.2849 71.4958 93.4197 71.7478 93.5545 72.0056C101.758 70.8922 113.807 64.8505 126.312 53.8689C113.602 64.7451 101.36 70.5347 93.156 71.2379Z" fill="white"/>
<path opacity="0.4" d="M92.3239 69.3862C92.4293 69.644 92.5407 69.9077 92.652 70.1656C100.809 69.9663 113.162 64.5224 126.054 53.8279C113.016 64.411 100.469 69.5913 92.3239 69.3862Z" fill="white"/>
<path opacity="0.4" d="M130.045 90.4939H130.66C130.847 78.3832 131.043 66.2569 131.246 54.115C130.836 66.2491 130.435 78.3754 130.045 90.4939Z" fill="white"/>
<path opacity="0.4" d="M132.025 90.5056H132.646C132.256 78.3949 131.865 66.2686 131.474 54.1267L132.025 90.5056Z" fill="white"/>
<path opacity="0.4" d="M134.006 90.4528H134.627C133.65 78.3812 132.674 66.2706 131.697 54.1208C132.467 66.255 133.236 78.3656 134.006 90.4528Z" fill="white"/>
<path opacity="0.4" d="M136.016 90.3298L136.637 90.2829C135.075 78.3012 133.512 66.2452 131.949 54.115C133.293 66.2452 134.649 78.3168 136.016 90.3298Z" fill="white"/>
<path opacity="0.4" d="M137.967 90.1423L138.589 90.0661C136.463 78.225 134.315 66.2393 132.143 54.1091C134.1 66.2393 136.041 78.2504 137.967 90.1423Z" fill="white"/>
<path opacity="0.4" d="M139.942 89.8786L140.569 89.7848C137.874 78.1234 135.149 66.2315 132.395 54.1091C134.926 66.2354 137.442 78.1586 139.942 89.8786Z" fill="white"/>
<path opacity="0.4" d="M141.911 89.5446L142.538 89.4273C139.284 77.9964 135.981 66.2218 132.629 54.1033C135.746 66.2218 138.841 78.0355 141.911 89.5446Z" fill="white"/>
<path opacity="0.4" d="M143.868 89.1344L144.507 88.9879C140.71 77.8539 136.795 66.21 132.863 54.0974C136.579 66.212 140.247 77.891 143.868 89.1344Z" fill="white"/>
<path opacity="0.4" d="M145.826 88.6538L146.459 88.4722C142.134 77.6488 137.627 66.2042 133.098 54.0857C137.405 66.1925 141.694 77.6839 145.826 88.6538Z" fill="white"/>
<path opacity="0.4" d="M147.765 88.0854L148.41 87.8745C143.564 77.4319 138.448 66.1925 133.332 54.0798C138.243 66.169 143.118 77.4964 147.765 88.0854Z" fill="white"/>
<path opacity="0.4" d="M149.693 87.435L150.338 87.1947C145.005 77.18 139.309 66.1456 133.567 54.0681C139.081 66.1456 144.548 77.2561 149.693 87.435Z" fill="white"/>
<path opacity="0.4" d="M151.604 86.7025C151.82 86.6087 152.043 86.5266 152.254 86.4329C146.453 76.9045 140.159 66.1163 133.801 54.0564C139.925 66.1163 145.978 76.9866 151.604 86.7025Z" fill="white"/>
<path opacity="0.4" d="M153.496 85.8879L154.147 85.5773C147.906 76.594 141.009 66.087 134.035 54.0505C140.768 66.0753 147.425 76.6877 153.496 85.8879Z" fill="white"/>
<path opacity="0.4" d="M155.354 84.9679C155.571 84.8565 155.788 84.7335 155.999 84.6163C148.217 74.8111 140.959 64.6004 134.258 54.0271C141.618 66.0401 148.908 76.3478 155.354 84.9679Z" fill="white"/>
<path opacity="0.4" d="M157.194 83.9541L157.85 83.5673C149.413 74.2529 141.613 64.3799 134.504 54.0154C141.448 64.45 149.025 74.4484 157.194 83.9541Z" fill="white"/>
<path opacity="0.4" d="M134.739 53.9978C142.067 64.2232 150.176 73.8663 158.993 82.8407L159.644 82.4012C150.554 73.6545 142.222 64.1526 134.739 53.9978Z" fill="white"/>
<path opacity="0.4" d="M134.973 53.9802C142.66 63.9988 151.295 73.2534 160.757 81.616C160.974 81.4578 161.179 81.2937 161.39 81.1296C153.748 74.9063 144.454 65.8584 134.973 53.9802Z" fill="white"/>
<path opacity="0.4" d="M135.207 53.9626C145.052 65.7823 154.674 74.5488 162.439 80.2799C162.65 80.1041 162.867 79.9283 163.072 79.7466C155.196 74.3672 145.316 65.7764 135.207 53.9626Z" fill="white"/>
<path opacity="0.4" d="M135.43 53.9451C145.89 65.6651 156.087 73.9804 164.056 78.8383C164.261 78.645 164.455 78.4399 164.642 78.2523C156.614 73.7577 146.166 65.6651 135.43 53.9451Z" fill="white"/>
<path opacity="0.4" d="M135.676 53.9216C146.734 65.5596 157.481 73.3358 165.562 77.2737L166.148 76.6291C157.997 73.0956 146.998 65.5362 135.676 53.9216Z" fill="white"/>
<path opacity="0.4" d="M167.01 75.6095C167.191 75.3751 167.361 75.1407 167.537 74.9004C159.304 72.3513 147.795 65.3604 135.893 53.9041C147.543 65.4072 158.817 72.6326 167.01 75.6095Z" fill="white"/>
<path opacity="0.4" d="M168.281 73.8456L168.762 73.0955C160.517 71.5426 148.551 65.1435 136.139 53.8806C148.322 65.208 160.042 71.8532 168.281 73.8456Z" fill="white"/>
<path opacity="0.4" d="M169.418 72.0232C169.559 71.7653 169.693 71.5075 169.828 71.2438C161.624 70.6578 149.254 64.8623 136.426 53.8572C149.013 64.956 161.214 71.0094 169.418 72.0232Z" fill="white"/>
<path opacity="0.4" d="M136.602 53.8279C149.635 64.6454 162.152 70.0894 170.297 70.1714C170.414 69.9077 170.526 69.644 170.637 69.3803C162.503 69.7143 149.822 64.5282 136.602 53.8279Z" fill="white"/>
</g>
<path opacity="0.2" d="M114.334 54.9882C112.113 60.6841 114.516 77.2562 130.543 77.2562C146.57 77.2562 152.389 65.6123 151.738 58.4163L173.133 54.9706C173.133 54.9706 179.691 73.0897 165.767 85.7649C151.844 98.44 103.581 97.6197 93.3787 87.9858C83.1764 78.352 88.8372 59.3187 88.8372 59.3187L114.334 54.9882Z" fill="black"/>
<path d="M208.235 30.4114V26.4148C208.234 26.267 208.281 26.1229 208.369 26.0037C208.456 25.8845 208.58 25.7965 208.721 25.7527L211.651 24.8385V20.842C211.651 20.3633 211.841 19.9042 212.18 19.5657C212.518 19.2273 212.977 19.0371 213.456 19.0371H216.972C217.145 19.0338 217.313 19.098 217.44 19.2161C217.567 19.3342 217.643 19.4969 217.652 19.67V20.9592C217.652 21.1354 217.582 21.3044 217.458 21.4295C217.334 21.5546 217.166 21.6257 216.99 21.6272H212.518V25.5358C212.516 25.6537 212.485 25.7691 212.426 25.8715C212.368 25.9739 212.285 26.06 212.184 26.1218L209.688 27.6337V30.4172L208.235 30.4114Z" fill="#999999" stroke="#263238" stroke-linecap="round" stroke-linejoin="round"/>
<path d="M212.091 30.4114H208.235V41.9439H212.091V30.4114Z" fill="#263238"/>
<path d="M216.913 29.4327H212.091V42.9224H216.913V29.4327Z" fill="#757575"/>
<path opacity="0.2" d="M216.902 37.6484H212.091V42.9224H216.902V37.6484Z" fill="black"/>
<path d="M216.913 29.4327H212.091V42.9224H216.913V29.4327Z" stroke="#263238" stroke-linecap="round" stroke-linejoin="round"/>
<path d="M50.8702 41.938H54.7261V30.4055H50.8702V41.938Z" fill="#263238"/>
<path d="M46.0475 42.9166H50.8702V29.4269H46.0475V42.9166Z" fill="#757575"/>
<path opacity="0.2" d="M50.8761 37.6484H46.0533V42.7935H50.8761V37.6484Z" fill="black"/>
<path d="M46.0475 42.9166H50.8702V29.4269H46.0475V42.9166Z" stroke="#263238" stroke-linecap="round" stroke-linejoin="round"/>
<path d="M54.146 36.8632C54.4942 35.9496 54.5481 34.9501 54.3001 34.0044C54.0521 33.0588 53.5147 32.2143 52.763 31.5892L49.9268 29.2452C49.7463 29.0931 49.5365 28.9798 49.3103 28.9125C49.0841 28.8451 48.8465 28.8251 48.6122 28.8537C48.378 28.8823 48.1521 28.9589 47.9488 29.0787C47.7455 29.1985 47.569 29.3589 47.4304 29.5499L36.1851 45.0613C35.9711 45.3515 35.8561 45.7028 35.8569 46.0634V62.7234C35.8569 62.947 35.9013 63.1684 35.9876 63.3747C36.0739 63.581 36.2003 63.7681 36.3595 63.9251C36.5187 64.0821 36.7075 64.2059 36.915 64.2894C37.1225 64.3728 37.3445 64.4142 37.5681 64.411C38.0157 64.411 38.4449 64.2332 38.7614 63.9167C39.0779 63.6002 39.2557 63.171 39.2557 62.7234V49.1926C39.2568 48.8586 39.3612 48.5331 39.5546 48.2609L47.9637 36.5409C48.0373 36.438 48.1315 36.3515 48.2403 36.2869C48.3491 36.2222 48.4701 36.1809 48.5957 36.1655C48.7213 36.1501 48.8487 36.1609 48.9699 36.1973C49.0911 36.2336 49.2034 36.2948 49.2998 36.3768L50.8468 37.6894C51.2298 38.0145 51.7157 38.1931 52.2181 38.1934C52.6358 38.1909 53.0432 38.0627 53.387 37.8254C53.7309 37.5882 53.9954 37.2529 54.146 36.8632Z" fill="white" stroke="#263238" stroke-linecap="round" stroke-linejoin="round"/>
<path d="M51.8254 35.3455C52.2688 35.3455 52.6282 34.9861 52.6282 34.5427C52.6282 34.0993 52.2688 33.7399 51.8254 33.7399C51.382 33.7399 51.0226 34.0993 51.0226 34.5427C51.0226 34.9861 51.382 35.3455 51.8254 35.3455Z" fill="#999999" stroke="#263238" stroke-linecap="round" stroke-linejoin="round"/>
<path d="M204.66 24.8385H58.3066V47.505H204.66V24.8385Z" fill="#263238"/>
<path opacity="0.2" d="M202.545 26.5437H60.3635C59.9169 26.5437 59.5548 26.9058 59.5548 27.3524V31.0207C59.5548 31.4674 59.9169 31.8294 60.3635 31.8294H202.545C202.991 31.8294 203.353 31.4674 203.353 31.0207V27.3524C203.353 26.9058 202.991 26.5437 202.545 26.5437Z" fill="white"/>
<path d="M191.557 52.064H71.4271C68.0417 44.3259 66.2481 35.9856 66.1531 27.5399H196.855C196.855 38.8966 191.557 52.064 191.557 52.064Z" fill="white"/>
<g opacity="0.7">
<path opacity="0.7" d="M81.1431 50.224C81.1431 50.224 83.7742 50.0834 85.2451 49.1985C86.7159 48.3137 86.6104 49.9955 87.4543 50.1068C88.2981 50.2182 90.2905 49.5208 91.3453 49.5208C92.4001 49.5208 91.5973 50.1654 92.7869 50.1068C93.9765 50.0482 93.3377 50.1654 93.9589 50.0482L99.0512 49.1985C99.0512 49.1985 101.635 48.7004 102.157 48.9524C102.679 49.2044 103.364 50.4467 104.126 50.1244C104.888 49.8021 104.483 49.5384 105.632 49.5384C106.342 49.5417 107.048 49.6443 107.73 49.8431C107.73 49.8431 107.835 49.5443 108.363 49.5384H109.306C109.306 49.5384 111.304 50.0658 111.621 50.0658C111.937 50.0658 114.299 49.5443 114.381 49.5384C114.463 49.5325 116.725 48.9524 116.725 48.9524C117.205 49.454 117.813 49.8147 118.483 49.9955C119.339 50.1068 120.241 49.8783 120.886 50.1654C121.53 50.4526 123.652 50.0482 123.652 50.0482C124.158 50.0515 124.663 50.0907 125.163 50.1654C125.82 50.3153 126.504 50.2951 127.15 50.1068C128.338 49.7926 129.585 49.7725 130.783 50.0482C132.688 50.394 134.44 49.5267 135.248 49.5208C136.057 49.515 139.292 49.8783 140.405 49.8783C141.519 49.8783 144.466 50.2768 146.517 50.0482C148.568 49.8197 149.91 50.3354 151.287 50.3354C152.664 50.3354 154.135 50.2768 154.452 50.2768C154.768 50.2768 156.292 49.2806 158.472 49.5208C160.652 49.7611 158.712 49.222 160.054 49.5208C161.396 49.8197 162.456 50.1068 163.025 50.1654C163.481 50.192 163.938 50.1724 164.39 50.1068L166.734 49.9369H178.419" stroke="#263238" stroke-linecap="round" stroke-linejoin="round"/>
<path opacity="0.7" d="M78.7112 45.7001C78.7112 45.7001 85.9483 45.7001 87.2551 45.5829C88.5618 45.4657 89.2592 44.7977 89.9565 44.7977C90.6539 44.7977 94.1757 45.4657 94.1757 45.4657C94.2785 45.2472 94.4462 45.0657 94.656 44.9461C94.8657 44.8266 95.1073 44.7747 95.3477 44.7977C96.3029 44.7977 95.8165 44.8856 96.6955 45.2372C97.5745 45.5888 97.1174 45.2372 97.5804 45.5829C98.2705 45.8928 99.0001 46.1058 99.7486 46.2158C99.7486 46.2158 103.013 46.3681 103.136 45.5829C103.259 44.7977 104.894 46.2158 104.894 46.2158C104.894 46.2158 109.324 45.5829 111.035 45.5829C112.746 45.5829 117.036 45.2372 117.036 45.2372C117.036 45.2372 120.552 45.7001 120.716 45.7001C120.88 45.7001 121.46 46.6201 122.087 46.2158C122.714 45.8114 123.317 45.3485 124.062 45.4657C124.753 45.6371 125.422 45.8889 126.054 46.2158L127.689 45.3485L129.564 45.4657C129.564 45.4657 131.475 46.7373 132.84 46.2158C133.879 45.8003 134.895 45.3269 135.881 44.7977L137.563 46.2158H138.665L141.929 45.5829C142.18 45.8917 142.519 46.1173 142.9 46.2302C143.282 46.3432 143.689 46.3381 144.068 46.2158C145.451 45.8173 158.665 46.2158 162.029 46.2158C165.392 46.2158 166.131 45.3485 166.131 45.3485L168.721 46.2158H181.613" stroke="#263238" stroke-linecap="round" stroke-linejoin="round"/>
</g>
<path opacity="0.2" d="M192.782 48.677C192.073 50.7866 191.557 52.0641 191.557 52.0641H71.4271C71.4271 52.0641 70.8412 50.8335 70.0383 48.677H192.782Z" fill="black"/>
<path opacity="0.2" d="M195.284 39.8049C194.88 41.5629 194.434 43.2799 193.995 44.7976H68.7316C68.2979 43.3092 67.8526 41.6274 67.4658 39.8049H195.284Z" fill="black"/>
<path d="M191.557 52.064H71.4271C68.0417 44.3259 66.2481 35.9856 66.1531 27.5399H196.855C196.855 38.8966 191.557 52.064 191.557 52.064Z" stroke="#263238" stroke-linecap="round" stroke-linejoin="round"/>
<path d="M58.2772 23.6724H54.6968V48.6828H58.2772V23.6724Z" fill="#757575"/>
<path opacity="0.2" d="M58.2069 41.264H54.7202V48.6828H58.2069V41.264Z" fill="black"/>
<path d="M58.2772 23.6724H54.6968V48.6828H58.2772V23.6724Z" stroke="#263238" stroke-linecap="round" stroke-linejoin="round"/>
<path d="M208.264 23.6724H204.684V48.6828H208.264V23.6724Z" fill="#757575"/>
<path opacity="0.2" d="M208.264 41.264H204.654V48.6828H208.264V41.264Z" fill="black"/>
<path d="M208.264 23.6724H204.684V48.6828H208.264V23.6724Z" stroke="#263238" stroke-linecap="round" stroke-linejoin="round"/>
<path d="M204.713 22.6234V40.8656H58.248V22.6234H56.8416V42.0903H206.119V22.6234H204.713Z" fill="#999999" stroke="#263238" stroke-linecap="round" stroke-linejoin="round"/>
<path d="M213.368 53.3532V94.2618C213.368 94.9519 213.094 95.6137 212.606 96.1016C212.118 96.5896 211.456 96.8637 210.766 96.8637H52.177C51.487 96.8637 50.8252 96.5896 50.3373 96.1016C49.8493 95.6137 49.5752 94.9519 49.5752 94.2618V53.3532C49.5752 52.6631 49.8493 52.0013 50.3373 51.5134C50.8252 51.0255 51.487 50.7513 52.177 50.7513H125.251V53.3532C125.251 53.3532 112.775 64.1766 91.2632 68.1673C94.3456 82.1199 111.187 92.7793 131.51 92.7793C151.832 92.7793 168.674 82.1082 171.762 68.1673C150.221 64.1766 137.745 53.3532 137.745 53.3532V50.7279H210.784C211.126 50.7302 211.464 50.8 211.78 50.9332C212.095 51.0665 212.381 51.2606 212.621 51.5045C212.861 51.7483 213.05 52.0371 213.178 52.3544C213.307 52.6716 213.371 53.011 213.368 53.3532Z" fill="white" stroke="#263238" stroke-linecap="round" stroke-linejoin="round"/>
<path d="M213.368 53.3532V94.2618C213.368 94.604 213.301 94.9428 213.169 95.2589C213.038 95.5749 212.846 95.862 212.604 96.1037C212.362 96.3454 212.074 96.5369 211.758 96.6673C211.441 96.7977 211.103 96.8644 210.76 96.8637H52.177C51.8349 96.8644 51.4959 96.7977 51.1796 96.6673C50.8632 96.5369 50.5757 96.3454 50.3335 96.1037C50.0912 95.862 49.8991 95.5749 49.7679 95.2589C49.6368 94.9428 49.5693 94.604 49.5693 94.2618V53.3532C49.5709 52.6621 49.8461 51.9997 50.3348 51.511C50.8235 51.0223 51.4859 50.747 52.177 50.7455H125.251V53.3532C125.251 53.3532 112.769 64.1707 91.2632 68.1673C94.3456 82.1199 111.187 92.7792 131.516 92.7792C151.844 92.7792 168.674 82.1082 171.762 68.1673C150.221 64.1707 137.745 53.3532 137.745 53.3532V50.7279H210.784C211.474 50.7341 212.134 51.014 212.619 51.5062C213.103 51.9983 213.373 52.6626 213.368 53.3532Z" fill="white"/>
<path opacity="0.2" d="M209.852 53.9803V91.748C209.852 91.9991 209.802 92.2477 209.706 92.4795C209.61 92.7114 209.468 92.9218 209.29 93.0988C209.112 93.2758 208.901 93.4159 208.668 93.5109C208.436 93.6059 208.187 93.654 207.936 93.6525H53.7358C53.4855 93.6533 53.2375 93.6045 53.0061 93.5091C52.7747 93.4137 52.5644 93.2734 52.3874 93.0964C52.2104 92.9194 52.0701 92.7091 51.9747 92.4777C51.8793 92.2463 51.8305 91.9983 51.8313 91.748V53.9803C51.8305 53.7294 51.8792 53.4809 51.9745 53.2488C52.0698 53.0167 52.2098 52.8057 52.3867 52.6278C52.5635 52.4498 52.7737 52.3085 53.0052 52.2117C53.2367 52.115 53.4849 52.0649 53.7358 52.0641H125.228V53.3533C125.228 53.3533 112.746 64.1708 91.2398 68.1674C94.3222 82.12 111.164 92.7794 131.492 92.7794C151.82 92.7794 168.65 82.1083 171.739 68.1674C150.197 64.1708 137.721 53.3533 137.721 53.3533V52.0641H207.953C208.459 52.0687 208.941 52.2727 209.297 52.6315C209.653 52.9904 209.852 53.4751 209.852 53.9803Z" fill="white"/>
<path d="M213.368 53.3532V94.2618C213.368 94.604 213.301 94.9428 213.169 95.2589C213.038 95.5749 212.846 95.862 212.604 96.1037C212.362 96.3454 212.074 96.5369 211.758 96.6673C211.441 96.7977 211.103 96.8644 210.76 96.8637H52.177C51.8349 96.8644 51.4959 96.7977 51.1796 96.6673C50.8632 96.5369 50.5757 96.3454 50.3335 96.1037C50.0912 95.862 49.8991 95.5749 49.7679 95.2589C49.6368 94.9428 49.5693 94.604 49.5693 94.2618V53.3532C49.5709 52.6621 49.8461 51.9997 50.3348 51.511C50.8235 51.0223 51.4859 50.747 52.177 50.7455H125.251V53.3532C125.251 53.3532 112.769 64.1707 91.2632 68.1673C94.3456 82.1199 111.187 92.7792 131.516 92.7792C151.844 92.7792 168.674 82.1082 171.762 68.1673C150.221 64.1707 137.745 53.3532 137.745 53.3532V50.7279H210.784C211.474 50.7341 212.134 51.014 212.619 51.5062C213.103 51.9983 213.373 52.6626 213.368 53.3532V53.3532Z" stroke="#263238" stroke-linecap="round" stroke-linejoin="round"/>
<path opacity="0.2" d="M160.98 108.988L168.768 130.711C168.768 130.711 172.137 106.802 174.147 106.802C176.157 106.802 180.488 119.876 180.488 119.876C180.488 119.876 183.16 113.055 185.691 112.809C188.223 112.563 190.514 129.557 190.514 129.557L190.907 167.278L187.713 224.325C187.713 224.325 167.338 201.881 161.396 196.097C155.454 190.313 149.775 177.585 148.134 175.001C146.494 172.417 146.078 158.886 146.078 158.886C148.155 156.228 149.241 152.929 149.148 149.557C149.148 149.557 153.93 141.552 153.637 135.645C153.344 129.738 152.606 106.785 160.98 108.988Z" fill="black" fill-opacity="0.7"/>
<path d="M222.281 214.222L191.434 230.448C191.434 230.284 187.379 223.715 182.48 216.285C180.265 212.921 177.874 209.388 175.606 206.188C171.891 200.955 167.168 196.437 166.763 195.452C165.591 192.522 156.555 181.553 154.534 177.286C152.512 173.02 152.049 159.747 151.158 156.624C150.268 153.501 152.822 150.518 154.873 149.065C156.924 147.611 159.075 143.791 159.075 143.791C159.075 143.791 156.807 134.954 156.784 130.459C156.76 125.965 155.231 110.277 157.059 108.812C158.888 107.347 160.523 107.963 160.98 108.971C162.48 112.293 163.828 120.65 164.982 124.5C166.136 128.35 168.305 139.519 169.371 140.322C170.438 141.124 172.336 138.112 172.336 138.112C172.336 138.112 172.518 128.736 172.922 124.851L172.336 112.545C172.336 112.545 171.24 105.15 173.79 104.447C177.306 103.48 178.589 105.689 178.987 106.621C179.386 107.552 181.027 112.92 181.027 112.92L181.12 113.289C181.12 113.325 181.12 113.36 181.12 113.401V113.465C181.148 113.567 181.177 113.678 181.208 113.799C181.273 114.045 181.349 114.338 181.431 114.672C182.21 117.725 183.711 123.837 183.646 125.343C183.558 127.377 182.849 138.64 183.851 140.978L185.41 125.42C185.41 125.42 182.896 113.43 183.628 111.701C184.361 109.973 187.813 111.883 188.223 112.563C188.633 113.242 191.985 117.356 192.583 118.927L193.169 120.497C193.169 120.497 193.995 116.782 195.934 117.749C197.874 118.716 198.114 123.439 198.249 125.502C198.384 127.564 199.79 140.831 200.007 140.855C200.224 140.878 202.463 147.77 202.158 152.323C201.519 162.068 203.207 169.317 203.265 173.056C203.324 176.794 200.505 185.455 200.505 185.455C200.605 185.625 202.445 188.754 202.949 191.503C203.318 193.519 209.887 200.803 215.255 206.598C218.988 210.595 222.117 213.865 222.281 214.222Z" fill="white"/>
<path opacity="0.4" d="M182.486 216.296C180.271 212.933 177.88 209.399 175.612 206.2C171.897 200.967 167.174 196.449 166.769 195.464C165.597 192.534 156.561 181.564 154.539 177.298C152.518 173.032 152.055 159.759 151.164 156.636C150.273 153.512 152.828 150.53 154.879 149.076C156.93 147.623 159.081 143.802 159.081 143.802C159.081 143.802 156.813 134.965 156.79 130.471C156.766 125.976 155.237 110.289 157.065 108.824C158.893 107.359 160.528 107.974 160.985 108.982C162.486 112.305 163.833 120.661 164.988 124.511C166.142 128.361 168.31 139.53 169.377 140.333C170.443 141.136 172.342 138.124 172.342 138.124C172.342 138.124 172.524 128.748 172.928 124.863L172.342 112.557C172.342 112.557 171.246 105.162 173.795 104.458C177.311 103.491 178.595 105.701 178.993 106.632C179.392 107.564 181.033 112.932 181.033 112.932L181.126 113.301C181.126 113.336 181.126 113.371 181.126 113.412V113.477C181.15 113.578 181.179 113.69 181.214 113.811C181.279 114.057 181.355 114.35 181.437 114.684C180.529 113.248 179.28 112.024 177.61 111.701C172.922 110.787 173.936 116.003 174.381 119.132C174.634 121.208 174.585 123.31 174.235 125.373L175.407 124.699C174.563 126.205 173.356 138.722 173.356 141.505C173.356 144.289 171.153 145.215 169.178 144.4C167.203 143.586 166.5 130.811 165 128.519C163.499 126.228 159.327 130.606 159.14 134.608C158.952 138.61 162.685 150.547 161.8 153.36C160.915 156.173 160.927 166.838 160.927 166.838L159.849 164.09C159.919 164.465 159.849 165.725 157.593 169.434C156.745 170.777 156.197 172.286 155.986 173.86C155.774 175.433 155.905 177.034 156.368 178.552C157.745 181.594 164.73 189.61 165.902 190.436C165.902 190.436 166.752 186.955 169.418 187.881C168.51 189.325 167.849 190.909 167.461 192.569C166.91 195.124 172.471 196.759 174.211 199.191C175.278 200.674 175.993 205.192 182.486 216.296Z" fill="white"/>
<path opacity="0.4" d="M215.29 206.604C209.805 201.078 200.154 195.816 200.74 194.439C201.525 192.587 200.529 188.643 198.841 185.444C197.153 182.244 199.427 177.052 199.427 177.052L200.47 180.07C201.305 176.589 201.403 172.972 200.757 169.452C199.691 163.469 198.859 165.572 198.859 165.572C198.859 165.572 199.075 160.181 200.031 157.239C200.986 154.298 201.789 147.154 200.47 142.929C199.152 138.704 196.368 139.501 195.624 140.954C194.88 142.408 195.677 148.074 196.292 149.932C196.907 151.79 194.288 154.913 194.235 152.592C194.182 150.272 193.192 143.802 193.192 143.802L195.179 130.811L193.192 120.491C193.192 120.491 194.018 116.776 195.958 117.743C197.898 118.71 198.138 123.433 198.273 125.496C198.407 127.558 199.814 140.826 200.031 140.849C200.247 140.872 202.486 147.764 202.181 152.317C201.543 162.062 203.23 169.311 203.289 173.05C203.347 176.788 200.529 185.449 200.529 185.449C200.628 185.619 202.468 188.749 202.972 191.497C203.342 193.513 209.911 200.797 215.278 206.592L215.29 206.604Z" fill="white"/>
<path opacity="0.4" d="M192.583 118.927C192.694 119.22 192.788 119.46 192.858 119.653C190.995 115.323 187.818 116.665 187.256 117.895C186.693 119.126 188.586 126.762 189.014 127.945C189.442 129.129 187.314 138.581 187.004 141.71C186.693 144.84 185.867 145.478 185.867 145.478C183.763 145.637 183.523 139.829 183.523 139.032C183.564 139.699 183.694 140.357 183.91 140.99L185.469 125.431C185.469 125.431 182.896 113.43 183.628 111.701C184.361 109.973 187.813 111.883 188.223 112.563C188.633 113.242 191.985 117.356 192.583 118.927Z" fill="white"/>
<path d="M222.281 214.222C221.883 213.32 203.582 194.884 202.943 191.497C202.427 188.672 200.494 185.444 200.494 185.444C200.494 185.444 203.312 176.8 203.254 173.044C203.195 169.288 201.496 162.056 202.146 152.311C202.451 147.758 200.218 140.867 199.995 140.843C199.773 140.82 198.366 127.553 198.237 125.49C198.109 123.427 197.868 118.704 195.923 117.737C193.977 116.77 193.157 120.485 193.157 120.485L192.571 118.915C191.985 117.344 188.621 113.231 188.211 112.551C187.801 111.871 184.355 109.955 183.617 111.69C182.878 113.424 185.451 125.396 185.451 125.396L183.904 140.972C182.902 138.628 183.611 127.371 183.699 125.338C183.787 123.304 181.033 112.914 181.033 112.914C181.033 112.914 179.38 107.57 178.993 106.609C178.606 105.648 177.311 103.468 173.795 104.435C171.246 105.138 172.342 112.533 172.342 112.533L172.928 124.839C172.535 128.742 172.342 138.101 172.342 138.101C172.342 138.101 170.443 141.107 169.377 140.31C168.31 139.513 166.142 128.35 164.988 124.488C163.833 120.626 162.486 112.281 160.985 108.959C160.528 107.951 158.893 107.336 157.065 108.801C155.237 110.266 156.76 125.947 156.79 130.447C156.819 134.948 159.081 143.779 159.081 143.779C159.081 143.779 156.93 147.576 154.879 149.053C152.828 150.53 150.273 153.483 151.164 156.612C152.055 159.742 152.518 173.02 154.539 177.275C156.561 181.529 165.574 192.511 166.769 195.441C167.174 196.425 171.897 200.943 175.612 206.176C182.908 216.449 191.434 230.202 191.434 230.437" stroke="#263238" stroke-linecap="round" stroke-linejoin="round"/>
<path d="M159.075 143.808C159.075 143.808 160.528 151.01 160.476 152.217C160.476 152.217 159.204 157.778 159.192 161.382C158.302 162.74 157.504 164.156 156.801 165.619C156.309 166.92 155.43 170.12 155.794 171.901" stroke="#263238" stroke-linecap="round" stroke-linejoin="round"/>
<path d="M156.421 154.45C156.421 154.45 159.983 154.479 159.755 155.979" stroke="#263238" stroke-linecap="round" stroke-linejoin="round"/>
<path d="M159.192 161.382C159.192 161.382 156.907 160.392 156.104 161.722" stroke="#263238" stroke-linecap="round" stroke-linejoin="round"/>
<path d="M172.348 138.124C172.348 138.124 172.184 143.644 170.731 143.205" stroke="#263238" stroke-linecap="round" stroke-linejoin="round"/>
<path d="M183.904 140.972C183.904 140.972 183.482 143.99 184.619 144.922" stroke="#263238" stroke-linecap="round" stroke-linejoin="round"/>
<path d="M193.174 120.497C193.174 120.497 194.757 128.115 195.12 129.92C195.483 131.725 193.321 140.937 193.362 143.334C193.403 145.73 194.428 149.158 194.288 150.77" stroke="#263238" stroke-linecap="round" stroke-linejoin="round"/>
<path d="M199.492 178.353C199.492 178.353 198.982 183.328 200.511 185.455" stroke="#263238" stroke-linecap="round" stroke-linejoin="round"/>
<path d="M168.768 188.198C168.768 188.198 165.357 191.304 166.605 195.124" stroke="#263238" stroke-linecap="round" stroke-linejoin="round"/>
<path d="M191.182 149.475C191.235 151.666 189.951 154.221 189.817 157.251" stroke="#263238" stroke-linecap="round" stroke-linejoin="round"/>
<path d="M180.318 147.518C181.044 149.311 179.462 153.213 179.222 154.678C179.126 155.825 179.251 156.979 179.591 158.077" stroke="#263238" stroke-linecap="round" stroke-linejoin="round"/>
<path d="M200.74 153.694C200.447 155.599 199.099 156.958 198.841 162.818" stroke="#263238" stroke-linecap="round" stroke-linejoin="round"/>
<path d="M167.467 146.961C168.451 148.033 167.789 153.155 168.053 153.993" stroke="#263238" stroke-linecap="round" stroke-linejoin="round"/>
<path d="M185.826 117.456C185.826 117.456 189.178 115.001 192.061 117.895" stroke="#263238" stroke-linecap="round" stroke-linejoin="round"/>
<path d="M174.282 111.813C174.282 111.813 174.868 110.834 177.698 111.074C180.529 111.314 181.033 112.908 181.033 112.908" stroke="#263238" stroke-linecap="round" stroke-linejoin="round"/>
<path d="M166.013 128.543C166.013 128.543 165.064 127.142 162.562 127.605C160.06 128.068 158.946 131.608 158.946 131.608" fill="white"/>
<path d="M166.013 128.543C166.013 128.543 165.064 127.142 162.562 127.605C160.06 128.068 158.946 131.608 158.946 131.608" stroke="#263238" stroke-linecap="round" stroke-linejoin="round"/>
<path d="M200.013 140.855C200.013 140.855 197.927 137.831 195.419 139.126" stroke="#263238" stroke-linecap="round" stroke-linejoin="round"/>
<path opacity="0.2" d="M111.14 118.704C114.656 121.429 111.691 138.153 111.691 138.153L112.002 143.597L118.032 140.972L120.78 152.604C120.78 152.604 120.71 156.864 122.942 158.464C122.942 158.464 123.493 168.022 122.942 175.007C122.392 181.992 111.222 190.202 107.372 197.533C103.522 204.864 78.4122 226.411 78.4122 226.411L57.1521 216.296L72.5229 154.216L86.2939 136.513L94.4569 116.149C94.4569 116.149 95.8574 129.451 95.0429 138.417L111.14 118.704Z" fill="black" fill-opacity="0.7"/>
<path d="M117.059 155.856C116.526 158.423 117.809 172.493 117.586 174.392C117.364 176.29 106.171 189.042 105.608 190.008C105.046 190.975 97.5627 195.283 95.8223 197.339C87.6886 206.827 83.2467 215.564 79.678 224.325C78.9924 226.012 78.336 227.706 77.6914 229.405L45.4146 210.653C48.1277 207.29 50.6886 204.301 53.0326 201.582C57.7206 196.068 61.4534 191.655 63.2817 187.489C63.8428 186.425 64.4854 185.406 65.2038 184.441C65.9304 183.41 66.5809 182.56 66.5809 182.56C66.5809 182.56 64.2369 175.956 64.7819 173.882C65.3268 171.807 64.108 154.755 64.108 154.755C64.108 154.755 62.5199 143.146 60.9553 140.216C60.571 139.451 60.3971 138.598 60.4513 137.743C60.5275 135.065 62.0804 131.69 62.8422 127.781C63.8618 122.507 63.3696 119.899 66.5692 121.722C69.7687 123.544 68.2744 134.614 68.2744 134.614L73.1089 145.326C74.3805 142.736 73.1089 135.176 73.0445 133.389C73.0445 133.096 73.0445 132.61 72.9976 131.977C72.898 128.895 72.6929 122.478 72.9566 119.946C72.9566 119.806 72.9566 119.677 73.0034 119.56C73.3961 116.946 74.7966 108.631 75.6873 107.705C77.0117 106.334 79.1154 105.179 81.0961 108.291C82.2036 110.049 81.729 123.99 81.729 123.99C81.729 123.99 86.3232 118.446 87.7179 117.093C89.1126 115.739 93.3435 113.266 94.4745 116.131C95.6055 118.997 91.4331 127.851 91.4331 127.851C92.3063 129.902 92.4118 135.581 92.4118 135.581C92.4118 135.581 94.3866 142.677 95.5996 142.613H95.6523C96.0039 142.537 96.3907 141.247 96.795 139.437C97.7912 135.001 98.8753 127.412 99.725 126.75L100.311 126.281C100.338 126.247 100.369 126.218 100.405 126.193L100.622 126C102.696 124.154 107.068 120.052 107.068 120.052C107.068 120.052 107.378 118.089 111.205 118.692C115.031 119.296 109.505 130.588 109.505 130.588C108.738 134.18 107.56 143.421 107.56 143.421C107.202 147.266 107.413 157.597 107.413 157.597C107.413 157.597 109.224 151.584 109.107 149.393C108.99 147.201 112.705 141.833 113.795 140.45C114.885 139.068 119.749 139.554 118.395 142.208C117.041 144.863 117.592 153.278 117.059 155.856Z" fill="white"/>
<path opacity="0.4" d="M63.2642 187.512C63.8252 186.448 64.4679 185.429 65.1862 184.465C65.1862 184.465 63.2817 189.739 63.0942 192.546C62.9712 194.398 58.0956 197.603 53.015 201.605C57.7323 196.091 61.4358 191.679 63.2642 187.512Z" fill="white"/>
<path opacity="0.4" d="M65.1862 184.465C65.9129 183.434 66.5633 182.584 66.5633 182.584C66.5633 182.584 64.2193 175.98 64.7643 173.905C65.3093 171.831 64.0904 154.778 64.0904 154.778C64.0904 154.778 62.5024 143.17 60.9377 140.24L64.5827 146.609C64.5827 146.609 64.2252 151.643 65.2624 154.403C66.2996 157.163 67.6064 165.584 67.6064 165.584C67.6064 165.584 66.0711 172.663 66.5926 175.212C67.1142 177.761 69.464 176.835 69.464 176.835C69.464 176.835 70.6185 181.5 65.1862 184.465Z" fill="white"/>
<path opacity="0.4" d="M73.689 136.512C76.203 151.233 71.8724 147.16 70.3078 143.984C68.7432 140.808 65.069 134.796 62.3031 136.079C61.5263 136.443 60.8756 137.031 60.4337 137.767C60.5099 135.089 62.0628 131.713 62.8246 127.805C63.8442 122.531 63.352 119.923 66.5516 121.745C69.7511 123.568 68.2568 134.637 68.2568 134.637L73.0913 145.349C74.3629 142.759 73.0913 135.2 73.0269 133.413C73.0269 133.12 73.0269 132.633 72.98 132C73.1734 133.354 73.4078 134.86 73.689 136.512Z" fill="white"/>
<path opacity="0.4" d="M79.842 121.968C79.842 121.968 77.1289 118.417 74.7731 118.599C74.3686 118.62 73.9794 118.76 73.6534 119.001C73.3275 119.241 73.0791 119.572 72.939 119.952C72.939 119.812 72.939 119.683 72.9858 119.565C73.3785 116.952 74.779 108.637 75.6697 107.711C76.9941 106.339 79.0978 105.185 81.0785 108.297C82.186 110.055 81.7114 123.996 81.7114 123.996C81.7114 123.996 86.3056 118.452 87.7003 117.098C89.095 115.745 93.3259 113.272 94.4569 116.137C95.5879 119.003 91.4155 127.857 91.4155 127.857C92.2887 129.908 92.3942 135.587 92.3942 135.587C92.3942 135.587 94.369 142.683 95.582 142.619C92.9098 147.647 91.1284 136.53 91.1284 136.53C91.5269 134.233 90.1088 129.252 90.2494 127.939C90.39 126.627 87.7882 121.986 83.4049 123.251C79.0216 124.517 82.186 141.839 82.186 141.839C81.3199 143.219 80.816 144.795 80.721 146.422C79.3674 144.752 80.721 139.976 80.721 139.976C79.5197 135.405 79.842 121.968 79.842 121.968Z" fill="white"/>
<path opacity="0.4" d="M100.27 126.263C98.4007 128.227 98.6585 133.19 96.754 139.419C97.7502 134.983 98.8343 127.394 99.684 126.732L100.27 126.263Z" fill="white"/>
<path opacity="0.4" d="M117.059 155.856C116.526 158.423 117.809 172.493 117.586 174.391C117.364 176.29 106.171 189.041 105.608 190.008C105.046 190.975 97.5627 195.282 95.8223 197.339C87.6886 206.827 83.2467 215.564 79.678 224.325C81.0223 219.783 82.6446 215.329 84.5359 210.987C88.3859 202.332 89.9564 200.791 92.2653 198.318C94.5741 195.845 94.3221 190.589 94.3221 190.589C96.0262 190.178 97.773 189.972 99.5258 189.973C102.456 189.973 111.129 177.609 114.111 175.44C117.094 173.272 117.627 173.272 114.111 168.49C110.595 163.709 111.592 169.258 110.537 169.076C109.482 168.895 108.908 171.204 108.908 171.204C108.538 166.328 105.392 160.656 104.729 159.238C104.067 157.819 106.335 149.504 105.866 147.189C105.398 144.875 107.882 130.781 107.882 130.781C107.882 130.781 107.572 125.373 102.673 125.355C101.921 125.313 101.178 125.537 100.575 125.988C102.649 124.142 107.021 120.04 107.021 120.04C107.021 120.04 107.331 118.077 111.158 118.68C114.984 119.284 109.458 130.576 109.458 130.576C108.691 134.168 107.513 143.41 107.513 143.41C107.156 147.254 107.366 157.585 107.366 157.585C107.366 157.585 109.177 151.573 109.06 149.381C108.943 147.189 112.658 141.822 113.748 140.439C114.838 139.056 119.702 139.542 118.348 142.197C116.994 144.851 117.592 153.278 117.059 155.856Z" fill="white"/>
<path d="M77.6856 229.458C81.6645 218.951 86.1122 208.696 95.8223 197.369C97.5803 195.341 105.04 191.034 105.608 190.038C106.177 189.042 117.369 176.314 117.586 174.421C117.803 172.528 116.526 158.452 117.059 155.886C117.592 153.319 116.971 144.857 118.319 142.22C119.667 139.583 114.803 139.103 113.719 140.462C112.635 141.822 108.931 147.236 109.031 149.405C109.13 151.573 107.337 157.609 107.337 157.609C107.337 157.609 107.126 147.277 107.484 143.433C107.484 143.433 108.656 134.192 109.429 130.6C109.429 130.6 114.949 119.302 111.129 118.704C107.308 118.106 106.991 120.063 106.991 120.063C106.991 120.063 100.891 125.795 99.684 126.732C98.4768 127.67 96.8302 142.32 95.6172 142.595C94.4041 142.871 92.3766 135.563 92.3766 135.563C92.3766 135.563 92.2711 129.885 91.398 127.834C91.398 127.834 95.5644 119.003 94.4393 116.114C93.3142 113.225 89.0833 115.727 87.6827 117.075C86.2822 118.423 81.6938 123.972 81.6938 123.972C81.6938 123.972 82.1685 110.019 81.0609 108.273C79.0802 105.15 76.9589 106.304 75.6521 107.687C74.7614 108.613 73.3609 116.928 72.9683 119.542C72.5756 122.156 72.9683 131.578 73.0093 133.372C73.0503 135.165 74.3454 142.718 73.0737 145.308L68.2392 134.596C68.2392 134.596 69.7394 123.515 66.534 121.704C63.3286 119.894 63.8267 122.507 62.807 127.764C61.7874 133.02 59.3613 137.292 60.9201 140.228C62.4789 143.164 64.0728 154.766 64.0728 154.766C64.0728 154.766 65.2799 171.819 64.7467 173.893C64.2134 175.968 66.5633 182.578 66.5633 182.578C66.5633 182.578 63.856 186.147 63.2641 187.506C60.5334 193.712 53.6244 200.498 45.4087 210.706" stroke="#263238" stroke-linecap="round" stroke-linejoin="round"/>
<path d="M81.7113 124.007C81.0308 125.014 80.6862 126.21 80.7269 127.424C80.7269 129.651 82.186 141.839 82.186 141.839C82.186 141.839 81.1253 143.093 81.0726 144.183" stroke="#263238" stroke-linecap="round" stroke-linejoin="round"/>
<path d="M107.349 157.579C107.509 159.638 108.039 161.651 108.913 163.521C110.285 166.229 109.839 167.723 109.371 169.323C109.056 170.725 108.89 172.157 108.872 173.595" stroke="#263238" stroke-linecap="round" stroke-linejoin="round"/>
<path d="M73.607 142.923C73.607 142.923 74.6267 146.158 72.7339 147.693" stroke="#263238" stroke-linecap="round" stroke-linejoin="round"/>
<path d="M95.6347 142.595C95.6347 142.595 95.8339 143.867 94.0349 143.984" stroke="#263238" stroke-linecap="round" stroke-linejoin="round"/>
<path d="M107.718 127.945C107.718 127.945 103.206 123.023 99.7015 126.732" stroke="#263238" stroke-linecap="round" stroke-linejoin="round"/>
<path d="M89.4349 125.179C89.4349 125.179 87.3546 122.548 85.5497 122.706C83.7448 122.865 81.307 123.966 81.0316 125.414" stroke="#263238" stroke-linecap="round" stroke-linejoin="round"/>
<path d="M109.757 167.74C110.485 168.782 111.015 169.948 111.322 171.18" stroke="#263238" stroke-linecap="round" stroke-linejoin="round"/>
<path d="M98.0374 147.734C96.6368 150.342 97.3049 154.766 96.7892 155.979" stroke="#263238" stroke-linecap="round" stroke-linejoin="round"/>
<path d="M83.1998 143.404C83.5279 144.904 82.4907 147.348 82.3325 149.147C82.1743 150.946 83.6451 153.723 83.3756 156.249" stroke="#263238" stroke-linecap="round" stroke-linejoin="round"/>
<path d="M73.689 149.545C73.689 149.545 72.4643 152.37 72.517 154.233C72.5698 156.097 73.232 160.181 73.232 160.181" stroke="#263238" stroke-linecap="round" stroke-linejoin="round"/>
<path d="M64.6822 149.41C64.6822 149.41 64.2368 152.34 65.2682 154.403C66.2996 156.466 67.3016 160.849 67.3016 160.849" stroke="#263238" stroke-linecap="round" stroke-linejoin="round"/>
<path d="M66.5632 182.578C67.1034 182.428 67.5861 182.12 67.9487 181.693C68.3113 181.265 68.5371 180.739 68.5966 180.181" stroke="#263238" stroke-linecap="round" stroke-linejoin="round"/>
<path d="M96.0215 191.509C96.0215 191.509 97.1407 195.652 94.996 198.318" stroke="#263238" stroke-linecap="round" stroke-linejoin="round"/>
<path d="M60.463 137.274C60.463 137.274 63.6157 134.198 66.0007 136.794" stroke="#263238" stroke-linecap="round" stroke-linejoin="round"/>
<path d="M72.9858 119.565C72.9858 119.565 75.3298 117.11 78.0723 119.735" stroke="#263238" stroke-linecap="round" stroke-linejoin="round"/>
</svg>
